<svg width="125" height="40" viewBox="0 0 125 40" fill="none" xmlns="http://www.w3.org/2000/svg">
<g clip-path="url(#clip0_5417_33)">
<path fill-rule="evenodd" clip-rule="evenodd" d="M32.761 10.0004C31.1398 10.0004 29.9059 10.45 29.0599 11.3487C28.2134 12.2478 27.7906 13.5074 27.7906 15.1269V16.0614H25.4392V19.0788H27.7906V29.5188H31.4517V19.0788H35.38V16.0614H31.4517V15.0202C31.4517 14.344 31.621 13.8319 31.9595 13.4848C32.2977 13.1378 32.8235 12.964 33.5361 12.964C33.9456 12.964 34.3246 13.0086 34.672 13.0974C35.0193 13.1865 35.3267 13.3111 35.5939 13.4711V10.6679C35.2908 10.4721 34.8947 10.3121 34.4047 10.1871C33.9143 10.0629 33.3668 10.0004 32.761 10.0004ZM46.6302 16.5689C45.5615 15.9639 44.3406 15.661 42.9691 15.661C41.5977 15.661 40.408 15.9639 39.3485 16.5689C38.2885 17.1743 37.4646 18.0197 36.8766 19.1054C36.2887 20.1916 35.9947 21.4283 35.9947 22.8169C35.9947 24.2056 36.2929 25.4381 36.89 26.5151C37.4867 27.5922 38.3152 28.4288 39.3752 29.025C40.4351 29.6213 41.6335 29.9196 42.9695 29.9196C44.3056 29.9196 45.5619 29.6213 46.6306 29.025C47.6993 28.4288 48.5321 27.5926 49.1292 26.5151C49.7259 25.4381 50.0244 24.2052 50.0244 22.8169C50.0244 21.4287 49.7259 20.1916 49.1292 19.1054C48.5321 18.0197 47.6994 17.1743 46.6302 16.5689ZM45.8955 24.886C45.637 25.4827 45.2583 25.9452 44.7596 26.2747C44.2605 26.6043 43.6638 26.7685 42.9691 26.7685C42.2744 26.7685 41.7132 26.6043 41.232 26.2747C40.7512 25.9456 40.3768 25.4827 40.1095 24.886C39.8422 24.2898 39.7088 23.6003 39.7088 22.8165C39.7088 22.0328 39.8376 21.317 40.0961 20.7204C40.3543 20.1241 40.7283 19.6571 41.2187 19.3188C41.7082 18.9809 42.2915 18.8113 42.9687 18.8113C43.6459 18.8113 44.2601 18.9809 44.7592 19.3188C45.2575 19.6571 45.6365 20.1287 45.8951 20.7337C46.1532 21.3391 46.2825 22.0332 46.2825 22.8165C46.2825 23.5998 46.1536 24.2894 45.8955 24.886ZM59.577 26.021C60.0315 25.5406 60.2584 24.8731 60.2584 24.0186L60.258 16.0618H63.919V24.259C63.919 25.3806 63.6738 26.3777 63.1843 27.2497C62.6939 28.1222 61.9817 28.7988 61.0465 29.2792C60.1112 29.7596 58.9841 30 57.7194 30C56.4547 30 55.3634 29.7596 54.4461 29.2792C53.5283 28.7984 52.8245 28.1222 52.3349 27.2497C51.845 26.3777 51.6002 25.3806 51.6002 24.259V16.0618H55.2346V24.0186C55.2346 24.8556 55.4573 25.5189 55.9026 26.0081C56.3475 26.4976 56.9359 26.7422 57.7198 26.7422C58.5037 26.7422 59.1225 26.5014 59.577 26.021ZM76.5323 16.3151C75.8376 15.8789 74.9999 15.661 74.0204 15.661C72.8086 15.661 71.8066 15.9639 71.014 16.5689C70.4469 17.0018 70.0074 17.5459 69.6909 18.1976V16.0618H66.0832V29.5188H69.7176V22.2828C69.7176 21.197 69.9715 20.3383 70.479 19.7063C70.9869 19.0746 71.6949 18.7584 72.6035 18.7584C73.5121 18.7584 74.1088 19.0167 74.5007 19.5325C74.8923 20.0491 75.0887 20.8408 75.0887 21.9087V29.5183H78.7231V21.0808C78.7231 19.9596 78.5313 18.9942 78.1485 18.1838C77.7653 17.3738 77.227 16.7518 76.5323 16.3151ZM97.455 15.6614C98.7552 15.6614 99.8777 15.9064 100.822 16.3956C101.766 16.8855 102.483 17.5797 102.973 18.4784C103.462 19.3775 103.708 20.45 103.708 21.6958V29.5192H100.127V27.8513C99.8527 28.3601 99.4757 28.788 98.9912 29.1321C98.2515 29.6571 97.365 29.92 96.3321 29.92C95.4594 29.92 94.6796 29.7329 93.9941 29.3592C93.3082 28.9855 92.7736 28.4692 92.3908 27.8105C92.0076 27.1522 91.8162 26.4135 91.8162 25.5943C91.8162 24.7044 92.021 23.9348 92.4308 23.2849C92.8407 22.6353 93.4062 22.1324 94.1279 21.7762C94.8493 21.4204 95.6645 21.242 96.6265 21.242C97.5885 21.242 98.3991 21.4383 99.0583 21.8295C99.4924 22.0878 99.8472 22.4007 100.127 22.767V22.0699C100.127 21.0016 99.8239 20.1783 99.2184 19.6C98.6126 19.0217 97.7665 18.7321 96.6799 18.7321C95.8784 18.7321 95.1208 18.8746 94.4086 19.1592C93.6956 19.4442 93.0726 19.8446 92.538 20.3608V17.1568C93.1968 16.7118 93.9361 16.3514 94.7559 16.0752C95.5753 15.7993 96.4751 15.6614 97.455 15.6614ZM97.6956 27.4363C98.1939 27.4363 98.6309 27.343 99.0049 27.1559C99.3794 26.9693 99.6638 26.7193 99.8598 26.4076C100.055 26.0964 100.153 25.7448 100.153 25.3531C100.153 24.7656 99.9306 24.2894 99.4857 23.9244C99.0404 23.5598 98.4887 23.3774 97.7223 23.3774C96.9559 23.3774 96.3546 23.5557 95.9185 23.9115C95.4819 24.2681 95.2638 24.7569 95.2638 25.3802C95.2638 26.0035 95.4777 26.5018 95.9051 26.8755C96.3329 27.2493 96.9292 27.4363 97.6956 27.4363ZM123.976 18.1842C123.593 17.3743 123.054 16.7518 122.36 16.3151C121.665 15.8789 120.827 15.661 119.848 15.661C118.636 15.661 117.634 15.9639 116.841 16.5689C116.274 17.0018 115.835 17.5459 115.518 18.1976V16.0618H111.91V29.5188H115.545V22.2828C115.545 21.197 115.799 20.3383 116.306 19.7063C116.814 19.0746 117.522 18.7584 118.431 18.7584C119.339 18.7584 119.936 19.0167 120.328 19.5325C120.72 20.0491 120.916 20.8408 120.916 21.9087V29.5183H124.55V21.0808C124.55 19.9596 124.359 18.9946 123.976 18.1842ZM88.2632 26.956C88.7265 26.956 89.1092 26.8981 89.4124 26.7822C89.7151 26.6668 90.0087 26.5197 90.2939 26.3414L90.3206 26.3148V29.145C89.8748 29.43 89.4207 29.6434 88.9575 29.7859C88.4938 29.9284 87.9058 29.9996 87.1936 29.9996C86.2137 29.9996 85.3806 29.8034 84.6951 29.4121C84.0092 29.0209 83.4925 28.4776 83.1452 27.7834C82.7978 27.0889 82.6244 26.2706 82.6244 25.3269V19.0788H79.8986V16.0614H82.6244V12.3233H86.2855V16.0614H90.16V19.0788H86.2855V24.8731C86.2855 25.5673 86.4548 26.0881 86.7933 26.4352C87.1315 26.7822 87.6219 26.956 88.2632 26.956ZM109.64 16.0614H105.979V29.5188H109.64V16.0614ZM105.592 12.3233C105.592 11.1141 106.573 10.1338 107.783 10.1338C108.993 10.1338 109.974 11.1141 109.974 12.3233C109.974 13.5324 108.993 14.5127 107.783 14.5127C106.573 14.5127 105.592 13.5324 105.592 12.3233ZM15.712 29.5192C17.7782 29.5192 19.4532 27.8455 19.4532 25.781C19.4532 23.7165 17.7782 22.0428 15.712 22.0428C13.083 22.0428 11.1423 23.9736 10.2579 27.2764H9.19462C8.30979 23.9736 6.36959 22.0428 3.74053 22.0428C1.6744 22.0428 -0.000610352 23.7165 -0.000610352 25.781C-0.000610352 27.8455 1.6744 29.5192 3.74053 29.5192H15.712ZM10.2579 17.5572C11.1423 14.2544 13.083 12.3237 15.712 12.3237C17.7781 12.3237 19.4532 13.9973 19.4532 16.0619C19.4532 18.1263 17.7781 19.8 15.712 19.8C13.2147 19.8 11.1586 20.9716 9.72627 23.0499C8.29394 20.9716 6.23782 19.8 3.74053 19.8C1.6744 19.8 -0.000610352 18.1263 -0.000610352 16.0619C-0.000610352 13.9973 1.6744 12.3237 3.74053 12.3237C6.36958 12.3237 8.30979 14.2544 9.19462 17.5572H10.2579Z" fill="#000"/>
</g>
<defs>
<clipPath id="clip0_5417_33">
<rect width="124.551" height="40" fill="#000" transform="translate(-0.000610352)"/>
</clipPath>
</defs>
</svg>
