<svg fill="none" height="40" viewbox="0 0 92 40" width="92" xmlns="http://www.w3.org/2000/svg">
<path clip-rule="evenodd" d="M44.3148 35.9879L39.2735 34.7852V14.4865L44.3148 13.5268V35.9879ZM79.5795 31.2017C75.923 31.2138 72.959 28.2619 72.9347 24.6055C72.9347 24.5933 72.9347 24.5812 72.9347 24.569C72.9347 20.9733 75.8866 18.0215 79.5673 18.0215C83.2481 18.0215 86.2 20.9733 86.2 24.569C86.2121 28.2255 83.2481 31.1895 79.6038 31.2017C79.6038 31.2017 79.5916 31.2017 79.5795 31.2017ZM91.0105 24.569C91.0105 30.8858 85.8963 36 79.5795 36C73.2627 36 68.1485 30.8858 68.1485 24.569C68.1485 18.3373 73.2748 13.2231 79.5916 13.2231C85.9084 13.2231 91.0105 18.3373 91.0105 24.569ZM26.154 34.7974L31.1102 35.8299V22.1638C31.1102 15.6041 25.996 13.296 22.4732 13.296C20.153 13.296 18.2337 13.8548 16.5573 15.5312C14.7959 13.8548 12.7186 13.211 11.0422 13.211C8.56412 13.211 6.48686 14.2435 5.04129 16.0049V13.6847L0 14.6444V34.7852L5.04129 35.8178V22.0059C5.04129 19.7707 6.64478 18.2523 9.11076 18.2523C11.431 18.2523 13.1074 19.7707 13.1074 22.0059V34.7974L18.0636 35.8299V22.0059C18.0636 19.7707 19.74 18.2523 22.1452 18.2523C24.4654 18.2523 26.1418 19.7707 26.1418 22.0059L26.154 34.7974ZM64.3827 13.2231L61.4187 13.624C55.9036 14.8995 52.3079 16.6609 52.3079 22.7347V34.7974L57.3492 35.757V23.4515C57.3492 20.6575 58.9527 19.3698 61.4308 18.8961L64.3949 18.4223L64.3827 13.2231ZM39.5164 4.90196C38.3138 6.12888 38.3138 8.07251 39.5164 9.29942C40.7433 10.5628 42.772 10.5749 44.0232 9.34802C44.0354 9.33587 44.0597 9.31157 44.0718 9.29942C45.2744 8.08466 45.2744 6.11673 44.0718 4.90196C42.7842 3.69935 40.7919 3.69935 39.5164 4.90196Z" fill="#141415" fill-rule="evenodd"></path>
</svg>