<svg xmlns="http://www.w3.org/2000/svg" viewBox="0 0 32 32" fill="currentColor">
  <path d="M19.29 6h3.43v20.57h-3.43z"></path><path d="M22.71 27.71h-3.43c-.63 0-1.14-.51-1.14-1.14V6c0-.63.51-1.14 1.14-1.14h3.43c.63 0 1.14.51 1.14 1.14v20.57c0 .63-.51 1.14-1.14 1.14m-2.28-2.28h1.14V7.14h-1.14v18.28ZM9 6h3.43v20.57H9z"></path><path d="M12.43 27.71H9c-.63 0-1.14-.51-1.14-1.14V6c0-.63.51-1.14 1.14-1.14h3.43c.63 0 1.14.51 1.14 1.14v20.57c0 .63-.51 1.14-1.14 1.14m-2.29-2.28h1.14V7.14h-1.14v18.28Z"></path>
</svg>