<svg aria-hidden="true" fill="none" height="23" viewbox="0 0 26 23" width="26"> <path d="M11.0321 10.9986C11.1409 10.9015 11.3087 10.9059 11.413 11.0163L12.4287 12.0317C13.263 12.8794 14.646 12.9501 15.571 12.2039C15.5846 12.1907 15.6027 12.1774 15.6163 12.1642L22.5131 5.89046C22.7307 5.94344 22.9574 5.97435 23.1887 5.97435C24.939 5.97435 26.3129 4.42026 25.9365 2.64984C25.7143 1.61673 24.8573 0.777878 23.7963 0.565957C21.978 0.195096 20.3819 1.53726 20.3819 3.24145C20.3819 3.7845 20.5452 4.28781 20.8263 4.71165L14.256 10.6896C14.1472 10.7646 13.9976 10.7514 13.8978 10.6543L12.8821 9.6388C12.016 8.76463 10.5696 8.72048 9.61737 9.57258L0.820719 18.1951C0.294733 18.6675 0 19.3386 0 20.0362C0.00906871 21.396 1.15173 22.5041 2.54831 22.5041H21.8239C23.2295 22.5041 24.3722 21.3916 24.3722 20.0229V11.1267C24.3722 10.5792 23.9142 10.1333 23.3519 10.1333C22.7897 10.1333 22.3317 10.5792 22.3317 11.1267V20.0229C22.3317 20.2966 22.105 20.5174 21.8239 20.5174H2.54831C2.27171 20.5174 2.04046 20.2966 2.04046 20.0273C2.04046 19.8905 2.09941 19.7536 2.23544 19.63L11.0321 11.003V10.9986Z" fill="#FF4800"></path> </svg>