<svg xmlns="http://www.w3.org/2000/svg" fill="none" viewBox="0 0 24 25" class="icon-module-scss-module__leGPra__icon" width="24" height="24"><path fill="currentColor" fill-rule="evenodd" d="M9.5 1v3h-1V1zm3 0v3h-1V1zm3 0v3h-1V1zm-3.158 5.44A6.9 6.9 0 0 1 16.9 4.7h5.7v8.1h-1.12a6.73 6.73 0 0 1-1.231 3.374l.614.683c.634.645.416 1.538.037 2.043l-.021.028-.726.726a1.55 1.55 0 0 1-1.09.446c-.344 0-.716-.118-.98-.402A2 2 0 0 1 17.9 20l-.038.05-.53.425c-.3.287-.696.425-1.07.425-.231 0-.476-.054-.692-.176q-.076.15-.17.276l-.021.028-.526.526a1.46 1.46 0 0 1-1.114.408c-.359-.017-.736-.152-.993-.408l-.011-.012-.175-.2q-.072.141-.16.258l-.029.038-1.278 1.162h-.608l-5.943-6.251c-.982-.984-1.517-2.305-1.623-3.649H1.8V4.8h6.1c1.603 0 3.204.586 4.443 1.64m-.696.721A5.9 5.9 0 0 0 7.9 5.8H2.8v6.1h1.1v.5c0 1.286.46 2.553 1.353 3.446l.01.01 5.555 5.843.806-.733a.8.8 0 0 0 .139-.391.5.5 0 0 0-.02-.166l-1.82-2.08.75-.662 1.691 1.89q.142.146.23.306l.867.99c.05.044.167.103.325.11a.47.47 0 0 0 .36-.117l.472-.471a.8.8 0 0 0 .145-.4 1 1 0 0 0-.001-.072l-3.138-3.573.746-.666 2.993 3.292q.212.219.306.465l.32.364.01.015c.035.046.119.1.263.1a.55.55 0 0 0 .384-.154l.02-.02.466-.372a.8.8 0 0 0 .13-.379.4.4 0 0 0-.116-.321l-.01-.011-3.81-4.311.748-.664 4.714 5.316.012.016c.034.046.118.1.262.1a.55.55 0 0 0 .384-.154l.672-.672a.8.8 0 0 0 .145-.399.4.4 0 0 0-.117-.321l-.009-.01-.909-1.01-.001-.001-5.427-6.081-2.036 2.291-.01.01a1.587 1.587 0 0 1-2.208 0l-.016-.015-.523-.628L9 12.1a1.66 1.66 0 0 1-.325-.987c0-.33.101-.69.361-.956l2.405-2.663-.046-.04zm.756.76.244.284.759-.65-.326-.38-.024-.03A5.9 5.9 0 0 1 16.9 5.7h4.7v6.1h-1.1v.5c0 1.09-.331 2.183-.938 3.107L13.8 8.948l-2.761 3.107a.59.59 0 0 1-.771.004l-.474-.568a.66.66 0 0 1-.118-.378c0-.143.046-.227.078-.26l.01-.008z" clip-rule="evenodd"></path></svg>