<svg xmlns="http://www.w3.org/2000/svg" fill="none" viewBox="0 0 24 24" class="icon-module-scss-module__leGPra__icon" width="24" height="24"><path fill="currentColor" fill-rule="evenodd" d="M12 3.8a5.3 5.3 0 1 1 0 10.6 5.3 5.3 0 0 1 0-10.6m0 1a4.3 4.3 0 1 0 0 8.6 4.3 4.3 0 0 0 0-8.6" clip-rule="evenodd"></path><path fill="currentColor" fill-rule="evenodd" d="M12 1.3c5.98 0 10.7 4.827 10.7 10.7 0 5.98-4.827 10.7-10.7 10.7-5.98 0-10.7-4.827-10.7-10.7S6.02 1.3 12 1.3M7.2 16.8c-1.101 0-2.06.938-2.097 2.033A9.65 9.65 0 0 0 12 21.7a9.7 9.7 0 0 0 6.872-2.844A2.4 2.4 0 0 0 16.5 16.8zM12 2.3c-5.42 0-9.7 4.373-9.7 9.7 0 2.207.736 4.249 1.981 5.885.433-1.198 1.597-2.085 2.92-2.085H16.5c1.437 0 2.667.894 3.164 2.156A9.65 9.65 0 0 0 21.7 12 9.68 9.68 0 0 0 12 2.3" clip-rule="evenodd"></path></svg>