<svg fill="none" height="26" viewbox="0 0 20 26" width="20" xmlns="http://www.w3.org/2000/svg"> <path d="M19.4623 14.4532L11.8244 24.8541C11.2821 25.5909 10.4595 26.0002 9.58637 26.0002C9.29225 26.0002 8.99354 25.9547 8.69483 25.8592C7.52295 25.4817 6.76468 24.4448 6.76468 23.226V16.6726C6.76468 16.2724 6.4338 15.9495 6.03398 15.9495H2.80328C1.75549 15.9495 0.804202 15.3764 0.317069 14.4578C-0.165467 13.5391 -0.0919378 12.4431 0.510084 11.5926L7.86303 1.19173C8.57994 0.177559 9.80696 -0.236294 10.9972 0.136629C12.1875 0.509551 12.9549 1.54646 12.9549 2.77892V4.33883C12.9549 4.90276 12.4908 5.3621 11.9209 5.3621C11.3511 5.3621 10.8869 4.90276 10.8869 4.33883V2.77892C10.8869 2.28776 10.4963 2.12403 10.3768 2.08765C10.2573 2.05127 9.84372 1.96031 9.5588 2.36507L2.20126 12.766C1.97148 13.0889 2.09097 13.3981 2.1553 13.5118C2.21505 13.6301 2.40347 13.9029 2.80328 13.9029H6.03398C7.5735 13.9029 8.83269 15.1445 8.83269 16.6726V23.226C8.83269 23.7126 9.21872 23.8718 9.33361 23.9127C9.4531 23.9491 9.86211 24.0446 10.1516 23.649L17.7895 13.2481C18.0285 12.9252 17.909 12.6159 17.8492 12.4977C17.7895 12.3749 17.6011 12.102 17.1967 12.102H15.4503C15.0551 13.1798 14.0119 13.9439 12.7849 13.9439C11.2086 13.9439 9.93564 12.6841 9.93564 11.1288C9.93564 9.5734 11.2086 8.3091 12.7849 8.3091C13.9752 8.3091 14.9908 9.0322 15.4182 10.0555H17.1967C18.2582 10.0555 19.2141 10.633 19.6921 11.5653C20.1746 12.4977 20.0827 13.6028 19.4623 14.4532Z" fill="#FF4800"></path> </svg>