<svg aria-hidden="true" fill="none" height="25" viewbox="0 0 24 25" width="24"> <path d="M23.2517 1.28629C22.6831 0.716316 21.8911 0.433686 21.0796 0.509054L8.61065 1.6961C7.76513 1.77618 7.0654 2.30847 6.7787 3.08099C6.492 3.85351 6.68637 4.69669 7.28892 5.27608L8.9751 6.91062L0.320713 15.3C-0.106904 15.7145 -0.106904 16.3834 0.320713 16.798L1.60842 18.0462C2.03604 18.4608 2.72606 18.4608 3.15367 18.0462C3.58129 17.6317 3.58129 16.9628 3.15367 16.5483L2.64345 16.0537L11.2881 7.65959C11.4922 7.46175 11.6088 7.19325 11.6088 6.91062C11.6088 6.62799 11.4922 6.3595 11.2881 6.16165L8.8196 3.8064L21.2885 2.61936C21.4878 2.60052 21.619 2.69944 21.6773 2.75596C21.7356 2.8172 21.8328 2.94438 21.8085 3.13751L20.2243 14.8243L17.6343 12.3136C17.4302 12.1157 17.1533 12.0027 16.8617 12.0027C16.5702 12.0027 16.2932 12.1157 16.0891 12.3183L9.44159 18.847C8.37255 18.4655 7.12857 18.6822 6.26848 19.5159C5.09253 20.6559 5.09253 22.5024 6.26848 23.6423C7.44442 24.7823 9.34926 24.7823 10.5252 23.6423C11.4679 22.7285 11.6428 21.3624 11.0694 20.2649L16.8714 14.5652L18.6839 16.3222C19.2719 16.8922 20.1272 17.0853 20.9144 16.8262C21.7016 16.5671 22.2604 15.9124 22.3721 15.1116L23.9806 3.42014C24.0875 2.63349 23.8251 1.85626 23.2565 1.28629H23.2517Z" fill="#FF4800"></path> </svg>