<svg width="64" height="64" viewBox="0 0 64 64" fill="none" xmlns="http://www.w3.org/2000/svg">
<g clip-path="url(#clip0_506_2046)">
<path d="M13.4463 40.4429C13.4463 44.1432 10.4235 47.166 6.72313 47.166C3.0228 47.166 0 44.1432 0 40.4429C0 36.7425 3.0228 33.7197 6.72313 33.7197H13.4463V40.4429Z" fill="#E01E5A"/>
<path d="M16.8337 40.4429C16.8337 36.7425 19.8565 33.7197 23.5569 33.7197C27.2572 33.7197 30.28 36.7425 30.28 40.4429V57.2767C30.28 60.9771 27.2572 63.9999 23.5569 63.9999C19.8565 63.9999 16.8337 60.9771 16.8337 57.2767V40.4429Z" fill="#E01E5A"/>
<path d="M23.5569 13.4463C19.8565 13.4463 16.8337 10.4235 16.8337 6.72313C16.8337 3.0228 19.8565 0 23.5569 0C27.2572 0 30.28 3.0228 30.28 6.72313V13.4463H23.5569Z" fill="#36C5F0"/>
<path d="M23.557 16.8339C27.2573 16.8339 30.2801 19.8567 30.2801 23.557C30.2801 27.2573 27.2573 30.2801 23.557 30.2801H6.72313C3.0228 30.2801 0 27.2573 0 23.557C0 19.8567 3.0228 16.8339 6.72313 16.8339H23.557Z" fill="#36C5F0"/>
<path d="M50.5541 23.557C50.5541 19.8567 53.5769 16.8339 57.2772 16.8339C60.9775 16.8339 64.0003 19.8567 64.0003 23.557C64.0003 27.2573 60.9775 30.2801 57.2772 30.2801H50.5541V23.557Z" fill="#2EB67D"/>
<path d="M47.1666 23.557C47.1666 27.2573 44.1438 30.2801 40.4435 30.2801C36.7431 30.2801 33.7203 27.2573 33.7203 23.557V6.72313C33.7203 3.0228 36.7431 0 40.4435 0C44.1438 0 47.1666 3.0228 47.1666 6.72313V23.557Z" fill="#2EB67D"/>
<path d="M40.4435 50.5537C44.1438 50.5537 47.1666 53.5765 47.1666 57.2768C47.1666 60.9772 44.1438 64 40.4435 64C36.7431 64 33.7203 60.9772 33.7203 57.2768V50.5537H40.4435Z" fill="#ECB22E"/>
<path d="M40.4435 47.166C36.7431 47.166 33.7203 44.1432 33.7203 40.4429C33.7203 36.7425 36.7431 33.7197 40.4435 33.7197H57.2773C60.9777 33.7197 64.0005 36.7425 64.0005 40.4429C64.0005 44.1432 60.9777 47.166 57.2773 47.166H40.4435Z" fill="#ECB22E"/>
</g>
<defs>
<clipPath id="clip0_506_2046">
<rect width="64" height="64" fill="white"/>
</clipPath>
</defs>
</svg>
