<svg xmlns="http://www.w3.org/2000/svg" viewBox="0 0 32 32" fill="currentColor">
  <path d="M31.331,8.298c-.368-1.377-1.452-2.461-2.829-2.829-2.496-.669-12.502-.669-12.502-.669,0,0-10.007,0-12.502.669-1.377.368-2.461,1.452-2.829,2.829-.669,2.496-.669,7.702-.669,7.702,0,0,0,5.207.669,7.702.368,1.377,1.452,2.461,2.829,2.829,2.496.669,12.502.669,12.502.669,0,0,10.007,0,12.502-.669,1.377-.368,2.461-1.452,2.829-2.829.669-2.496.669-7.702.669-7.702,0,0,0-5.207-.669-7.702ZM12.8,20.8v-9.6l8.313,4.8-8.313,4.8Z"></path>
</svg>