<svg xmlns="http://www.w3.org/2000/svg" fill="none" viewBox="0 0 24 25" class="icon-module-scss-module__leGPra__icon" width="24" height="24"><path fill="currentColor" fill-rule="evenodd" d="M15 1.3c2.476 0 4.5 2.024 4.5 4.5s-2.024 4.5-4.5 4.5v-1c1.924 0 3.5-1.576 3.5-3.5S16.924 2.3 15 2.3zM5.8 13.2a3.51 3.51 0 0 0-3.5 3.5v4h2.4c1.335 0 2.5-1.087 2.5-2.5v-.5h1v.5c0 1.987-1.635 3.5-3.5 3.5H1.3v-5c0-2.476 2.024-4.5 4.5-4.5h7.6c2.476 0 4.5 2.024 4.5 4.5v5H10v-1h6.9v-4c0-1.924-1.576-3.5-3.5-3.5z" clip-rule="evenodd"></path><path fill="currentColor" fill-rule="evenodd" d="M18.2 13.3H9.6v-1h8.6c2.476 0 4.5 2.024 4.5 4.5v5h-3.3v-1h2.3v-4c0-1.924-1.576-3.5-3.5-3.5M9.5 2.3a3.8 3.8 0 1 0 0 7.6 3.8 3.8 0 0 0 0-7.6M4.7 6.1a4.8 4.8 0 1 1 9.6 0 4.8 4.8 0 0 1-9.6 0" clip-rule="evenodd"></path></svg>