<svg fill="none" height="40" viewbox="0 0 67 40" width="67" xmlns="http://www.w3.org/2000/svg">
<path clip-rule="evenodd" d="M19.8253 13.6397C20.3432 13.6384 20.8566 13.7385 21.3355 13.9357C21.8144 14.133 22.2493 14.4237 22.6161 14.7895C22.9828 15.1553 23.2743 15.5896 23.4729 16.0681C23.6466 16.4868 23.7466 16.932 23.7688 17.3839L23.7527 17.5571C23.7506 18.4347 23.4572 19.2868 22.9181 19.9794C23.3712 20.5601 23.6523 21.2564 23.7296 21.9889C23.8068 22.7215 23.6772 23.4617 23.3551 24.1242C23.033 24.7867 22.5311 25.3453 21.9073 25.7371C21.2835 26.1288 20.5619 26.3378 19.8253 26.3401H12.7528V23.3299H19.6914C19.9728 23.3298 20.2425 23.2178 20.4415 23.0188C20.6406 22.8197 20.7526 22.5494 20.7526 22.2678C20.7525 21.9863 20.6405 21.7167 20.4415 21.5177C20.2424 21.3187 19.9729 21.2067 19.6914 21.2066H12.1447V26.3613H9.12436V13.6397H19.8253ZM12.1447 18.7531L19.6914 18.7733C19.9728 18.7731 20.2425 18.6611 20.4415 18.4622C20.6406 18.263 20.7526 17.9927 20.7526 17.7111C20.7525 17.4296 20.6405 17.1601 20.4415 16.9611C20.2424 16.762 19.9729 16.6501 19.6914 16.65H12.1447V18.7531Z" fill="#141415" fill-rule="evenodd"></path>
<path d="M42.0005 18.1853C42.0005 19.0684 41.6494 19.9157 41.0249 20.5401C40.4004 21.1646 39.5532 21.5157 38.6701 21.5157H35.2994V26.3613H32.2891V18.7733H38.1133C38.2282 18.7733 38.3424 18.7507 38.4486 18.7068C38.5549 18.6628 38.6521 18.5979 38.7335 18.5165C38.8147 18.4353 38.8787 18.3387 38.9228 18.2326C38.9667 18.1264 38.9902 18.0123 38.9902 17.8974V13.6397H42.0005V18.1853Z" fill="#141415"></path>
<path d="M52.3923 13.6397C54.0792 13.6398 55.6968 14.3095 56.8896 15.5023C58.0825 16.6951 58.7531 18.3135 58.7531 20.0005C58.753 21.6874 58.0824 23.305 56.8896 24.4977C55.6968 25.6905 54.0792 26.3612 52.3923 26.3613H47.732V23.3198H52.4437C52.8959 23.345 53.3484 23.2772 53.7736 23.1215C54.1989 22.9658 54.5883 22.7249 54.9173 22.4137C55.2461 22.1027 55.5084 21.728 55.6875 21.3123C55.8666 20.8964 55.9583 20.4474 55.9583 19.9945C55.9583 19.5417 55.8666 19.0934 55.6875 18.6776C55.5085 18.2619 55.2461 17.8873 54.9173 17.5762C54.5883 17.265 54.1989 17.0241 53.7736 16.8684C53.3484 16.7127 52.8959 16.6449 52.4437 16.6701H47.1551V26.3613H44.1449V13.6397H52.3923Z" fill="#141415"></path>
<path d="M28.5983 17.8974C28.597 18.0118 28.6179 18.1255 28.6607 18.2316C28.7036 18.3377 28.7676 18.4341 28.848 18.5155C28.9285 18.597 29.0242 18.6626 29.1299 18.7068C29.2356 18.751 29.3496 18.7733 29.4641 18.7733H31.6811V21.5157H28.9175C28.4794 21.517 28.045 21.4317 27.6399 21.265C27.2349 21.0983 26.8668 20.8533 26.5566 20.5442C26.2463 20.2348 25.9997 19.8666 25.8317 19.4619C25.6639 19.0573 25.578 18.6233 25.578 18.1853V13.6397H28.5983V17.8974Z" fill="#141415"></path>
<path clip-rule="evenodd" d="M33.3301 0C51.7426 2.55151e-05 66.6704 8.95923 66.6704 20.0005C66.67 31.0416 51.732 40 33.3301 40C14.9282 40 0.000363326 31.0416 0 20.0005C0 8.95921 14.928 0 33.3301 0ZM33.3301 3.0928C16.0929 3.0928 2.11321 10.6396 2.11321 20.0005C2.11361 29.3612 16.0932 36.9585 33.3301 36.9585C50.5774 36.9585 64.5567 29.3612 64.5571 20.0005C64.5571 10.6396 50.5673 3.09282 33.3301 3.0928Z" fill="#141415" fill-rule="evenodd"></path>
</svg>