<svg fill="none" height="40" viewbox="0 0 158 40" width="158" xmlns="http://www.w3.org/2000/svg">
<path d="M34.7283 32.7568L19.2705 35.6044L19.1244 34.2388L21.9681 29.8992L25.1965 30.8426L27.9732 26.205L31.3024 28.3995L33.8302 23.0988L34.7283 32.7568Z" fill="#141415"></path>
<path clip-rule="evenodd" d="M34.7578 19.9078L35.7603 19.7164L37.3666 35.4032L17.6561 37.7771L17.226 34.7204L16.0359 34.8919C16.1425 36.5949 15.7419 38.2132 14.9901 38.9868C14.1099 39.8906 12.8292 40.1256 11.4794 39.942C10.5716 39.8197 9.89671 39.1624 9.39744 38.3593C11.2682 39.6775 13.581 39.0677 14.3743 37.9646C15.4893 36.4115 15.2033 34.9473 14.7889 33.5778C14.4652 32.5062 13.587 30.7261 12.4977 30.0374C11.3886 29.3348 10.3071 29.2026 9.39146 29.2973L9.47626 29.1987C10.7945 28.9382 12.17 29.0823 13.1666 29.7236C14.2973 30.4498 15.3314 31.699 15.8721 33.6092C16.4859 33.5224 16.5728 33.4829 17.1333 33.402L15.8683 23.5567L18.5422 23.2626C17.2872 22.4575 15.9887 21.3011 15.4223 20.6617C15.3256 20.5887 15.3414 20.2709 15.3414 20.2709C15.8525 20.6695 17.9779 22.1891 20.2256 22.8818C21.0169 23.1265 22.2325 23.2192 23.2883 22.6213C24.0954 22.1634 25.0644 21.3663 25.6446 20.5453L25.7492 20.7288C25.7473 20.8512 25.4787 21.4451 25.3445 21.6839C25.5892 21.824 25.7729 21.8635 26.0453 21.9385L27.9061 21.6484C28.5712 20.569 29.0507 18.8283 28.5415 17.1726C28.2494 16.2214 26.7319 14.3309 26.6234 14.2263C26.2406 13.8593 26.6866 12.4423 25.9308 10.8972C25.1315 9.26317 23.0495 7.55819 22.1437 6.81619C22.4101 7.01156 24.052 7.67259 24.8157 8.59612C24.8887 8.50127 24.9183 8.00607 24.9834 7.87979C24.3263 7.02138 24.275 5.49015 24.275 5.07962C24.275 4.32972 23.8942 3.47911 23.8942 3.47911C23.8942 3.47911 24.5512 3.99814 24.7209 4.89404C24.9222 5.95574 25.3486 6.79058 25.915 7.49706C26.9845 8.83299 27.9515 9.51584 28.4409 9.02453C29.0251 8.43053 27.8489 5.784 26.3432 4.30394C24.5888 2.58117 24.1289 2.80429 23.0988 3.17134C22.2759 3.46349 21.8318 5.79995 19.6887 5.75259C19.3275 5.71116 18.3923 5.68736 17.9305 5.69131C18.1699 5.35783 18.3741 5.09847 18.3765 5.09543C18.3751 5.09596 17.6575 5.38376 17.0464 5.75047L16.999 5.67955C17.2062 5.24342 17.4293 4.969 17.4293 4.969C17.4293 4.969 16.8549 5.31434 16.33 5.72677C16.4263 5.20998 16.7828 4.88098 16.7858 4.87823C16.7775 4.87977 16.0544 5.01637 15.1362 6.02682C14.0863 6.31296 13.8337 6.50244 12.997 6.87343C11.6354 6.57545 10.994 6.09586 10.3822 5.21375C9.91649 4.54082 9.08759 4.43822 8.23902 4.78554C7.00918 5.29715 5.45164 5.99315 5.4427 5.99715C5.44619 5.99701 5.95361 5.9776 6.4826 6.00119C5.7596 6.27429 5.06203 6.65101 5.05592 6.65431C5.05924 6.65421 5.39945 6.64456 5.81773 6.65046C5.52764 6.89121 5.36766 7.00754 5.09138 7.1891C4.42634 7.67061 3.88767 8.22919 3.88767 8.22919C3.89089 8.22773 4.34101 8.02356 4.7441 7.90755C4.45993 8.55675 3.89958 9.03429 4.00215 9.82951C4.10082 10.5557 4.9908 12.0517 6.1413 12.9673C6.24204 13.0463 7.81278 14.5006 8.99678 13.9028C10.1808 13.3068 10.6467 12.774 10.842 11.961C11.071 11.0256 10.9406 10.319 10.4531 8.28835C10.2913 7.61739 9.87108 6.23788 9.66782 5.57876L9.71311 5.54523C10.0999 6.36419 11.0907 8.51924 11.4913 9.96576C12.1149 12.2214 11.9195 13.366 11.6333 13.7864C10.7749 15.0533 8.56854 15.221 7.56605 14.5185C7.41214 16.9497 7.95489 18.0193 8.13842 18.558C8.04805 19.1749 8.44459 20.318 8.44812 20.3281C8.44857 20.323 8.49446 19.8038 8.67706 19.5289C8.72837 20.1446 9.03629 20.8749 9.03629 20.8749C9.03629 20.8749 9.01658 20.4228 9.15866 20.034C9.35798 20.3715 9.50405 20.4506 9.69152 20.7032C9.88098 21.3603 10.2579 21.8417 10.2579 21.8417C10.2571 21.8372 10.1968 21.4862 10.2302 21.1215C11.1497 22.0056 11.3076 23.2942 11.4003 24.2848C11.6589 27.0081 7.10634 29.175 6.22417 30.878C5.55518 31.8864 5.15464 33.485 6.28738 34.4244C7.10234 35.1032 7.58183 35.634 7.8877 36.0721L4.04551 36.6306L0 3.80673L32.8318 0L34.7578 19.9078ZM24.6026 22.9606C24.352 23.2842 23.7285 23.8546 23.4305 24.0027C22.1458 24.6499 21.2794 24.4624 20.5295 24.2671C20.048 24.1447 19.7677 24.0757 19.3671 23.8961L16.8866 24.2376L18.3923 36.8004L35.7998 33.6626L34.7638 21.1175L24.6026 22.9606Z" fill="#141415" fill-rule="evenodd"></path>
<path clip-rule="evenodd" d="M133.139 11.3828C138.751 11.3828 141.553 14.2619 141.553 20.0242C141.553 25.753 138.749 28.6186 133.139 28.6186C127.692 28.6186 124.842 25.753 124.588 20.0242C124.588 14.2619 127.439 11.3828 133.139 11.3828ZM133.139 14.1099C129.622 14.1099 127.864 16.0577 127.864 19.9492C127.864 23.904 129.622 25.8795 133.139 25.8795C136.564 25.8795 138.279 23.904 138.279 19.9492C138.279 16.0577 136.564 14.1099 133.139 14.1099Z" fill="#141415" fill-rule="evenodd"></path>
<path d="M152.873 11.3828C154.738 11.3828 156.405 11.661 157.873 12.2136V15.0672C156.405 14.4337 154.819 14.1159 153.112 14.1159C149.025 14.1159 146.98 15.9966 146.98 19.7639C146.98 23.8429 148.906 25.8834 152.764 25.8834C153.339 25.8834 153.99 25.7886 154.718 25.5991V21.6209L151.712 21.6188L152.778 18.8246H157.873V27.7148C156.5 28.3186 154.783 28.6186 152.717 28.6186C146.708 28.6186 143.704 25.6643 143.704 19.7639C143.704 14.1751 146.761 11.3828 152.873 11.3828Z" fill="#141415"></path>
<path clip-rule="evenodd" d="M51.4312 11.5052C56.7476 11.5052 59.4097 14.183 59.4097 19.5368C59.4077 25.5084 56.7476 28.4962 51.4312 28.4962H44.0506V11.5052H51.4312ZM47.2042 25.761H50.9537C54.4861 25.761 56.2503 23.687 56.2503 19.5349C56.2503 16.0005 54.4841 14.2323 50.9537 14.2323H47.2042V25.761Z" fill="#141415" fill-rule="evenodd"></path>
<path d="M77.4763 28.4962H74.0841L71.9409 23.8625H66.4884L67.5718 21.1294H71.1082L68.3217 14.7474L62.7132 28.4962H59.4729L66.7015 11.5052H70.0937L77.4763 28.4962Z" fill="#141415"></path>
<path d="M88.6124 14.2364H83.7321V28.4962H80.5787V14.2364H75.6944V11.5052H88.6124V14.2364Z" fill="#141415"></path>
<path d="M104.998 28.4962H101.601L99.4583 23.8625H94.0058L95.0892 21.1294H98.6256L95.841 14.7474L90.2345 28.4962H86.9942L94.2228 11.5052H97.6152L104.998 28.4962Z" fill="#141415"></path>
<path clip-rule="evenodd" d="M114.472 11.5052C119.792 11.5052 122.451 14.183 122.451 19.5368C122.451 25.5084 119.792 28.4962 114.472 28.4962H107.091V11.5052H114.472ZM110.247 25.761H113.996C117.527 25.761 119.297 23.687 119.297 19.5349C119.297 16.0005 117.529 14.2323 113.996 14.2323H110.247V25.761Z" fill="#141415" fill-rule="evenodd"></path>
<path d="M25.6643 17.0739C26.1655 17.0147 26.88 16.9814 27.032 17.0662C27.3358 17.234 27.3357 17.749 27.1266 18.2266C26.8247 18.9231 26.3984 19.6887 25.915 19.7519C25.1276 19.8565 24.3816 19.4283 23.5292 18.7929C23.2252 18.566 23.0397 18.0114 23.4501 17.6937C23.6771 17.5181 24.7091 17.1864 25.6643 17.0739Z" fill="#141415"></path>
<path d="M15.9787 12.4227C17.2298 11.5702 18.842 11.9056 18.5719 12.1621C18.0569 12.6515 18.7415 12.5075 18.8145 13.4133C18.8698 14.0782 18.6528 14.4454 18.4653 14.6546C18.0746 14.7039 17.6009 14.8007 17.0286 14.9862C16.6912 15.0948 16.3972 15.2171 16.1387 15.3395C16.0716 15.2961 15.9985 15.2406 15.9097 15.1656C15.0276 14.4019 15.0572 13.0522 15.9787 12.4227Z" fill="#141415"></path>
<path d="M23.6238 11.0492C23.829 10.7927 24.4447 10.7315 24.8847 10.9347C26.049 11.4774 25.8971 12.5076 25.9287 13.1134C25.9385 13.287 25.9346 13.4035 25.9208 13.4844C25.7589 13.3956 25.5044 13.3325 25.1019 13.3502C24.9835 13.3562 24.8671 13.3699 24.7566 13.3876C24.3283 13.1567 24.0718 12.7049 23.8369 12.2273L23.7835 12.1049L23.7639 12.0517L23.756 12.028C23.6257 11.6195 23.7127 11.5386 23.7679 11.4123C23.8252 11.284 24.0343 11.1774 23.7205 11.0708C23.6949 11.0609 23.6613 11.0532 23.6238 11.0492Z" fill="#141415"></path>
</svg>