<svg xmlns="http://www.w3.org/2000/svg" fill="none" viewBox="0 0 24 25" class="icon-module-scss-module__leGPra__icon" width="24" height="24"><path fill="currentColor" fill-rule="evenodd" d="M22.8 1v7.8H15v-1h5.955a22 22 0 0 0-1.436-1.977c-.243-.28-.46-.549-.663-.799l-.007-.008c-.202-.25-.388-.48-.575-.694-.375-.43-.741-.784-1.202-1.073C16.153 2.673 14.767 2.3 12 2.3c-5.324 0-9.7 4.376-9.7 9.7h-1C1.3 6.124 6.124 1.3 12 1.3c2.832 0 4.446.377 5.603 1.101.576.361 1.016.795 1.425 1.264.2.229.395.47.593.714l.012.016c.204.252.414.51.645.778l.006.007A23 23 0 0 1 21.8 7.265V1zm-1 6.786-.025.014h.025zM12.1 21.7c5.327 0 9.7-4.28 9.7-9.7h1c0 5.98-4.827 10.7-10.7 10.7-2.833 0-4.447-.377-5.603-1.101-.577-.361-1.017-.795-1.426-1.264-.199-.229-.394-.47-.592-.714l-.013-.016a31 31 0 0 0-.645-.778l-.005-.007A23 23 0 0 1 2.3 16.735V23h-1v-7.8h7.8v1H3.145a22 22 0 0 0 1.436 1.977c.242.28.46.549.663.799l.006.008c.203.25.388.48.575.694.375.43.742.784 1.203 1.073.918.576 2.304.949 5.072.949m-9.775-5.5H2.3v.014z" clip-rule="evenodd"></path></svg>