<svg xmlns="http://www.w3.org/2000/svg" fill="none" viewBox="0 0 24 24" class="icon-module-scss-module__leGPra__icon" width="24" height="24"><path fill="currentColor" d="M8.5 19.272H7v-1h1.5zM15.625 19.272h-4.75v-1h4.75zM8.5 16.142H7v-1h1.5zM12.5 16.142H11v-1h1.5zM16.5 16.142H15v-1h1.5zM8.5 13.012H7v-1h1.5zM12.5 13.012H11v-1h1.5zM16.5 13.012H15v-1h1.5z"></path><path fill="currentColor" fill-rule="evenodd" d="M13.258 4.265a4.5 4.5 0 0 1 4.5 4.5v1.196H6.243V4.265zM7.243 8.961h9.515v-.196a3.5 3.5 0 0 0-3.5-3.5H7.243z" clip-rule="evenodd"></path><path fill="currentColor" fill-rule="evenodd" d="M16.242 1.293a4.5 4.5 0 0 1 4.5 4.5v16.969H7.758a4.5 4.5 0 0 1-4.5-4.5V1.292zM4.258 18.262a3.5 3.5 0 0 0 3.5 3.5h11.984V5.792a3.5 3.5 0 0 0-3.5-3.5H4.258z" clip-rule="evenodd"></path></svg>