<svg fill="none" height="30" viewbox="0 0 94 30" width="94" xmlns="http://www.w3.org/2000/svg">
<path d="M10.6121 0.81543C15.5442 0.815487 19.6926 4.10394 20.8821 8.55933C21.5031 10.8952 21.2731 13.3761 20.2339 15.5583C19.2905 17.5195 17.7612 19.1391 15.8577 20.1938C16.515 22.2402 18.1321 22.6899 20.8689 22.6899H21.2241V29.1843H20.1614C13.2494 29.1843 8.68579 25.2464 8.68579 18.8191V15.6514L11.4976 14.9438C12.1553 14.778 12.753 14.4302 13.2231 13.9412C13.6932 13.4522 14.0165 12.8412 14.1562 12.1775C14.296 11.5136 14.2466 10.8231 14.0134 10.186C13.7803 9.54908 13.373 8.99008 12.8379 8.57324C12.3027 8.15641 11.661 7.89851 10.9863 7.82837C10.3116 7.75825 9.63071 7.8791 9.02124 8.177C8.41177 8.47492 7.89798 8.93817 7.53882 9.51367C7.1798 10.0891 6.98936 10.7537 6.9895 11.4319V25.5947H0V11.1821C0.00015797 10.7486 0.0273681 10.3151 0.0820312 9.88501C0.734586 4.77069 5.20156 0.81543 10.6121 0.81543Z" fill="#141415"></path>
<path clip-rule="evenodd" d="M40.4268 11.6025C41.9473 11.6025 43.2144 12.1094 44.228 13.123C45.2417 14.1367 45.7501 15.407 45.7522 16.9338C45.7559 17.2435 45.7375 17.5532 45.698 17.8604H37.8435C38.0046 18.4728 38.3718 19.0111 38.8828 19.3853C39.4265 19.7704 40.0808 19.9681 40.7468 19.9478C41.3074 19.9545 41.8619 19.8327 42.3684 19.5925C42.8205 19.3869 43.2193 19.0796 43.533 18.6946L45.2622 20.2107C44.7193 20.854 44.037 21.3652 43.2671 21.7056C42.449 22.0659 41.5631 22.2481 40.6692 22.2395C39.6641 22.2535 38.6717 22.0125 37.7849 21.5393C36.946 21.0923 36.2471 20.4217 35.7656 19.6021C35.2924 18.7802 35.041 17.8492 35.0369 16.9009C35.0327 15.9525 35.2754 15.0191 35.7415 14.1931C36.2023 13.3936 36.8747 12.7361 37.6838 12.2925C38.523 11.8291 39.4682 11.5916 40.4268 11.6025ZM40.4121 13.8796C39.8164 13.8796 39.2375 14.0791 38.7686 14.4465C38.2962 14.8358 37.9658 15.3706 37.8281 15.967H43.002C42.8643 15.3665 42.5301 14.8293 42.052 14.4407L42.0549 14.4465C41.5861 14.0792 41.0077 13.8797 40.4121 13.8796Z" fill="#141415" fill-rule="evenodd"></path>
<path clip-rule="evenodd" d="M88.5864 11.6025C90.1089 11.6026 91.3762 12.1094 92.3877 13.123C93.3991 14.1367 93.9073 15.4071 93.9126 16.9338C93.9154 17.2435 93.8978 17.5532 93.8591 17.8604H86.0046C86.1658 18.4727 86.5323 19.0111 87.0432 19.3853C87.5862 19.7704 88.2403 19.968 88.9058 19.9478C89.4664 19.9547 90.0216 19.8329 90.5281 19.5925C90.9807 19.3873 91.3794 19.0799 91.6934 18.6946L93.4219 20.2107C92.8795 20.8549 92.1967 21.3661 91.426 21.7056C90.608 22.0663 89.7221 22.2484 88.8281 22.2395C87.8237 22.2537 86.8321 22.0126 85.946 21.5393C85.1064 21.0932 84.4074 20.4224 83.9268 19.6021C83.4538 18.7803 83.2025 17.8498 83.198 16.9016C83.1936 15.9533 83.4358 15.0194 83.9011 14.1931C84.3624 13.3941 85.034 12.7365 85.8428 12.2925C86.6822 11.8293 87.6277 11.592 88.5864 11.6025ZM88.5725 13.8796C87.9769 13.8797 87.3985 14.0792 86.9297 14.4465C86.4568 14.8357 86.1252 15.3704 85.9871 15.967H91.1602C91.0222 15.3675 90.689 14.8307 90.2131 14.4407L90.2161 14.4465C89.7472 14.0791 89.1682 13.8796 88.5725 13.8796Z" fill="#141415" fill-rule="evenodd"></path>
<path d="M79.886 11.8545H82.623V14.2173H79.886V18.4316C79.886 19.2996 80.3519 19.7334 81.2842 19.7324C81.7468 19.716 82.2009 19.6003 82.615 19.3933V21.8008C82.0286 22.1046 81.3746 22.2551 80.7144 22.238C79.5803 22.238 78.7268 21.9356 78.1545 21.3306C77.5822 20.7255 77.2961 19.898 77.2961 18.8484V14.2173H75.6914V11.8545H77.3042V10.1641L79.886 9.28076V11.8545Z" fill="#141415"></path>
<path clip-rule="evenodd" d="M69.9141 11.6135C71.4608 11.6136 72.7557 12.1218 73.7988 13.1384C74.3074 13.6263 74.7092 14.2148 74.978 14.8662C75.2468 15.5175 75.3775 16.2177 75.3611 16.9221C75.3779 17.6269 75.2476 18.3278 74.9788 18.9795C74.7099 19.6312 74.3077 20.2201 73.7988 20.708C72.7557 21.7247 71.4608 22.2329 69.9141 22.2329C68.3671 22.2329 67.071 21.7257 66.0256 20.7109C65.0217 19.7067 64.4576 18.345 64.4575 16.925C64.4575 15.505 65.0216 14.1427 66.0256 13.1384C67.071 12.1217 68.3672 11.6135 69.9141 11.6135ZM69.9148 14.1133C69.1723 14.1133 68.459 14.4018 67.9248 14.9175C67.4133 15.4576 67.1279 16.1731 67.1279 16.917C67.1279 17.6609 67.4133 18.3764 67.9248 18.9165C68.4591 19.4318 69.1725 19.72 69.9148 19.72C70.6571 19.72 71.3705 19.4318 71.9048 18.9165V18.9275C72.4107 18.3824 72.6921 17.6659 72.6921 16.9221C72.692 16.1785 72.4106 15.4625 71.9048 14.9175C71.3706 14.4018 70.6573 14.1133 69.9148 14.1133Z" fill="#141415" fill-rule="evenodd"></path>
<path d="M59.3892 11.6099C60.5346 11.6099 61.4522 11.9511 62.1416 12.6331C62.83 13.3193 63.1747 14.2356 63.1758 15.3811V21.9846H60.583V15.9604C60.5726 15.7578 60.5322 15.5573 60.4629 15.3657C60.3705 15.1102 60.2282 14.8754 60.0447 14.675C59.8566 14.4867 59.6314 14.3392 59.3833 14.2429C59.1351 14.1466 58.8692 14.1039 58.6033 14.1162C58.3205 14.1047 58.0379 14.1498 57.7727 14.2488C57.5077 14.3478 57.2653 14.4987 57.0593 14.6926C56.8607 14.8899 56.705 15.1263 56.603 15.387C56.501 15.6477 56.4548 15.9269 56.4668 16.2065V21.9941H53.8835V16.1641C53.896 15.8927 53.8538 15.6213 53.7598 15.3665C53.6656 15.1116 53.5215 14.8777 53.3357 14.6794C53.1443 14.4895 52.915 14.3414 52.6633 14.2444C52.4119 14.1474 52.143 14.104 51.8738 14.1162C51.5926 14.1051 51.3117 14.1502 51.0483 14.2495C50.785 14.3488 50.544 14.5001 50.3401 14.6941C50.142 14.8907 49.9872 15.1265 49.8853 15.3862C49.7833 15.6461 49.7361 15.9247 49.7476 16.2036V21.9912H47.1643V11.8545H49.7476V12.9026C50.511 12.041 51.5112 11.6099 52.7476 11.6099C53.3997 11.5975 54.0451 11.7464 54.6262 12.0427C55.1645 12.3229 55.6162 12.7445 55.9329 13.2622C56.767 12.1609 57.9193 11.6099 59.3892 11.6099Z" fill="#141415"></path>
<path d="M34.79 14.3528H34.3528C33.4341 14.3528 32.7169 14.6054 32.2017 15.1101C31.6866 15.6148 31.4294 16.3011 31.4304 17.1689V21.9854H28.8428V11.8486H31.426V13.1582C32.2021 12.1743 33.1764 11.6824 34.3484 11.6824H34.79V14.3528Z" fill="#141415"></path>
</svg>