<svg preserveAspectRatio="none" width="100%" height="100%" overflow="visible" style="display: block;" viewBox="0 0 14.3333 13" fill="none" xmlns="http://www.w3.org/2000/svg">
<path id="Vector" fill-rule="evenodd" clip-rule="evenodd" d="M1.18892 3.40693C1.04253 4.16816 1 5.16747 1 6.50002C1 7.83256 1.04253 8.83188 1.18892 9.5931C1.33372 10.3461 1.57047 10.8126 1.91967 11.1301C2.27515 11.4532 2.81061 11.6801 3.67319 11.8189C4.53649 11.9578 5.66809 12 7.16667 12C8.66524 12 9.79685 11.9578 10.6601 11.8189C11.5227 11.6801 12.0582 11.4532 12.4137 11.1301C12.7629 10.8126 12.9996 10.3461 13.1444 9.5931C13.2908 8.83188 13.3333 7.83256 13.3333 6.50002C13.3333 5.16747 13.2908 4.16816 13.1444 3.40693C12.9996 2.65397 12.7629 2.18742 12.4137 1.86997C12.0582 1.54681 11.5227 1.31995 10.6601 1.18115C9.79685 1.04223 8.66524 1 7.16667 1C5.66809 1 4.53649 1.04223 3.67319 1.18115C2.81062 1.31995 2.27515 1.54681 1.91967 1.86997C1.57047 2.18742 1.33372 2.65397 1.18892 3.40693ZM3.51431 0.193851C4.46351 0.0411056 5.66524 0 7.16667 0C8.66809 0 9.86982 0.0411056 10.819 0.193851C11.7689 0.346713 12.5251 0.61986 13.0863 1.13003C13.6538 1.64592 13.9587 2.34604 14.1264 3.21808C14.2925 4.08187 14.3333 5.16589 14.3333 6.50002C14.3333 7.83415 14.2925 8.91817 14.1264 9.78195C13.9587 10.654 13.6538 11.3541 13.0863 11.87C12.5251 12.3802 11.7689 12.6533 10.819 12.8062C9.86982 12.9589 8.66809 13 7.16667 13C5.66524 13 4.46351 12.9589 3.51431 12.8062C2.56439 12.6533 1.80819 12.3802 1.247 11.87C0.679526 11.3541 0.374614 10.654 0.206913 9.78195C0.0408021 8.91817 0 7.83415 0 6.50002C0 5.16589 0.0408021 4.08187 0.206913 3.21808C0.374614 2.34604 0.679526 1.64592 1.247 1.13003C1.80819 0.61986 2.56438 0.346713 3.51431 0.193851ZM5.58698 4.0649C5.74374 3.97615 5.93612 3.97857 6.09058 4.07125L9.42391 6.07125C9.57452 6.16162 9.66667 6.32437 9.66667 6.5C9.66667 6.67563 9.57452 6.83838 9.42391 6.92875L6.09058 8.92875C5.93612 9.02143 5.74374 9.02385 5.58698 8.9351C5.43023 8.84635 5.33333 8.68014 5.33333 8.5V4.5C5.33333 4.31986 5.43023 4.15365 5.58698 4.0649ZM6.33333 5.3831V7.6169L8.19484 6.5L6.33333 5.3831Z" fill="var(--fill-0, #141415)"/>
</svg>
