<svg width="160" height="79" viewBox="0 0 160 79" fill="none" xmlns="http://www.w3.org/2000/svg">
<g clip-path="url(#clip0_1704_22981)">
<g clip-path="url(#clip1_1704_22981)">
<path d="M46.452 27.6973C39.5207 27.6973 33.9023 33.2052 33.9023 40.0003C33.9023 43.3973 35.3072 46.4731 37.5778 48.7001L35.1875 51.0434C34.7134 51.5082 35.0492 52.3033 35.7197 52.3033H46.452C53.3834 52.3033 59.0017 46.7954 59.0017 40.0003C59.0017 33.2052 53.3834 27.6973 46.452 27.6973Z" fill="#FF4500"/>
<g clip-path="url(#clip2_1704_22981)">
<path d="M53.5673 42.7567C55.1858 42.7567 56.4979 41.4704 56.4979 39.8837C56.4979 38.297 55.1858 37.0107 53.5673 37.0107C51.9488 37.0107 50.6367 38.297 50.6367 39.8837C50.6367 41.4704 51.9488 42.7567 53.5673 42.7567Z" fill="url(#paint0_radial_1704_22981)"/>
<path d="M39.3368 42.7567C40.9553 42.7567 42.2674 41.4704 42.2674 39.8837C42.2674 38.297 40.9553 37.0107 39.3368 37.0107C37.7183 37.0107 36.4062 38.297 36.4062 39.8837C36.4062 41.4704 37.7183 42.7567 39.3368 42.7567Z" fill="url(#paint1_radial_1704_22981)"/>
<path d="M46.4602 48.5032C51.0809 48.5032 54.8267 45.7491 54.8267 42.3517C54.8267 38.9543 51.0809 36.2002 46.4602 36.2002C41.8395 36.2002 38.0938 38.9543 38.0938 42.3517C38.0938 45.7491 41.8395 48.5032 46.4602 48.5032Z" fill="url(#paint2_radial_1704_22981)"/>
<path d="M43.9853 41.7536C43.9365 42.7957 43.2309 43.1739 42.4091 43.1739C41.5874 43.1739 40.9613 42.6403 41.0105 41.5982C41.0593 40.5561 41.7649 39.8662 42.5867 39.8662C43.4085 39.8662 44.0345 40.711 43.9853 41.7536Z" fill="#842123"/>
<path d="M51.9071 41.5982C51.9559 42.6403 51.3298 43.1739 50.5085 43.1739C49.6872 43.1739 48.9816 42.7957 48.9324 41.7536C48.8836 40.7115 49.5096 39.8662 50.331 39.8662C51.1523 39.8662 51.8578 40.5556 51.9071 41.5982Z" fill="#842123"/>
<path d="M43.9855 41.8441C43.9394 42.8197 43.2794 43.1733 42.5106 43.1733C41.7419 43.1733 41.1557 42.6433 41.2018 41.6682C41.2478 40.6926 41.9078 40.0547 42.6766 40.0547C43.4454 40.0547 44.0315 40.8685 43.9855 41.8441Z" fill="url(#paint3_radial_1704_22981)"/>
<path d="M48.9322 41.8441C48.9782 42.8197 49.6383 43.1733 50.407 43.1733C51.1758 43.1733 51.7619 42.6433 51.7159 41.6682C51.6699 40.6926 51.0099 40.0547 50.2411 40.0547C49.4723 40.0547 48.8862 40.8685 48.9322 41.8441Z" fill="url(#paint4_radial_1704_22981)"/>
<path d="M43.1535 41.3008C43.3332 41.3008 43.4788 41.1449 43.4788 40.9526C43.4788 40.7604 43.3332 40.6045 43.1535 40.6045C42.9738 40.6045 42.8281 40.7604 42.8281 40.9526C42.8281 41.1449 42.9738 41.3008 43.1535 41.3008Z" fill="#FFC49C"/>
<path d="M50.8918 41.3008C51.0715 41.3008 51.2171 41.1449 51.2171 40.9526C51.2171 40.7604 51.0715 40.6045 50.8918 40.6045C50.7121 40.6045 50.5664 40.7604 50.5664 40.9526C50.5664 41.1449 50.7121 41.3008 50.8918 41.3008Z" fill="#FFC49C"/>
<path d="M46.4578 43.8691C45.4204 43.8691 44.4261 43.9184 43.5068 44.0077C43.3497 44.0232 43.2502 44.1799 43.3111 44.3203C43.8261 45.5036 45.0411 46.3348 46.4578 46.3348C47.8745 46.3348 49.0895 45.5036 49.6045 44.3203C49.6654 44.1799 49.5659 44.0232 49.4088 44.0077C48.4895 43.9179 47.4952 43.8691 46.4578 43.8691Z" fill="#BBCFDA"/>
<path d="M46.4598 44.0947C45.4256 44.0947 44.4346 44.1444 43.518 44.2355C43.3614 44.251 43.2619 44.4105 43.3228 44.5531C43.8364 45.7552 45.0472 46.5995 46.4598 46.5995C47.8723 46.5995 49.0831 45.7552 49.5967 44.5531C49.6576 44.411 49.5581 44.2515 49.4015 44.2355C48.4849 44.1444 47.4939 44.0947 46.4598 44.0947Z" fill="white"/>
<path d="M46.4571 43.9775C45.4392 43.9775 44.4636 44.0268 43.5614 44.1161C43.4071 44.1316 43.3095 44.2883 43.3694 44.4286C43.8747 45.612 45.0669 46.4432 46.4576 46.4432C47.8483 46.4432 49.04 45.612 49.5457 44.4286C49.6057 44.2883 49.5081 44.1316 49.3538 44.1161C48.4516 44.0263 47.476 43.9775 46.4576 43.9775H46.4571Z" fill="url(#paint5_radial_1704_22981)"/>
<path d="M51.0416 35.3629C52.1885 35.3629 53.1183 34.4513 53.1183 33.3269C53.1183 32.2025 52.1885 31.291 51.0416 31.291C49.8946 31.291 48.9648 32.2025 48.9648 33.3269C48.9648 34.4513 49.8946 35.3629 51.0416 35.3629Z" fill="url(#paint6_radial_1704_22981)"/>
<path d="M46.427 36.4595C46.1783 36.4595 45.9766 36.3575 45.9766 36.2003C45.9766 34.3762 47.49 32.8926 49.3506 32.8926C49.5992 32.8926 49.801 33.0903 49.801 33.3341C49.801 33.5779 49.5992 33.7757 49.3506 33.7757C47.9868 33.7757 46.8769 34.8633 46.8769 36.2007C46.8769 36.3579 46.6752 36.46 46.4265 36.46L46.427 36.4595Z" fill="url(#paint7_radial_1704_22981)"/>
<path d="M43.4359 42.3271C43.4359 42.7043 43.0264 42.8739 42.5207 42.8739C42.015 42.8739 41.6055 42.7043 41.6055 42.3271C41.6055 41.9498 42.015 41.6436 42.5207 41.6436C43.0264 41.6436 43.4359 41.9498 43.4359 42.3271Z" fill="#FF6101"/>
<path d="M51.307 42.3271C51.307 42.7043 50.8975 42.8739 50.3918 42.8739C49.8861 42.8739 49.4766 42.7043 49.4766 42.3271C49.4766 41.9498 49.8861 41.6436 50.3918 41.6436C50.8975 41.6436 51.307 41.9498 51.307 42.3271Z" fill="#FF6101"/>
</g>
<path d="M72.4345 36.574L71.039 39.8275C70.8635 39.7409 70.4452 39.6441 70.0501 39.6441C69.655 39.6441 69.2588 39.7409 68.8742 39.9243C68.1154 40.3014 67.5553 41.0555 67.5553 42.1434V48.1013H64.082V36.508H67.4565V38.1347H67.5227C68.3141 37.1003 69.5226 36.3359 71.0947 36.3359C71.6665 36.3359 72.2161 36.4442 72.4357 36.5729L72.4345 36.574Z" fill="#FF4500"/>
<path d="M71.7617 42.3381C71.7617 38.9878 74.1032 36.3369 77.6089 36.3369C80.7847 36.3369 83.0599 38.6107 83.0599 41.8106C83.0599 42.3711 83.0053 42.8985 82.8845 43.4055H74.927C75.2896 44.6232 76.3668 45.571 77.9819 45.571C78.872 45.571 80.1363 45.2589 80.8172 44.7417L81.8944 47.2843C80.8939 47.9519 79.3671 48.2754 78.0261 48.2754C74.2786 48.2754 71.7617 45.9048 71.7617 42.3392V42.3381ZM74.8608 41.2718H79.8609C79.8609 39.7852 78.8279 38.998 77.5636 38.998C76.1344 38.998 75.1676 39.9025 74.8596 41.2718H74.8608Z" fill="#FF4500"/>
<path d="M112.863 31.3008C114.028 31.3008 114.984 32.2383 114.984 33.3798C114.984 34.5212 114.027 35.4587 112.863 35.4587C111.699 35.4587 110.742 34.5212 110.742 33.3798C110.742 32.2383 111.699 31.3008 112.863 31.3008ZM114.599 48.1024H111.126V36.5091H114.599V48.1024Z" fill="#FF4500"/>
<path d="M92.695 31.5098L92.6846 37.6077H92.6183C91.662 36.7135 90.629 36.3467 89.2776 36.3467C85.9473 36.3467 83.7383 38.9759 83.7383 42.3045C83.7383 45.6332 85.8043 48.2738 89.1672 48.2738C90.5744 48.2738 91.9037 47.7999 92.7613 46.7222H92.86V48.1018H96.1683V31.5098H92.695ZM92.86 45.3381H92.745L91.9699 44.5487C91.4656 45.042 90.7754 45.3381 89.969 45.3381C88.2678 45.3381 87.0779 44.019 87.0779 42.308C87.0779 40.5969 88.2678 39.2778 89.969 39.2778C91.6701 39.2778 92.86 40.5969 92.86 42.308V45.3381Z" fill="#FF4500"/>
<path d="M105.961 31.5098L105.95 37.6077H105.884C104.928 36.7135 103.895 36.3467 102.543 36.3467C99.2129 36.3467 97.0039 38.9759 97.0039 42.3045C97.0039 45.6332 99.07 48.2738 102.433 48.2738C103.84 48.2738 105.169 47.7999 106.027 46.7222H106.126V48.1018H109.434V31.5098H105.961ZM106.109 45.3381H105.994L105.219 44.5487C104.715 45.042 104.025 45.3381 103.218 45.3381C101.517 45.3381 100.327 44.019 100.327 42.308C100.327 40.5969 101.517 39.2778 103.218 39.2778C104.92 39.2778 106.109 40.5969 106.109 42.308V45.3381Z" fill="#FF4500"/>
<path d="M121.333 36.5093H123.872V39.4074H121.333V48.1027H117.859V39.4074H115.332V36.5093H117.859V33.3584H121.333V36.5093Z" fill="#FF4500"/>
</g>
</g>
<defs>
<radialGradient id="paint0_radial_1704_22981" cx="0" cy="0" r="1" gradientUnits="userSpaceOnUse" gradientTransform="translate(53.6291 38.1733) scale(5.92391 5.05251)">
<stop stop-color="#FEFFFF"/>
<stop offset="0.4" stop-color="#FEFFFF"/>
<stop offset="0.51" stop-color="#F9FCFC"/>
<stop offset="0.62" stop-color="#EDF3F5"/>
<stop offset="0.7" stop-color="#DEE9EC"/>
<stop offset="0.72" stop-color="#D8E4E8"/>
<stop offset="0.76" stop-color="#CCD8DF"/>
<stop offset="0.8" stop-color="#C8D5DD"/>
<stop offset="0.83" stop-color="#CCD6DE"/>
<stop offset="0.85" stop-color="#D8DBE2"/>
<stop offset="0.88" stop-color="#EDE3E9"/>
<stop offset="0.9" stop-color="#FFEBEF"/>
</radialGradient>
<radialGradient id="paint1_radial_1704_22981" cx="0" cy="0" r="1" gradientUnits="userSpaceOnUse" gradientTransform="translate(39.3987 32.1836) scale(5.92391 5.05251)">
<stop stop-color="#FEFFFF"/>
<stop offset="0.4" stop-color="#FEFFFF"/>
<stop offset="0.51" stop-color="#F9FCFC"/>
<stop offset="0.62" stop-color="#EDF3F5"/>
<stop offset="0.7" stop-color="#DEE9EC"/>
<stop offset="0.72" stop-color="#D8E4E8"/>
<stop offset="0.76" stop-color="#CCD8DF"/>
<stop offset="0.8" stop-color="#C8D5DD"/>
<stop offset="0.83" stop-color="#CCD6DE"/>
<stop offset="0.85" stop-color="#D8DBE2"/>
<stop offset="0.88" stop-color="#EDE3E9"/>
<stop offset="0.9" stop-color="#FFEBEF"/>
</radialGradient>
<radialGradient id="paint2_radial_1704_22981" cx="0" cy="0" r="1" gradientUnits="userSpaceOnUse" gradientTransform="translate(46.6405 37.439) scale(17.8689 12.2624)">
<stop stop-color="#FEFFFF"/>
<stop offset="0.4" stop-color="#FEFFFF"/>
<stop offset="0.51" stop-color="#F9FCFC"/>
<stop offset="0.62" stop-color="#EDF3F5"/>
<stop offset="0.7" stop-color="#DEE9EC"/>
<stop offset="0.72" stop-color="#D8E4E8"/>
<stop offset="0.76" stop-color="#CCD8DF"/>
<stop offset="0.8" stop-color="#C8D5DD"/>
<stop offset="0.83" stop-color="#CCD6DE"/>
<stop offset="0.85" stop-color="#D8DBE2"/>
<stop offset="0.88" stop-color="#EDE3E9"/>
<stop offset="0.9" stop-color="#FFEBEF"/>
</radialGradient>
<radialGradient id="paint3_radial_1704_22981" cx="0" cy="0" r="1" gradientUnits="userSpaceOnUse" gradientTransform="translate(42.6677 42.2756) scale(1.49295 2.13686)">
<stop stop-color="#FF6600"/>
<stop offset="0.5" stop-color="#FF4500"/>
<stop offset="0.7" stop-color="#FC4301"/>
<stop offset="0.82" stop-color="#F43F07"/>
<stop offset="0.92" stop-color="#E53812"/>
<stop offset="1" stop-color="#D4301F"/>
</radialGradient>
<radialGradient id="paint4_radial_1704_22981" cx="0" cy="0" r="1" gradientUnits="userSpaceOnUse" gradientTransform="translate(50.2499 42.2756) rotate(180) scale(1.49295 2.13686)">
<stop stop-color="#FF6600"/>
<stop offset="0.5" stop-color="#FF4500"/>
<stop offset="0.7" stop-color="#FC4301"/>
<stop offset="0.82" stop-color="#F43F07"/>
<stop offset="0.92" stop-color="#E53812"/>
<stop offset="1" stop-color="#D4301F"/>
</radialGradient>
<radialGradient id="paint5_radial_1704_22981" cx="0" cy="0" r="1" gradientUnits="userSpaceOnUse" gradientTransform="translate(46.4418 46.7759) scale(5.26436 3.40619)">
<stop stop-color="#172E35"/>
<stop offset="0.29" stop-color="#0E1C21"/>
<stop offset="0.73" stop-color="#030708"/>
<stop offset="1"/>
</radialGradient>
<radialGradient id="paint6_radial_1704_22981" cx="0" cy="0" r="1" gradientUnits="userSpaceOnUse" gradientTransform="translate(51.0867 31.4487) scale(4.62107 4.43964)">
<stop stop-color="#FEFFFF"/>
<stop offset="0.4" stop-color="#FEFFFF"/>
<stop offset="0.51" stop-color="#F9FCFC"/>
<stop offset="0.62" stop-color="#EDF3F5"/>
<stop offset="0.7" stop-color="#DEE9EC"/>
<stop offset="0.72" stop-color="#D8E4E8"/>
<stop offset="0.76" stop-color="#CCD8DF"/>
<stop offset="0.8" stop-color="#C8D5DD"/>
<stop offset="0.83" stop-color="#CCD6DE"/>
<stop offset="0.85" stop-color="#D8DBE2"/>
<stop offset="0.88" stop-color="#EDE3E9"/>
<stop offset="0.9" stop-color="#FFEBEF"/>
</radialGradient>
<radialGradient id="paint7_radial_1704_22981" cx="0" cy="0" r="1" gradientUnits="userSpaceOnUse" gradientTransform="translate(49.1581 36.0226) scale(3.78768 3.71324)">
<stop offset="0.48" stop-color="#7A9299"/>
<stop offset="0.67" stop-color="#172E35"/>
<stop offset="0.75"/>
<stop offset="0.82" stop-color="#172E35"/>
</radialGradient>
<clipPath id="clip0_1704_22981">
<rect width="92.75" height="28" fill="white" transform="translate(34 26)"/>
</clipPath>
<clipPath id="clip1_1704_22981">
<rect width="89.9394" height="24.6061" fill="white" transform="translate(33.9023 27.6973)"/>
</clipPath>
<clipPath id="clip2_1704_22981">
<rect width="20.0893" height="17.2115" fill="white" transform="translate(36.4062 31.291)"/>
</clipPath>
</defs>
</svg>
