<svg width="26" height="26" viewBox="0 0 26 26" fill="none" xmlns="http://www.w3.org/2000/svg">
<g clip-path="url(#clip0_617_25191)">
<mask id="mask0_617_25191" style="mask-type:luminance" maskUnits="userSpaceOnUse" x="0" y="0" width="26" height="26">
<path d="M26 0H0V26H26V0Z" fill="white"/>
</mask>
<g mask="url(#mask0_617_25191)">
<mask id="mask1_617_25191" style="mask-type:alpha" maskUnits="userSpaceOnUse" x="0" y="1" width="25" height="23">
<mask id="mask2_617_25191" style="mask-type:luminance" maskUnits="userSpaceOnUse" x="0" y="0" width="26" height="26">
<path d="M26 0H0V26H26V0Z" fill="white"/>
</mask>
<g mask="url(#mask2_617_25191)">
<path fill-rule="evenodd" clip-rule="evenodd" d="M22.4099 1.50244C22.8324 1.50244 23.1983 1.7873 23.312 2.19355L24.807 7.76678C24.8313 7.84803 24.8395 7.92992 24.8395 8.01117C24.8394 8.94948 24.4888 9.80708 23.9127 10.4614V22.8631C23.9127 23.3749 23.4985 23.7897 22.9867 23.7899H18.3474C17.8356 23.7899 17.4207 23.3749 17.4207 22.8631V16.3631H13.7081V22.8631C13.7081 23.3749 13.2932 23.7899 12.7813 23.7899H2.55999C2.04826 23.7897 1.63404 23.3749 1.63404 22.8631V14.5112C1.63404 13.9994 2.04826 13.5846 2.55999 13.5844C3.07187 13.5844 3.48676 13.9993 3.48676 14.5112V21.9371H11.8474V15.4371C11.8474 14.9253 12.2616 14.5112 12.7734 14.5112H18.3474C18.8591 14.5113 19.2734 14.9253 19.2734 15.4371V21.9371H22.06V11.6047C21.7615 11.6823 21.4486 11.7238 21.1261 11.7238C20.0212 11.7238 19.022 11.2363 18.3395 10.4646C17.657 11.2364 16.657 11.7238 15.552 11.7238C14.4472 11.7237 13.4479 11.2363 12.7655 10.4646C12.083 11.2363 11.0919 11.7237 9.97884 11.7238C8.8658 11.7238 7.87469 11.2363 7.1922 10.4646C6.5097 11.2364 5.50978 11.7238 4.40478 11.7238C2.35745 11.7237 0.691573 10.0585 0.691406 8.01117C0.691406 7.92992 0.699563 7.84803 0.723938 7.76678L2.21961 2.19355C2.32523 1.7873 2.69867 1.50245 3.11304 1.50244H22.4099ZM2.55206 8.12463C2.60894 9.09955 3.42172 9.87175 4.40478 9.87183C5.38781 9.87183 6.26527 9.0348 6.26544 8.01117C6.26544 7.49929 6.68033 7.08441 7.1922 7.08441C7.70389 7.08463 8.11816 7.49942 8.11816 8.01117C8.11833 9.0348 8.95517 9.87183 9.97884 9.87183C11.0024 9.87175 11.8393 9.03471 11.8395 8.01117C11.8395 7.49933 12.2536 7.08447 12.7655 7.08441C13.2773 7.08441 13.6922 7.49929 13.6922 8.01117C13.6924 9.03463 14.5286 9.87159 15.552 9.87183C16.5757 9.87183 17.4126 9.0348 17.4127 8.01117C17.4127 7.49929 17.8276 7.08441 18.3395 7.08441C18.8513 7.0845 19.2655 7.49935 19.2655 8.01117H19.2734C19.2735 9.03471 20.1105 9.87167 21.1341 9.87183C21.5726 9.87183 21.9645 9.72883 22.2742 9.4902C22.331 9.42203 22.3972 9.36191 22.471 9.31243C22.7703 9.00205 22.9597 8.58703 22.9867 8.12463L21.7109 3.37183H3.82794L2.55206 8.12463Z" fill="#141414"/>
</g>
</mask>
<g mask="url(#mask1_617_25191)">
<path d="M0 0H26V26H0V0Z" fill="#FF4800"/>
</g>
</g>
</g>
<defs>
<clipPath id="clip0_617_25191">
<rect width="26" height="26" fill="white"/>
</clipPath>
</defs>
</svg>
