<svg width="64" height="64" viewBox="0 0 64 64" fill="none" xmlns="http://www.w3.org/2000/svg">
<g clip-path="url(#clip0_3630_31785)">
<path d="M4.36316 56.2404H14.5461L14.5461 31.5131L-0.000976562 20.604L-0.000976562 51.8767C-0.000976562 54.2913 1.95561 56.2404 4.36316 56.2404Z" fill="#4285F4"/>
<path d="M49.46 56.2404H59.6429C62.0578 56.2404 64.0071 54.284 64.0071 51.8767L64.0071 20.604L49.46 31.5131" fill="#34A853"/>
<path d="M49.46 12.6038L49.46 31.5129L64.0071 20.6038V14.7856C64.0071 9.38925 57.8464 6.31289 53.5332 9.54925" fill="#FBBC04"/>
<path d="M14.5464 31.5136L14.5464 12.6045L32.0029 25.6954L49.4595 12.6045L49.4595 31.5136L32.0029 44.6045" fill="#EA4335"/>
<path d="M-0.000976562 14.7863L-0.000976562 20.6045L14.5461 31.5136L14.5461 12.6045L10.4729 9.54999C6.15245 6.31362 -0.000976562 9.38999 -0.000976562 14.7863Z" fill="#C5221F"/>
</g>
<defs>
<clipPath id="clip0_3630_31785">
<rect width="64" height="64" fill="white"/>
</clipPath>
</defs>
</svg>
