<svg aria-hidden="true" fill="none" height="26" viewbox="0 0 26 26" width="26" xmlns="http://www.w3.org/2000/svg"> <path d="M13.0615 10.3159C12.4775 10.6529 11.5215 10.6529 10.9375 10.3159C10.3535 9.97887 10.3535 9.42587 10.9375 9.08987C11.5215 8.75287 12.4775 8.75287 13.0615 9.08987C13.6455 9.42687 13.6455 9.97887 13.0615 10.3159M23.5545 9.31087C24.1475 9.52687 24.1475 9.87987 23.5545 10.0959L23.0145 10.2919V16.8119C23.0145 17.1102 22.896 17.3964 22.685 17.6074C22.474 17.8183 22.1879 17.9369 21.8895 17.9369C21.5911 17.9369 21.305 17.8183 21.094 17.6074C20.883 17.3964 20.7645 17.1102 20.7645 16.8119V11.1099C20.4985 11.2069 20.2115 11.3099 19.9175 11.4179L16.6245 12.6149L14.1585 13.5129C13.7984 13.6433 13.4384 13.7739 13.0785 13.9049L13.1845 13.8659L13.0785 13.9049L12.5385 14.1009C12.1869 14.2088 11.8111 14.2088 11.4595 14.1009L10.9205 13.9049L9.8405 13.5129L6.7615 12.3929C6.1685 12.1759 5.1965 11.8229 4.6035 11.6079L0.4455 10.0959C-0.1485 9.87987 -0.1485 9.52587 0.4455 9.31087L4.6035 7.79887L6.7615 7.01287L9.8405 5.89387L10.9205 5.50087L11.4605 5.30487C11.8119 5.19786 12.1871 5.19786 12.5385 5.30487L13.0785 5.50087L13.3955 5.61587L13.1645 5.53187L14.1585 5.89387L17.2365 7.01387L16.1665 6.62387L18.9825 7.64787L21.1415 8.43287L23.5545 9.31087V9.31087ZM18.1345 14.3169L18.8915 14.0409V16.8109C18.8905 17.8329 18.2195 18.8539 16.8785 19.6279C16.8025 19.6719 16.7125 19.7019 16.6335 19.7439C15.6285 20.1839 14.3575 20.5989 12.9505 20.7379C12.3185 20.7879 11.6805 20.7879 11.0485 20.7379C9.6415 20.5989 8.3685 20.1839 7.3655 19.7429C7.2865 19.7029 7.1965 19.6729 7.1205 19.6279C5.7795 18.8529 5.1085 17.8319 5.1085 16.8109V14.0409L5.8535 14.3119L7.5675 14.9359L9.8405 15.7629C10.3804 15.9592 10.9204 16.1552 11.4605 16.3509C11.7565 16.4589 12.2425 16.4589 12.5385 16.3509H12.5395L13.0795 16.1549L13.0855 16.1529L14.1585 15.7629L18.1345 14.3169V14.3169Z" fill="#7B98B6"></path> </svg>