<svg width="175" height="26" viewBox="0 0 175 26" fill="none" xmlns="http://www.w3.org/2000/svg">
<path d="M14.1235 23.9768C14.1235 23.9149 14.1364 23.8538 14.1612 23.7986C16.1158 19.4714 15.6178 16.6671 15.0937 13.6967C14.8699 12.4305 14.6382 11.1201 14.5809 9.65035C14.3398 3.70522 17.0143 1.76592 17.128 1.686C17.2063 1.63353 17.2997 1.61772 17.3882 1.64195C17.4767 1.66619 17.5532 1.72853 17.6014 1.81564C17.6497 1.90275 17.6657 2.00769 17.6462 2.10799C17.6266 2.20829 17.573 2.29596 17.4969 2.35224C17.4605 2.37905 15.0569 4.18531 15.2737 9.61617C15.3292 11.0265 15.5558 12.3058 15.775 13.5431C16.3251 16.6487 16.8474 19.5845 14.7818 24.1556C14.7462 24.2341 14.6882 24.2968 14.6172 24.3336C14.5462 24.3704 14.4662 24.3792 14.3902 24.3586C14.3142 24.3379 14.2466 24.2891 14.1982 24.2198C14.1498 24.1506 14.1235 24.065 14.1235 23.9768Z" fill="#EDD580"/>
<path d="M18.3999 23.9768C18.4 23.9149 18.4129 23.8538 18.4377 23.7986C20.3923 19.4714 19.8943 16.6671 19.3702 13.6967C19.1464 12.4305 18.9147 11.1201 18.8573 9.65035C18.6163 3.70522 21.2908 1.76592 21.4045 1.686C21.4828 1.63353 21.5762 1.61772 21.6647 1.64195C21.7532 1.66619 21.8297 1.72853 21.8779 1.81564C21.9262 1.90275 21.9422 2.00769 21.9227 2.10799C21.9031 2.20829 21.8495 2.29596 21.7734 2.35224C21.737 2.37905 19.3334 4.18531 19.5502 9.61617C19.6057 11.0265 19.8323 12.3058 20.0514 13.5431C20.6016 16.6487 21.1238 19.5845 19.0583 24.1556C19.0227 24.2341 18.9647 24.2968 18.8937 24.3336C18.8226 24.3704 18.7427 24.3792 18.6667 24.3586C18.5907 24.3379 18.5231 24.2891 18.4747 24.2198C18.4263 24.1506 18.4 24.065 18.3999 23.9768Z" fill="#EDD580"/>
<path fill-rule="evenodd" clip-rule="evenodd" d="M13.7967 23.6341C14.7539 21.5149 15.1048 19.7833 15.1572 18.2256C15.2099 16.6602 14.9627 15.2562 14.6999 13.7664C14.6999 13.7664 14.6999 13.7665 14.6999 13.7664L14.6978 13.7549C14.4751 12.4944 14.2396 11.1624 14.1812 9.66639C13.9341 3.57001 16.6865 1.50755 16.8981 1.35884L16.9053 1.35379C17.0771 1.23866 17.2899 1.20044 17.4939 1.2563C17.6958 1.31159 17.8559 1.44952 17.9514 1.62205C18.0465 1.79376 18.0758 1.99471 18.0388 2.18465C18.0018 2.37472 17.8979 2.55341 17.7346 2.67409C17.7346 2.67411 15.4651 4.38174 15.6734 9.60036C15.7277 10.9796 15.9492 12.2336 16.1689 13.4735C16.1689 13.4735 16.1689 13.4735 16.1689 13.4735L16.1729 13.4961C16.4459 15.037 16.7193 16.5806 16.6591 18.3138C16.5983 20.0631 16.199 21.9909 15.1464 24.3205C15.0767 24.4739 14.9583 24.6075 14.8013 24.6889C14.6428 24.771 14.4599 24.7921 14.2854 24.7447C14.1121 24.6977 13.9682 24.5891 13.8703 24.4491C13.7729 24.3097 13.7235 24.1434 13.7235 23.9771C13.7235 23.86 13.7483 23.742 13.7967 23.6341ZM15.775 13.5431C15.5558 12.3059 15.3292 11.0265 15.2738 9.61631C15.0569 4.18545 17.4605 2.37919 17.4969 2.35237C17.5731 2.2961 17.6267 2.20843 17.6462 2.10813C17.6658 2.00783 17.6497 1.90289 17.6015 1.81578C17.5533 1.72867 17.4767 1.66633 17.3882 1.64209C17.2997 1.61786 17.2064 1.63367 17.1281 1.68614C17.0143 1.76606 14.3398 3.70536 14.5809 9.65049C14.6382 11.1193 14.8697 12.4291 15.0934 13.6946L15.0956 13.7073C15.619 16.6739 16.1135 19.4767 14.1613 23.7987C14.1364 23.854 14.1235 23.915 14.1235 23.977C14.1235 24.0651 14.1498 24.1507 14.1982 24.22C14.2466 24.2892 14.3142 24.3381 14.3902 24.3587C14.4662 24.3794 14.5462 24.3706 14.6172 24.3337C14.6883 24.2969 14.7462 24.2342 14.7818 24.1558C16.8459 19.588 16.3259 16.6532 15.7762 13.5501L15.775 13.5431Z" fill="#EDD580"/>
<path fill-rule="evenodd" clip-rule="evenodd" d="M18.0732 23.6341C19.0304 21.5149 19.3813 19.7833 19.4337 18.2256C19.4864 16.6602 19.2392 15.2562 18.9764 13.7664C18.9764 13.7664 18.9764 13.7665 18.9764 13.7664L18.9743 13.7549C18.7515 12.4944 18.5161 11.1624 18.4577 9.66639C18.2106 3.57001 20.9629 1.50755 21.1746 1.35884L21.1818 1.35379C21.3536 1.23866 21.5664 1.20044 21.7704 1.2563C21.9723 1.31159 22.1324 1.44952 22.2279 1.62205C22.323 1.79376 22.3523 1.99471 22.3153 2.18465C22.2783 2.37472 22.1744 2.55341 22.0111 2.67409C22.0111 2.67411 19.7416 4.38174 19.9499 9.60036C20.0042 10.9796 20.2257 12.2336 20.4453 13.4735C20.4453 13.4735 20.4453 13.4735 20.4453 13.4735L20.4494 13.4961C20.7223 15.037 20.9958 16.5806 20.9356 18.3138C20.8748 20.0631 20.4755 21.9909 19.4228 24.3205C19.3532 24.4739 19.2348 24.6075 19.0778 24.6889C18.9193 24.771 18.7364 24.7921 18.5619 24.7447C18.3886 24.6977 18.2447 24.5891 18.1468 24.4491C18.0494 24.3097 18 24.1434 18 23.9771C18 23.86 18.0247 23.742 18.0732 23.6341ZM20.0514 13.5431C19.8323 12.3059 19.6057 11.0265 19.5502 9.61631C19.3334 4.18545 21.737 2.37919 21.7734 2.35237C21.8496 2.2961 21.9031 2.20843 21.9227 2.10813C21.9422 2.00783 21.9262 1.90289 21.878 1.81578C21.8297 1.72867 21.7532 1.66633 21.6647 1.64209C21.5762 1.61786 21.4828 1.63367 21.4046 1.68614C21.2908 1.76606 18.6163 3.70536 18.8574 9.65049C18.9147 11.1193 19.1462 12.4291 19.3699 13.6946L19.3721 13.7073C19.8955 16.6739 20.39 19.4767 18.4377 23.7987C18.4129 23.854 18.4 23.915 18.4 23.977C18.4 24.0651 18.4263 24.1507 18.4747 24.22C18.5231 24.2892 18.5907 24.3381 18.6667 24.3587C18.7427 24.3794 18.8227 24.3706 18.8937 24.3337C18.9647 24.2969 19.0227 24.2342 19.0583 24.1558C21.1224 19.588 20.6024 16.6532 20.0527 13.5501L20.0514 13.5431Z" fill="#EDD580"/>
<path d="M9.18034 5.02244C9.18292 3.97311 9.29685 2.92825 9.5195 1.91203C9.54406 1.81494 9.59957 1.73273 9.67446 1.68253C9.74935 1.63234 9.83784 1.61803 9.92149 1.6426C10.0051 1.66716 10.0775 1.7287 10.1235 1.81439C10.1694 1.90008 10.1855 2.0033 10.1683 2.10255C9.20947 6.54975 10.5773 9.69753 11.7843 12.4748C12.1768 13.38 12.546 14.2353 12.8031 15.0673C14.291 19.9119 12.6172 23.9859 12.5451 24.1575C12.5047 24.2489 12.4354 24.318 12.3522 24.35C12.2689 24.382 12.1783 24.3744 12.0997 24.3288C12.0212 24.2832 11.961 24.2032 11.9321 24.106C11.9032 24.0089 11.9079 23.9023 11.9451 23.8091C11.9613 23.7707 13.5608 19.8529 12.1741 15.3357C11.9331 14.5505 11.571 13.7169 11.1884 12.8343C10.2704 10.7201 9.18079 8.20758 9.18034 5.02244Z" fill="#EDD580"/>
<path fill-rule="evenodd" clip-rule="evenodd" d="M8.78036 5.02262L8.78036 5.02158C8.78301 3.94404 8.9 2.87081 9.12879 1.82655L9.13154 1.81402C9.17742 1.6326 9.28553 1.46182 9.45178 1.35039C9.62141 1.2367 9.83226 1.19962 10.0342 1.25893C10.233 1.3173 10.3858 1.4573 10.476 1.62542C10.5658 1.79287 10.5943 1.98717 10.5624 2.17108L10.561 2.17906L10.5593 2.18697C9.62951 6.49964 10.9463 9.54306 12.1512 12.3155C12.5419 13.2166 12.9205 14.0926 13.1853 14.9493C14.7146 19.9285 12.9985 24.1113 12.9138 24.3127L12.911 24.3194C12.8332 24.4953 12.6906 24.6485 12.4957 24.7235C12.2971 24.7999 12.0799 24.78 11.8988 24.6748C11.7216 24.5719 11.603 24.4028 11.5487 24.2202C11.4944 24.0376 11.5027 23.8384 11.5738 23.6606L11.5763 23.6544C11.584 23.6355 11.9701 22.6839 12.19 21.1937C12.4125 19.6857 12.463 17.6399 11.7917 15.4533C11.5587 14.6941 11.207 13.8829 10.8224 12.9956L10.8167 12.9826C9.90044 10.8725 8.78082 8.29409 8.78036 5.02262ZM11.1884 12.8344L11.1954 12.8505C11.5755 13.7271 11.9345 14.5554 12.1741 15.3359C13.5608 19.8531 11.9613 23.7708 11.9452 23.8092C11.9079 23.9024 11.9032 24.009 11.9321 24.1061C11.961 24.2033 12.0212 24.2833 12.0997 24.3289C12.1783 24.3745 12.2689 24.3821 12.3522 24.3501C12.4354 24.3181 12.5047 24.249 12.5451 24.1576C12.6172 23.9861 14.2911 19.912 12.8031 15.0675C12.546 14.2354 12.1768 13.3802 11.7843 12.4749C10.5773 9.69766 9.20948 6.54988 10.1683 2.10267C10.1855 2.00343 10.1695 1.90021 10.1235 1.81452C10.0775 1.72883 10.0052 1.66729 9.92151 1.64273C9.83786 1.61816 9.74937 1.63247 9.67448 1.68266C9.59959 1.73286 9.54408 1.81507 9.51952 1.91216C9.29687 2.92837 9.18294 3.97323 9.18036 5.02257C9.18081 8.20771 10.2704 10.7203 11.1884 12.8344Z" fill="#EDD580"/>
<path d="M4.94317 5.05332C4.94317 3.16978 5.19239 2.01882 5.21603 1.91462C5.24149 1.8168 5.30006 1.73379 5.37942 1.68308C5.45877 1.63236 5.55271 1.61789 5.64146 1.64272C5.73021 1.66755 5.80684 1.72973 5.85521 1.81618C5.90358 1.90263 5.91992 2.00659 5.90078 2.10618C5.88849 2.15881 4.70483 7.68996 7.73846 14.7368C9.9256 19.8174 9.88304 23.8298 9.88635 23.994C9.88226 24.0957 9.84284 24.1917 9.77639 24.2618C9.70994 24.3318 9.62166 24.3704 9.53014 24.3695C9.43862 24.3685 9.351 24.3281 9.28575 24.2567C9.22049 24.1852 9.1827 24.0884 9.18032 23.9866L9.18032 23.9613C9.18032 23.6582 9.13729 19.8038 7.10194 15.0757C5.34135 10.9908 4.94317 7.43682 4.94317 5.05332Z" fill="#EDD580"/>
<path fill-rule="evenodd" clip-rule="evenodd" d="M4.82872 1.81393L4.82891 1.81398C4.87774 1.62639 4.99309 1.45537 5.16399 1.34615C5.3369 1.23564 5.54808 1.20136 5.74921 1.25763C5.94865 1.31342 6.10823 1.44935 6.20426 1.62098C6.29985 1.79182 6.33004 1.99198 6.29359 2.18176L6.29209 2.18956L6.29028 2.1973C6.2903 2.19722 6.29025 2.19743 6.29015 2.19793C6.283 2.23188 5.99793 3.58503 6.07713 5.78438C6.15741 8.01375 6.61178 11.1082 8.10584 14.5787L7.7801 14.719L8.10585 14.5787C9.21481 17.1548 9.75897 19.461 10.0264 21.1465C10.1601 21.9894 10.2247 22.6775 10.2561 23.1673C10.2718 23.4122 10.2791 23.6074 10.2827 23.7474C10.2859 23.8738 10.2863 23.9878 10.2863 23.986L10.2865 23.9981L10.286 24.0101C10.2783 24.2029 10.2036 24.3927 10.0666 24.5372C9.92833 24.6829 9.73534 24.7718 9.52595 24.7696C9.31663 24.7674 9.12569 24.6746 8.99042 24.5266C8.85634 24.3798 8.78492 24.1889 8.78041 23.996L8.78019 23.9867L8.7803 23.9867L8.7803 23.9614C8.7803 23.6899 8.74089 19.8947 6.73452 15.234C4.94886 11.0908 4.54315 7.48153 4.54315 5.05343C4.54315 3.13521 4.79688 1.95425 4.82593 1.82622L4.82872 1.81393ZM5.90077 2.10629C5.88847 2.15892 4.70481 7.69007 7.73844 14.7369C9.85753 19.6594 9.88352 23.5791 9.88609 23.9676C9.88617 23.9801 9.88623 23.989 9.88634 23.9941C9.88224 24.0958 9.84282 24.1918 9.77637 24.2619C9.70993 24.3319 9.62165 24.3705 9.53012 24.3696C9.4386 24.3686 9.35099 24.3282 9.28573 24.2568C9.22048 24.1853 9.18268 24.0885 9.1803 23.9867L9.1803 23.9614C9.1803 23.6583 9.13727 19.8039 7.10193 15.0758C5.34133 10.9909 4.94315 7.43693 4.94315 5.05343C4.94315 3.1699 5.19237 2.01893 5.21602 1.91473C5.24147 1.81691 5.30005 1.73391 5.3794 1.68319C5.45875 1.63248 5.5527 1.61801 5.64144 1.64284C5.73019 1.66766 5.80682 1.72985 5.85519 1.8163C5.90356 1.90274 5.9199 2.00671 5.90077 2.10629Z" fill="#EDD580"/>
<path d="M1.41226 6.97047C1.41226 3.95759 2.3273 1.98841 2.38449 1.86596C2.42999 1.77055 2.51487 1.69567 2.62046 1.65777C2.72605 1.61988 2.8437 1.62208 2.94752 1.66389C3.05134 1.70571 3.13284 1.78371 3.17407 1.88074C3.21531 1.97777 3.21292 2.08587 3.16741 2.18128C3.14797 2.22385 1.17264 6.51221 3.18114 12.0703C5.28458 17.8953 3.60777 23.8217 3.53514 24.0693C3.52181 24.1201 3.49755 24.168 3.46378 24.2101C3.43001 24.2522 3.38741 24.2876 3.3385 24.3144C3.28959 24.3411 3.23535 24.3586 3.17897 24.3658C3.1226 24.373 3.06523 24.3697 3.01025 24.3562C2.95526 24.3427 2.90377 24.3192 2.85881 24.2872C2.81385 24.2551 2.77632 24.2151 2.74844 24.1695C2.72056 24.1239 2.70288 24.0737 2.69646 24.0217C2.69004 23.9697 2.69499 23.9171 2.71104 23.8669C2.72762 23.8081 4.39413 17.9116 2.3679 12.3167C1.73888 10.5934 1.4162 8.78816 1.41226 6.97047Z" fill="#EDD580"/>
<path fill-rule="evenodd" clip-rule="evenodd" d="M1.01222 6.97144L1.01222 6.97057C1.01222 3.87831 1.95078 1.84933 2.02203 1.69679L2.0234 1.69386L2.02341 1.69386C2.11732 1.49695 2.28716 1.35249 2.4853 1.28138C2.68297 1.21044 2.90188 1.2144 3.09691 1.29295C3.29249 1.37172 3.45664 1.52314 3.54217 1.72438C3.62788 1.92606 3.62318 2.1524 3.53002 2.35017C3.47626 2.46831 1.62837 6.59659 3.55729 11.9344L3.55732 11.9345C5.69453 17.8531 4.015 23.8519 3.92034 24.1771C3.89206 24.2813 3.84235 24.3775 3.77575 24.4605C3.70787 24.5451 3.62398 24.6143 3.53033 24.6655C3.43673 24.7166 3.33444 24.7493 3.2295 24.7627C3.12457 24.776 3.01773 24.77 2.91483 24.7448C2.81192 24.7195 2.71377 24.6752 2.62653 24.6129C2.53922 24.5507 2.46406 24.4714 2.40715 24.3783C2.35017 24.2851 2.313 24.1806 2.29944 24.0709C2.28622 23.9639 2.29591 23.8559 2.32743 23.7534C2.38346 23.5524 3.94496 17.8468 1.99194 12.4535C1.34724 10.6871 1.01626 8.83589 1.01222 6.97144ZM2.36786 12.3168C4.39158 17.9047 2.7317 23.7936 2.71107 23.8668L2.711 23.867C2.69495 23.9172 2.69 23.9698 2.69642 24.0218C2.70284 24.0738 2.72052 24.124 2.7484 24.1696C2.77628 24.2152 2.81381 24.2552 2.85877 24.2873C2.90373 24.3193 2.95522 24.3428 3.01021 24.3563C3.06519 24.3698 3.12256 24.3731 3.17893 24.3659C3.23531 24.3587 3.28955 24.3412 3.33846 24.3145C3.38737 24.2877 3.42997 24.2523 3.46374 24.2102C3.49751 24.1681 3.52177 24.1202 3.5351 24.0694C3.60773 23.8218 5.28453 17.8954 3.1811 12.0704C1.17824 6.52792 3.13686 2.24806 3.16716 2.18184L3.16737 2.18138C3.21288 2.08597 3.21527 1.97786 3.17403 1.88083C3.1328 1.78381 3.0513 1.7058 2.94748 1.66399C2.84366 1.62218 2.72601 1.61997 2.62042 1.65787C2.51483 1.69576 2.42995 1.77065 2.38445 1.86606C2.32726 1.98851 1.41222 3.95768 1.41222 6.97057C1.41616 8.78826 1.73884 10.5935 2.36786 12.3168Z" fill="#EDD580"/>
<path d="M163.859 23.9621V2.03809H174.362V2.44936H166.643V12.7944H173.539V13.2057H166.643V23.5508H174.362V23.9621H163.859Z" fill="#EDD580"/>
<path d="M148.61 2.03809H151.394L156.172 23.2028L160.949 2.03809H161.392L156.425 23.9621H153.514L148.61 2.03809Z" fill="#EDD580"/>
<path d="M136.106 23.9621H135.663L140.978 2.03809H143.888L148.982 23.9621H146.134L144.394 16.3694H137.94L136.106 23.9621ZM138.035 15.9581H144.299L141.262 2.70245L138.035 15.9581Z" fill="#EDD580"/>
<path d="M115.213 2.03809H117.902L122.584 23.2661L124.925 13.3323L122.426 2.03809H125.084L126.571 8.80827L128.184 2.03809H128.627L126.792 9.75736L129.798 23.2028L134.796 2.03809H135.239L130.051 23.9621H127.298L125.147 14.313L122.869 23.9621H120.085L115.213 2.03809Z" fill="#EDD580"/>
<path d="M99.8754 23.9621V2.03809H102.818C109.176 2.03809 113.985 6.56209 113.985 12.9843C113.985 19.4065 109.176 23.9621 102.818 23.9621H99.8754ZM102.818 2.44936H102.659V23.5508H102.818C107.531 23.5508 111.106 19.185 111.106 12.9843C111.106 6.81518 107.531 2.44936 102.818 2.44936Z" fill="#EDD580"/>
<path d="M85.4833 24.2784C78.9979 24.2784 74.0942 19.5962 74.0942 12.9842C74.0942 6.37222 78.9979 1.72168 85.4833 1.72168C91.9688 1.72168 96.8408 6.37222 96.8408 12.9842C96.8408 19.5962 91.9688 24.2784 85.4833 24.2784ZM85.4833 23.8671C90.3237 23.8671 93.9619 19.7228 93.9619 12.9842C93.9619 6.56204 90.4819 2.13295 85.4833 2.13295C80.6113 2.13295 76.9731 6.27732 76.9731 12.9842C76.9731 19.4064 80.4531 23.8671 85.4833 23.8671Z" fill="#EDD580"/>
<path d="M60.3349 24.2784C53.8494 24.2784 48.9458 19.5962 48.9458 12.9842C48.9458 6.37222 53.8494 1.72168 60.3349 1.72168C66.8203 1.72168 71.6923 6.37222 71.6923 12.9842C71.6923 19.5962 66.8203 24.2784 60.3349 24.2784ZM60.3349 23.8671C65.1753 23.8671 68.8134 19.7228 68.8134 12.9842C68.8134 6.56204 65.3334 2.13295 60.3349 2.13295C55.4629 2.13295 51.8247 6.27732 51.8247 12.9842C51.8247 19.4064 55.3047 23.8671 60.3349 23.8671Z" fill="#EDD580"/>
<path d="M27.9659 2.03809H30.655L35.3372 23.2661L37.6783 13.3323L35.179 2.03809H37.8365L39.3234 8.80827L40.9369 2.03809H41.3798L39.5449 9.75736L42.5503 23.2028L47.5489 2.03809H47.9918L42.8034 23.9621H40.051L37.8998 14.313L35.6219 23.9621H32.8379L27.9659 2.03809Z" fill="#EDD580"/>
</svg>
