<svg width="160" height="79" viewBox="0 0 160 79" fill="none" xmlns="http://www.w3.org/2000/svg">
<g clip-path="url(#clip0_1704_23034)">
<g clip-path="url(#clip1_1704_23034)">
<path d="M146.325 44.7461C146.23 44.7461 146.136 44.7648 146.049 44.8011C145.961 44.8375 145.882 44.8908 145.815 44.958C145.748 45.0253 145.694 45.1051 145.658 45.1929C145.622 45.2808 145.603 45.3749 145.603 45.47C145.603 45.5652 145.622 45.6593 145.658 45.7472C145.694 45.8351 145.747 45.9149 145.814 45.9822C145.881 46.0495 145.961 46.1028 146.048 46.1393C146.136 46.1757 146.23 46.1944 146.324 46.1945C146.516 46.1945 146.699 46.1183 146.835 45.9825C146.97 45.8468 147.046 45.6626 147.046 45.4705C147.046 45.2785 146.97 45.0942 146.835 44.9584C146.7 44.8225 146.516 44.7462 146.325 44.7461ZM146.325 46.0811C146.163 46.0811 146.009 46.0168 145.895 45.9022C145.78 45.7877 145.716 45.6323 145.716 45.4703C145.716 45.3083 145.78 45.1529 145.895 45.0383C146.009 44.9238 146.163 44.8594 146.325 44.8594C146.486 44.8594 146.641 44.9238 146.755 45.0383C146.869 45.1529 146.934 45.3083 146.934 45.4703C146.934 45.6323 146.869 45.7877 146.755 45.9022C146.641 46.0168 146.486 46.0811 146.325 46.0811ZM146.559 45.3471C146.559 45.2153 146.466 45.137 146.328 45.137H146.097V45.7968H146.211V45.5575H146.334L146.453 45.7968H146.575L146.446 45.5327C146.482 45.5169 146.511 45.4906 146.532 45.4575C146.552 45.4244 146.561 45.3859 146.559 45.3471ZM146.324 45.4566H146.212V45.2381H146.324C146.4 45.2381 146.446 45.2765 146.446 45.3471C146.446 45.4177 146.4 45.4576 146.324 45.4576V45.4566ZM61.3523 35.6479H62.6044V38.1352H61.1392C60.0108 38.1352 59.2866 38.6908 59.2866 39.8237V46.0766H56.6081V35.6483H59.2866V37.4005C59.5211 36.161 60.3728 35.6479 61.3523 35.6479ZM66.7321 33.1684C66.7321 33.3817 66.6901 33.5929 66.6087 33.79C66.5273 33.987 66.408 34.166 66.2577 34.3168C66.1073 34.4676 65.9289 34.5871 65.7325 34.6687C65.5361 34.7502 65.3256 34.7922 65.113 34.7921C64.684 34.7919 64.2726 34.6208 63.9693 34.3164C63.6659 34.0119 63.4955 33.599 63.4954 33.1684C63.4954 32.2492 64.1979 31.5227 65.1138 31.5227C66.0294 31.5227 66.7321 32.2492 66.7321 33.1684ZM63.778 35.6476H66.4484V46.0761H63.777L63.778 35.6476ZM73.8058 35.4716C72.6674 35.4661 71.5589 35.838 70.6526 36.5296V35.6476H67.9818V49.1373H70.6526V45.1946C71.5589 45.8863 72.6673 46.2583 73.8058 46.2528C76.7724 46.2528 79.1756 43.8394 79.1756 40.8622C79.1756 37.8855 76.7724 35.4721 73.8058 35.4721M73.5707 43.7907C71.959 43.7907 70.6526 42.4796 70.6526 40.8625C70.6526 39.2453 71.959 37.934 73.5707 37.934C75.1823 37.934 76.4884 39.245 76.4884 40.8625C76.4884 42.4799 75.1821 43.7904 73.5707 43.7907ZM128.151 42.7824C128.151 44.7932 126.432 46.2528 124.064 46.2528C121.695 46.2528 119.89 44.7586 119.89 42.6191V42.561H122.504V42.6191C122.504 43.5119 123.139 44.1119 124.085 44.1119C125.032 44.1119 125.602 43.6677 125.602 43.0069C125.602 42.381 125.18 42.0309 124.046 41.7161L122.553 41.3074C120.984 40.8812 120.085 39.8554 120.085 38.493C120.085 36.7425 121.73 35.4721 123.999 35.4721C126.267 35.4721 127.826 36.7433 127.826 38.6361V38.6954H125.364V38.6361C125.364 37.9935 124.764 37.4903 123.999 37.4903C123.195 37.4903 122.634 37.8605 122.634 38.3909C122.634 38.9216 123.033 39.2506 124.059 39.5183L125.618 39.9474C127.711 40.508 128.151 41.7987 128.151 42.7824ZM88.657 36.5298C87.7503 35.8378 86.6413 35.4658 85.5023 35.4716C82.5357 35.4716 80.1312 37.8853 80.1312 40.8622C80.1312 43.8392 82.5365 46.2526 85.5023 46.2526C86.6408 46.2581 87.7493 45.8861 88.6555 45.1944V46.0763H91.3266V35.6481H88.6555L88.657 36.5298ZM88.657 40.8625C88.657 42.4796 87.3504 43.7907 85.7389 43.7904C84.1273 43.7904 82.8209 42.4792 82.8212 40.862C82.8212 39.2446 84.1275 37.9338 85.7392 37.9338C87.3504 37.9345 88.6563 39.2455 88.6563 40.8625H88.657ZM100.976 36.5298C100.07 35.8382 98.9619 35.4662 97.8235 35.4716C94.8572 35.4716 92.4521 37.8853 92.4521 40.8622C92.4521 43.8392 94.8572 46.2526 97.8235 46.2526C98.9619 46.258 100.07 45.886 100.976 45.1944V46.0763H103.648V31.9359H100.976V36.5298ZM98.0589 43.7904C96.4475 43.7904 95.1412 42.4796 95.1409 40.8625C95.1407 39.2453 96.447 37.9342 98.0585 37.9338C99.6699 37.9338 100.976 39.2448 100.976 40.862C100.977 42.4792 99.6706 43.7904 98.0589 43.7904ZM116.055 35.6491H118.726V46.0763H116.055V35.6491ZM119.009 33.1694C119.009 33.3827 118.967 33.5939 118.886 33.7909C118.804 33.988 118.685 34.167 118.535 34.3178C118.385 34.4686 118.206 34.5883 118.01 34.6699C117.813 34.7515 117.603 34.7935 117.39 34.7935C117.178 34.7935 116.967 34.7515 116.771 34.6699C116.575 34.5883 116.396 34.4686 116.246 34.3178C116.096 34.167 115.977 33.988 115.895 33.7909C115.814 33.5939 115.772 33.3827 115.772 33.1694C115.772 32.2502 116.475 31.5236 117.39 31.5236C118.306 31.5236 119.007 32.249 119.007 33.1682L119.009 33.1694ZM134.33 35.4728C131.364 35.4728 128.959 37.8862 128.959 40.8634C128.959 43.8406 131.364 46.2538 134.33 46.2538C137.297 46.2538 139.7 43.8404 139.7 40.8632C139.7 37.8865 137.295 35.4718 134.329 35.4718L134.33 35.4728ZM134.33 43.7916C132.719 43.7916 131.413 42.4806 131.413 40.8634C131.413 39.2462 132.719 37.935 134.33 37.935C135.942 37.935 137.248 39.246 137.248 40.8634C137.248 42.4804 135.941 43.7912 134.33 43.7904H134.329L134.33 43.7916ZM57.9187 34.3282H54.125V46.0763H51.4628V34.3282H47.6688V31.9359H57.9178L57.9187 34.3282ZM112.129 35.6479H114.936L111.35 46.0763H108.136L104.57 35.6481H107.376L109.753 43.2206L112.129 35.6479ZM145.681 35.6479H146.933V38.1352H145.468C144.34 38.1352 143.616 38.6908 143.616 39.8237V46.0766H140.937V35.6483H143.616V37.4005C143.85 36.161 144.702 35.6479 145.681 35.6479ZM23.649 40.7239C23.649 42.2693 22.4005 43.5222 20.8609 43.5222C19.3213 43.5222 18.0728 42.2693 18.0728 40.7239C18.0728 39.1788 19.3213 37.9256 20.8609 37.9256C22.4005 37.9256 23.649 39.1788 23.649 40.7239ZM36.5758 37.9256C35.0361 37.9256 33.7877 39.1788 33.7877 40.7239C33.7877 42.2693 35.0361 43.5222 36.5758 43.5222C38.1154 43.5222 39.3639 42.2693 39.3639 40.7239C39.3634 39.1795 38.1161 37.9273 36.5772 37.9266L36.5758 37.9256ZM44.4366 40.7239C44.4366 45.0787 40.9159 48.6093 36.5758 48.6093C34.596 48.6128 32.6885 47.8628 31.2379 46.5107L28.7218 49.2576L26.2048 46.5076C24.7542 47.8612 22.846 48.6122 20.8652 48.6091C16.5281 48.6091 13.0086 45.0787 13.0086 40.7237C13.0071 39.6267 13.2343 38.5415 13.6756 37.5378C14.1169 36.5342 14.7626 35.6343 15.5711 34.896L13 32.0886H18.7126C24.757 27.96 32.7014 27.96 38.7458 32.0886H44.4436L41.8727 34.896C42.6816 35.6342 43.3275 36.5341 43.7691 37.5377C44.2106 38.5414 44.438 39.6267 44.4366 40.7239ZM26.1799 40.7239C26.1799 37.777 23.7993 35.3873 20.8628 35.3873C17.9264 35.3873 15.5457 37.777 15.5457 40.7239C15.5457 43.6709 17.9264 46.0605 20.8628 46.0605C23.7993 46.0605 26.1797 43.6718 26.1799 40.7249V40.7239ZM34.6217 32.7569C32.7519 31.9751 30.7464 31.5726 28.7208 31.5726C26.6953 31.5726 24.6897 31.9751 22.82 32.7569C26.1768 34.0463 28.7218 37.0583 28.7218 40.5702C28.7218 37.0585 31.2661 34.0463 34.6217 32.7569ZM41.8943 40.7237C41.8943 37.7765 39.5136 35.3871 36.5772 35.3871C33.6407 35.3871 31.2601 37.7762 31.2601 40.7237C31.2601 43.6706 33.6407 46.0603 36.5772 46.0603C39.5136 46.0603 41.8943 43.6706 41.8943 40.7237Z" fill="black"/>
</g>
</g>
<defs>
<clipPath id="clip0_1704_23034">
<rect width="134.75" height="28" fill="white" transform="translate(13 26)"/>
</clipPath>
<clipPath id="clip1_1704_23034">
<rect width="134.225" height="20.65" fill="white" transform="translate(13 28.7998)"/>
</clipPath>
</defs>
</svg>
