<?xml version="1.0" encoding="UTF-8"?>
<svg id="Current" xmlns="http://www.w3.org/2000/svg" viewBox="0 0 43.52 57.17">
  <defs>
    <style>
      .cls-1 {
        fill: #ff4800;
      }
    </style>
  </defs>
  <path class="cls-1" d="M42.35,31.78l-16.62,22.87c-1.18,1.62-2.97,2.52-4.87,2.52-.64,0-1.29-.1-1.94-.31-2.55-.83-4.2-3.11-4.2-5.79v-14.41c0-.88-.72-1.59-1.59-1.59h-7.03c-2.28,0-4.35-1.26-5.41-3.28-1.05-2.02-.89-4.43.42-6.3L17.11,2.62c1.56-2.23,4.23-3.14,6.82-2.32s4.26,3.1,4.26,5.81v3.43c0,1.24-1.01,2.25-2.25,2.25s-2.25-1.01-2.25-2.25v-3.43c0-1.08-.85-1.44-1.11-1.52s-1.16-.28-1.78.61L4.79,28.07c-.5.71-.24,1.39-.1,1.64.13.26.54.86,1.41.86h7.03c3.35,0,6.09,2.73,6.09,6.09v14.41c0,1.07.84,1.42,1.09,1.51.26.08,1.15.29,1.78-.58l16.62-22.87c.52-.71.26-1.39.13-1.65-.13-.27-.54-.87-1.42-.87h-3.8c-.86,2.37-3.13,4.05-5.8,4.05-3.43,0-6.2-2.77-6.2-6.19s2.77-6.2,6.2-6.2c2.59,0,4.8,1.59,5.73,3.84h3.87c2.31,0,4.39,1.27,5.43,3.32,1.05,2.05.85,4.48-.5,6.35Z"/>
</svg>