<svg width="160" height="79" viewBox="0 0 160 79" fill="none" xmlns="http://www.w3.org/2000/svg">
<g clip-path="url(#clip0_1704_22969)">
<path d="M52.2316 36.7011V43.0862H53.8678C54.7036 43.0747 55.5008 42.7321 56.0844 42.1336C56.6679 41.5351 56.9902 40.7295 56.9805 39.8937C56.9926 39.4863 56.9243 39.0805 56.7795 38.6995C56.6347 38.3186 56.4162 37.9699 56.1365 37.6734C55.8569 37.3769 55.5216 37.1384 55.1497 36.9716C54.7778 36.8048 54.3768 36.7129 53.9694 36.7011H52.2316ZM53.8678 34.6768C55.2514 34.6768 56.5783 35.2264 57.5567 36.2047C58.5351 37.1831 59.0847 38.51 59.0847 39.8937C59.0847 41.2773 58.5351 42.6042 57.5567 43.5826C56.5783 44.5609 55.2514 45.1106 53.8678 45.1106H50.2617C50.2268 45.1127 50.1919 45.1074 50.1593 45.095C50.1266 45.0826 50.0969 45.0635 50.0723 45.0388C50.0476 45.0141 50.0284 44.9844 50.016 44.9518C50.0036 44.9191 49.9983 44.8842 50.0005 44.8494V34.967C49.9983 34.9321 50.0036 34.8972 50.016 34.8646C50.0284 34.8319 50.0476 34.8023 50.0723 34.7776C50.0969 34.7529 50.1266 34.7337 50.1593 34.7213C50.1919 34.709 50.2268 34.7037 50.2617 34.7058L53.8678 34.6768Z" fill="#D83520"/>
<path d="M67.1012 43.3123C67.7785 43.3123 68.4407 43.1114 69.0039 42.7351C69.5671 42.3588 70.006 41.8239 70.2652 41.1982C70.5244 40.5724 70.5923 39.8838 70.4601 39.2194C70.328 38.5551 70.0018 37.9449 69.5228 37.4659C69.0439 36.987 68.4337 36.6608 67.7693 36.5286C67.105 36.3965 66.4164 36.4643 65.7906 36.7235C65.1648 36.9827 64.6299 37.4217 64.2536 37.9849C63.8773 38.5481 63.6765 39.2102 63.6765 39.8876C63.676 40.3374 63.7642 40.783 63.9362 41.1987C64.1081 41.6144 64.3604 41.9922 64.6785 42.3103C64.9966 42.6284 65.3743 42.8806 65.79 43.0526C66.2058 43.2245 66.6513 43.3128 67.1012 43.3123ZM67.1012 34.4639C70.2937 34.4639 72.7571 36.9308 72.7571 39.8876C72.7571 42.8443 70.2901 45.3294 67.1012 45.3294C63.9123 45.3294 61.4453 42.8624 61.4453 39.8876C61.4453 36.9127 63.9123 34.4711 67.1012 34.4711V34.4639Z" fill="#D83520"/>
<path d="M80.5426 43.3123C81.22 43.3123 81.8821 43.1114 82.4453 42.7351C83.0085 42.3588 83.4474 41.8239 83.7066 41.1982C83.9658 40.5724 84.0337 39.8838 83.9015 39.2194C83.7694 38.5551 83.4432 37.9449 82.9642 37.4659C82.4853 36.987 81.8751 36.6608 81.2107 36.5286C80.5464 36.3965 79.8578 36.4643 79.232 36.7235C78.6062 36.9827 78.0714 37.4217 77.695 37.9849C77.3187 38.5481 77.1179 39.2102 77.1179 39.8876C77.1174 40.3374 77.2057 40.783 77.3776 41.1987C77.5495 41.6144 77.8018 41.9922 78.1199 42.3103C78.438 42.6284 78.8157 42.8806 79.2315 43.0526C79.6472 43.2245 80.0927 43.3128 80.5426 43.3123ZM80.5426 34.4639C83.7352 34.4639 86.1985 36.9308 86.1985 39.8876C86.1985 42.8443 83.7315 45.3294 80.5426 45.3294C77.3537 45.3294 74.8867 42.8624 74.8867 39.8876C74.8867 36.9127 77.3356 34.4711 80.5426 34.4711V34.4639Z" fill="#D83520"/>
<path d="M93.6609 36.7009H91.3499V39.4508H93.6609C93.8384 39.4586 94.0156 39.431 94.1824 39.3698C94.3492 39.3085 94.5021 39.2148 94.6324 39.094C94.7626 38.9732 94.8676 38.8277 94.9412 38.666C95.0149 38.5043 95.0556 38.3296 95.0612 38.152V38.1012C95.071 37.74 94.937 37.3897 94.6888 37.1272C94.4405 36.8646 94.0982 36.7113 93.7371 36.7009H93.6609ZM89.1333 34.9667C89.1311 34.9319 89.1365 34.897 89.1488 34.8643C89.1612 34.8317 89.1804 34.802 89.2051 34.7773C89.2297 34.7526 89.2594 34.7335 89.2921 34.7211C89.3247 34.7087 89.3596 34.7034 89.3945 34.7055H93.7298C95.8049 34.7055 97.3105 36.2111 97.3105 38.1303C97.3233 38.7623 97.1539 39.3847 96.8226 39.9231C96.4914 40.4616 96.0121 40.8933 95.4422 41.1668L97.4411 44.6967C97.4611 44.7252 97.475 44.7575 97.4819 44.7915C97.4889 44.8255 97.4888 44.8607 97.4817 44.8947C97.4745 44.9287 97.4605 44.9608 97.4404 44.9892C97.4203 45.0176 97.3947 45.0415 97.3649 45.0595C97.3175 45.0882 97.2641 45.1055 97.209 45.1103H95.4385C95.3919 45.1103 95.346 45.0983 95.3054 45.0754C95.2647 45.0525 95.2306 45.0196 95.2064 44.9797L93.2981 41.4788H91.3789V44.8527C91.381 44.8876 91.3757 44.9225 91.3634 44.9552C91.351 44.9878 91.3318 45.0175 91.3071 45.0422C91.2824 45.0668 91.2528 45.086 91.2201 45.0984C91.1875 45.1108 91.1526 45.1161 91.1177 45.1139H89.4162C89.3814 45.1161 89.3465 45.1108 89.3138 45.0984C89.2812 45.086 89.2515 45.0668 89.2268 45.0422C89.2021 45.0175 89.183 44.9878 89.1706 44.9552C89.1582 44.9225 89.1529 44.8876 89.155 44.8527L89.1333 34.9667Z" fill="#D83520"/>
<path d="M103.122 36.7304V43.1155H104.758C105.594 43.104 106.391 42.7614 106.975 42.1629C107.559 41.5644 107.881 40.7588 107.871 39.923C107.883 39.5156 107.815 39.1098 107.67 38.7288C107.525 38.3479 107.307 37.9992 107.027 37.7027C106.748 37.4062 106.412 37.1677 106.04 37.0009C105.668 36.8341 105.267 36.7421 104.86 36.7304H103.122ZM104.758 34.7314C106.142 34.7314 107.469 35.2811 108.447 36.2594C109.426 37.2378 109.975 38.5647 109.975 39.9484C109.975 41.332 109.426 42.6589 108.447 43.6373C107.469 44.6156 106.142 45.1652 104.758 45.1652H101.152C101.117 45.1674 101.083 45.1621 101.05 45.1497C101.017 45.1373 100.988 45.1182 100.963 45.0935C100.938 45.0688 100.919 45.0391 100.907 45.0065C100.894 44.9738 100.889 44.9389 100.891 44.9041V35.0181C100.889 34.9832 100.894 34.9483 100.907 34.9156C100.919 34.883 100.938 34.8533 100.963 34.8286C100.988 34.804 101.017 34.7848 101.05 34.7724C101.083 34.76 101.117 34.7547 101.152 34.7568L104.758 34.7314Z" fill="#D83520"/>
<path d="M116.899 37.2745L115.626 40.6992H118.143L116.899 37.2745ZM114.9 42.622L114.069 44.9039C114.052 44.959 114.017 45.0069 113.97 45.0397C113.923 45.0726 113.866 45.0887 113.808 45.0853H112.02C111.985 45.0893 111.951 45.0865 111.918 45.0769C111.885 45.0673 111.854 45.0513 111.827 45.0296C111.801 45.008 111.779 44.9812 111.762 44.9509C111.746 44.9206 111.736 44.8873 111.733 44.8531C111.726 44.808 111.735 44.7616 111.758 44.7225L115.651 34.8619C115.671 34.809 115.707 34.7634 115.754 34.7311C115.8 34.6987 115.856 34.6811 115.912 34.6805H117.911C117.969 34.6758 118.027 34.6913 118.074 34.7244C118.122 34.7575 118.157 34.8061 118.172 34.8619L122.065 44.7225C122.092 44.7846 122.094 44.8549 122.069 44.918C122.045 44.9811 121.996 45.0321 121.935 45.0599C121.894 45.0809 121.849 45.0898 121.804 45.0853H120.012C119.955 45.0847 119.9 45.0671 119.853 45.0348C119.807 45.0024 119.771 44.9568 119.751 44.9039L118.92 42.622H114.9Z" fill="#D83520"/>
<path d="M124.136 37.4814C124.136 35.8453 125.536 34.4449 127.764 34.4449C128.974 34.4135 130.148 34.8621 131.029 35.6929C131.079 35.745 131.107 35.8146 131.107 35.887C131.107 35.9594 131.079 36.029 131.029 36.0811L130.016 37.0933C129.969 37.1401 129.906 37.1684 129.84 37.1731C129.773 37.1777 129.707 37.1584 129.654 37.1187C129.182 36.6797 128.56 36.4382 127.916 36.4439C127.034 36.4439 126.36 36.9627 126.36 37.5613C126.36 39.5058 131.627 38.392 131.627 42.1034C131.627 43.9717 130.227 45.3685 127.684 45.3685C126.988 45.3791 126.297 45.2515 125.652 44.993C125.006 44.7346 124.418 44.3505 123.922 43.8629C123.897 43.8395 123.877 43.8114 123.864 43.7802C123.851 43.749 123.844 43.7155 123.844 43.6815C123.844 43.6476 123.851 43.614 123.864 43.5828C123.877 43.5516 123.897 43.5235 123.922 43.5001L124.883 42.5387C124.906 42.5141 124.934 42.4946 124.966 42.4812C124.997 42.4678 125.03 42.4609 125.064 42.4609C125.098 42.4609 125.132 42.4678 125.163 42.4812C125.194 42.4946 125.222 42.5141 125.246 42.5387C125.863 43.1248 126.677 43.4587 127.528 43.4747C128.645 43.4747 129.371 42.8761 129.371 42.1251C129.407 40.1298 124.136 41.2436 124.136 37.4814Z" fill="#D83520"/>
<path d="M141.215 34.9384V38.8311H136.753V34.9384C136.754 34.8737 136.731 34.8108 136.688 34.7624C136.645 34.714 136.585 34.6836 136.521 34.6772H134.809C134.774 34.6751 134.739 34.6804 134.706 34.6928C134.673 34.7051 134.644 34.7243 134.619 34.749C134.594 34.7737 134.575 34.8033 134.563 34.836C134.551 34.8687 134.545 34.9036 134.547 34.9384V44.8244C134.546 44.8897 134.57 44.9531 134.614 45.0016C134.657 45.0501 134.718 45.0801 134.783 45.0856H136.496C136.53 45.0877 136.565 45.0824 136.598 45.0701C136.631 45.0577 136.66 45.0385 136.685 45.0138C136.71 44.9891 136.729 44.9595 136.741 44.9268C136.754 44.8942 136.759 44.8593 136.757 44.8244V40.8555H141.219V44.799C141.218 44.8638 141.241 44.9266 141.284 44.975C141.327 45.0234 141.387 45.0539 141.451 45.0602H143.164C143.228 45.0615 143.291 45.0382 143.34 44.9952C143.388 44.9522 143.418 44.8925 143.425 44.828V34.9384C143.426 34.8737 143.403 34.8108 143.36 34.7624C143.317 34.714 143.257 34.6836 143.193 34.6772H141.48C141.415 34.676 141.353 34.6992 141.304 34.7422C141.256 34.7853 141.225 34.8449 141.219 34.9094L141.215 34.9384Z" fill="#D83520"/>
<path d="M41.5281 36.0926C40.9579 35.0299 40.1102 34.1418 39.0753 33.5227C38.0403 32.9037 36.8569 32.5769 35.6509 32.5771H17.0181C16.8471 32.5819 16.6849 32.6539 16.5667 32.7775C16.4485 32.9012 16.3839 33.0664 16.3868 33.2374C16.3969 33.4038 16.462 33.562 16.5718 33.6873L20.6315 37.7868C20.8068 37.9642 21.0159 38.1048 21.2465 38.2001C21.477 38.2955 21.7243 38.3436 21.9738 38.3419H35.0995C35.5517 38.3385 35.9867 38.5149 36.3089 38.8323C36.631 39.1497 36.8139 39.5821 36.8173 40.0343C36.8206 40.4865 36.6442 40.9215 36.3268 41.2437C36.0095 41.5658 35.5771 41.7487 35.1249 41.7521H26.0842C25.9132 41.7568 25.751 41.8288 25.6328 41.9525C25.5146 42.0761 25.45 42.2414 25.4529 42.4124C25.463 42.5787 25.5281 42.7369 25.6379 42.8622L29.6975 46.9617C29.8729 47.1392 30.082 47.2797 30.3126 47.375C30.5431 47.4704 30.7904 47.5186 31.0399 47.5168H35.1249C40.4724 47.4914 44.4812 41.7775 41.5281 36.0926Z" fill="#D83520"/>
</g>
<defs>
<clipPath id="clip0_1704_22969">
<rect width="127.034" height="14.9396" fill="white" transform="translate(16.3867 32.5771)"/>
</clipPath>
</defs>
</svg>
