<svg width="24" height="24" viewBox="0 0 24 24" fill="none" xmlns="http://www.w3.org/2000/svg">
<g clip-path="url(#clip0_12570_21209)">
<path d="M5.08594 13.6807C5.72295 16.3103 7.81973 18.368 10.4707 18.9492V23.999C5.06479 23.3163 0.772143 19.0658 0.0234375 13.6807H5.08594ZM23.9795 13.6807C23.2634 18.8308 19.3053 22.9424 14.2324 23.8887V18.7568C16.5476 17.9926 18.3363 16.0737 18.916 13.6807H23.9795ZM10.4707 5.0498C7.95573 5.60118 5.93963 7.48203 5.19531 9.91895H0.0849609C0.985711 4.72455 5.19937 0.666538 10.4707 0.000976562V5.0498ZM14.2324 0.110352C19.1734 1.03177 23.0574 4.95693 23.918 9.91895H18.8066C18.1329 7.71307 16.4172 5.9633 14.2324 5.24219V0.110352Z" fill="url(#paint0_linear_12570_21209)"/>
</g>
<defs>
<linearGradient id="paint0_linear_12570_21209" x1="-2.97884" y1="18.5991" x2="24.0296" y2="2.98038" gradientUnits="userSpaceOnUse">
<stop offset="0.471154" stop-color="#D3433C"/>
<stop offset="1" stop-color="#9767FF"/>
</linearGradient>
<clipPath id="clip0_12570_21209">
<rect width="24" height="24" fill="white"/>
</clipPath>
</defs>
</svg>
