<svg width="103" height="40" viewBox="0 0 103 40" fill="none" xmlns="http://www.w3.org/2000/svg">
<path d="M16.6965 5C15.8678 7.1104 14.9832 9.22835 14.0717 11.3608L12.8385 14.1877L11.5909 11.3608C10.6502 9.22835 9.74849 7.1104 8.90286 5H2.00096V5.55315C2.76623 5.55315 3.39505 6.19176 3.39505 6.97885C3.28287 8.43616 3.1611 9.89613 3.01241 11.3608L2.55431 15.8108C2.33485 17.9408 2.08622 20.0635 1.79639 22.1714H4.00184C4.13829 20.0635 4.3088 17.9408 4.52337 15.8108L5.20338 9.10149C6.18302 11.1413 7.12125 13.1934 8.03031 15.2504L8.28139 15.8108C9.22451 17.9408 10.1213 20.0635 10.9719 22.1714H11.6396C12.473 20.0635 13.3554 17.9408 14.2716 15.8108L14.6689 14.8969C15.5584 12.8399 16.4844 10.7881 17.4397 8.75067L18.1587 15.8108C18.3733 17.9408 18.5511 20.0635 18.6802 22.1714H23.7542C23.4617 20.0635 23.2107 17.9408 22.9963 15.8108L22.5431 11.3608C22.331 9.22835 22.1482 7.1104 22.024 5H16.6965Z" fill="#000"/>
<path d="M39.456 20.4655C40.0091 19.4126 40.6063 18.3477 41.2398 17.2826L47.4032 7.02515V6.59132H33.8411V9.74724H34.3771C34.3771 8.98686 34.9621 8.36539 35.6931 8.31909C36.1171 8.30461 36.5389 8.29726 36.9556 8.29726H41.3324C40.7891 9.32809 40.209 10.3687 39.5826 11.4093L33.3877 21.7401V22.1714H48.0149V20.3388C46.9865 20.4216 45.9434 20.4655 44.9053 20.4655H39.456Z" fill="#000"/>
<path d="M64.5288 22.1721C64.5727 22.1696 64.6165 22.1647 64.6579 22.1623C64.5776 21.1094 64.5288 20.0543 64.5288 18.9917V15.1315H70.5849V18.9917C70.5849 20.0543 70.5484 21.1192 70.468 22.1721H75.1324C75.0472 21.1192 75.0082 20.0543 75.0082 18.9917V9.77479C75.0082 8.7048 75.0472 7.64725 75.1324 6.5895H69.1861V7.08187H69.3201C69.983 7.08187 70.5168 7.60565 70.563 8.26873C70.5775 8.76824 70.5849 9.27019 70.5849 9.77479V13.4231H64.5288V9.77479C64.5288 8.7048 64.5678 7.64725 64.653 6.5895H58.7091V7.08187H58.8382C59.4987 7.08187 60.0349 7.60096 60.0812 8.26139C60.0983 8.76579 60.1079 9.26774 60.1079 9.77479V20.5636C59.4962 20.6415 58.8674 20.6782 58.2315 20.6782C57.5465 20.6782 56.8716 20.6246 56.2136 20.5173C54.3468 20.1614 54.0494 18.4092 54.0494 17.3173V9.68464C54.0494 8.64872 54.0957 7.61788 54.1738 6.5895H48.2297V7.08187H48.3564C49.0193 7.08187 49.5506 7.60096 49.5969 8.25894C49.614 8.76579 49.6238 9.26774 49.6238 9.77479V16.579C49.6238 18.1095 50.1086 21.4921 54.2615 22.1062C55.5579 22.2842 56.8837 22.3864 58.2315 22.3864C60.3468 22.3864 62.4476 22.311 64.5288 22.1721Z" fill="#000"/>
<path d="M95.0986 14.3799C95.0986 19.6878 90.5096 22.3832 85.9888 22.3832C81.4682 22.3832 76.8888 19.6878 76.8888 14.3799C76.8888 9.06949 81.4682 6.37412 85.9888 6.37412C90.5096 6.37412 95.0986 9.06949 95.0986 14.3799ZM90.6583 14.3799C90.6534 11.4871 89.4445 8.08251 85.9888 8.08251C82.5379 8.08251 81.3244 11.4871 81.3244 14.3799C81.3244 17.2702 82.5379 20.6748 85.9888 20.6748C89.4445 20.6748 90.6534 17.2702 90.6583 14.3799Z" fill="#000"/>
<path d="M31.2784 9.77416C31.2784 8.70437 31.3174 7.64662 31.4075 6.58887H25.3052V7.14222H25.4318C26.2216 7.14222 26.8381 7.78063 26.8381 8.57506C26.8502 8.96993 26.8551 9.3697 26.8551 9.77416V18.991C26.8551 20.0537 26.8137 21.1188 26.7431 22.1714H31.4075C31.3174 21.1188 31.2784 20.0537 31.2784 18.991V9.77416Z" fill="#000"/>
<path d="M10.2823 30.7289C22.57 27.975 35.3401 26.5201 48.4515 26.5201C66.9611 26.5201 84.8222 29.2958 101.648 34.4575C101.711 34.4771 101.748 34.5356 101.735 34.6062C101.721 34.6721 101.65 34.7233 101.584 34.7086C84.2935 31.8547 66.5832 30.2269 48.5416 29.9124C35.6545 29.6858 22.9208 30.1414 10.3651 31.2284C10.2384 31.2406 10.1263 31.1602 10.0922 31.036C10.0606 30.8994 10.1458 30.7605 10.2823 30.7289Z" fill="#000"/>
</svg>
