<svg width="165" height="40" viewBox="0 0 165 40" fill="none" xmlns="http://www.w3.org/2000/svg">
<g clip-path="url(#clip0_5417_52)">
<path d="M113.429 17.5551C113.429 14.8713 111.752 12.9423 108.648 12.9423H98.4163V26.8647H101.771V22.0841H105.713L109.571 26.8647H113.345V26.5292L109.571 22.0002C112.003 21.497 113.429 19.7358 113.429 17.5551ZM108.229 19.2325H101.771V15.7939H108.229C109.403 15.7939 110.158 16.4648 110.158 17.5551C110.242 18.6454 109.487 19.2325 108.229 19.2325Z" fill="#000"/>
<path d="M164.087 12.8604H160.983V18.1442H152.512V12.8604H149.158V26.7829H152.512V21.3313H160.983V26.7829H164.087V12.8604Z" fill="#000"/>
<path d="M89.4424 12.8604L85.7521 24.5184H85.5844L81.8102 12.8604H75.8554V26.7829H79.0425V15.3765H79.2102L82.9005 26.7829H88.0166L91.7908 15.3765H91.9585V26.7829H95.2294V12.8604H89.4424Z" fill="#000"/>
<path d="M52.9584 18.56C51.7842 18.4761 49.6036 18.2245 48.3455 18.1406C47.1713 18.0568 46.5004 17.6374 46.5004 16.8826C46.5004 16.1278 47.2552 15.5407 50.1068 15.5407C52.6229 15.5407 54.9713 16.1278 57.068 17.0503V13.9471C55.0551 12.9407 52.7906 12.5213 49.939 12.5213C45.9971 12.5213 43.2294 14.1987 43.2294 16.9665C43.2294 19.3148 44.823 20.6567 48.0939 20.9922C49.2681 21.16 51.281 21.3277 52.6229 21.4116C54.1325 21.4955 54.5519 21.9987 54.5519 22.6696C54.5519 23.5922 53.4616 24.1793 50.8616 24.1793C48.1778 24.1793 45.41 23.2567 43.3972 22.0825V25.2696C44.9907 26.3599 47.6745 27.1986 50.7777 27.1986C55.0551 27.1986 57.8228 25.5212 57.8228 22.5858C57.8228 20.3213 56.397 18.8955 52.9584 18.56Z" fill="#000"/>
<path d="M60.0873 12.8604V26.7829H73.0033V23.9313H63.2744V21.0797H72.8356V18.2281H63.2744V15.712H73.0033V12.8604H60.0873Z" fill="#000"/>
<path d="M142.197 18.56C141.023 18.4761 138.842 18.2245 137.584 18.1406C136.41 18.0568 135.739 17.6374 135.739 16.8826C135.739 16.1278 136.494 15.5407 139.345 15.5407C141.861 15.5407 144.21 16.0439 146.306 17.0503V13.9471C144.293 12.9407 142.029 12.5213 139.177 12.5213C135.236 12.5213 132.468 14.1987 132.468 16.9665C132.468 19.3148 134.061 20.6567 137.332 20.9922C138.506 21.16 140.519 21.3277 141.861 21.4116C143.371 21.4955 143.79 21.9987 143.79 22.6696C143.79 23.5922 142.7 24.1793 140.1 24.1793C137.416 24.1793 134.648 23.2567 132.636 22.0825V25.2696C134.229 26.3599 136.913 27.1986 140.016 27.1986C144.293 27.1986 147.061 25.5212 147.061 22.5858C147.061 20.3213 145.552 18.8955 142.197 18.56Z" fill="#000"/>
<path d="M126.849 12.8604V19.9894C126.849 22.6732 125.171 24.1829 122.739 24.1829C120.223 24.1829 118.629 22.7571 118.629 19.9894V12.8604H115.275V19.6539C115.275 24.6861 118.462 27.2022 122.739 27.2022C126.933 27.2022 130.12 24.77 130.12 19.8216V12.8604H126.849Z" fill="#000"/>
<path d="M31.8234 19.7354C31.8234 20.4063 31.4879 20.4902 30.6492 20.4902C29.7266 20.4902 29.5589 20.3225 29.475 19.6515C29.3073 17.8902 28.1331 16.3806 26.1202 16.2967C25.5331 16.2128 25.3654 16.0451 25.3654 15.2064C25.3654 14.4516 25.4492 14.1161 26.0363 14.1161C29.3911 14.2 31.8234 16.9677 31.8234 19.7354ZM36.7717 19.7354C36.7717 14.5354 33.2492 9 25.0299 9H8.84295C8.50747 9 8.25586 9.16774 8.25586 9.50322C8.25586 9.67096 8.33973 9.8387 8.50747 9.92257C9.09456 10.4258 9.93326 10.929 11.1074 11.5161C12.1978 12.1032 13.1203 12.4387 13.959 12.7742C14.2945 12.9419 14.4623 13.1096 14.4623 13.2774C14.4623 13.529 14.2945 13.7806 13.8752 13.7806H1.04302C0.623673 13.6967 0.455933 13.9483 0.455933 14.2C0.455933 14.4516 0.539803 14.6193 0.707543 14.787C1.71399 15.8774 3.39139 17.2193 5.82362 18.7289C7.92038 20.0709 10.6042 21.4967 12.701 22.5031C13.0365 22.6708 13.2042 22.8386 13.2042 23.0902C13.2042 23.3418 13.0365 23.5095 12.6171 23.5095H6.66233C6.32684 23.5095 6.1591 23.6773 6.1591 23.9289C6.1591 24.0966 6.24297 24.2644 6.41071 24.4321C7.75264 25.6902 9.93326 26.9482 12.7848 28.2063C16.6429 29.7998 20.5009 30.8062 24.8622 30.8062C33.1653 30.8062 36.7717 24.5999 36.7717 19.7354ZM25.9525 27.1998C21.9267 27.1998 18.488 23.9289 18.488 19.7354C18.488 15.7096 21.8428 12.4387 25.9525 12.4387C30.146 12.4387 33.4169 15.7096 33.4169 19.7354C33.4169 23.845 30.146 27.1998 25.9525 27.1998Z" fill="#000"/>
</g>
<defs>
<clipPath id="clip0_5417_52">
<rect width="163.63" height="40" fill="#000" transform="translate(0.455933)"/>
</clipPath>
</defs>
</svg>
