<svg width="179" height="40" viewBox="0 0 179 40" fill="none" xmlns="http://www.w3.org/2000/svg">
<path fill-rule="evenodd" clip-rule="evenodd" d="M13.667 38.7329C25.7919 43.1329 38.6923 35.1828 40.3173 22.3579C41.9923 9.15796 30.0174 -2.06654 16.8925 0.383268C8.34256 1.98326 1.81678 8.93271 0.716759 17.6577C-0.433233 26.7076 5.04206 35.6078 13.667 38.7329ZM28.5673 27.7075C27.9924 27.6325 19.6435 20.8592 19.417 20.3081C19.342 20.1582 19.3421 19.8581 19.417 19.6831C19.492 19.5331 21.4668 17.7825 23.8418 15.8325C28.0416 12.3576 29.0421 11.7828 29.3671 12.6577C29.5921 13.2576 29.5419 27.08 29.292 27.4575C29.192 27.6575 28.8423 27.7574 28.5673 27.7075ZM18.3418 27.7075C17.5147 27.8303 8.96946 20.6344 9.06735 19.9331C9.11735 19.6581 10.9925 17.8829 13.3925 15.8579C16.6424 13.133 17.7925 12.2825 18.2675 12.3325L18.8925 12.3833V27.6333L18.3418 27.7075Z" fill="#000"/>
<path d="M156.492 27.1079C157.092 30.3829 159.842 31.9327 163.317 30.9077C165.767 30.2077 166.268 29.2079 166.468 24.6831L166.593 21.5083H162.518V24.4575C162.518 27.4822 162.367 28.0082 161.518 28.0083C161.293 28.0083 160.917 27.808 160.692 27.5581C160.317 27.1581 160.268 26.2829 160.268 20.5581C160.268 14.9586 160.317 13.9828 160.667 13.6577C160.867 13.4327 161.242 13.2583 161.492 13.2583C162.342 13.2583 162.518 13.7831 162.518 16.5581V19.2583H166.518V17.0083C166.518 13.9083 166.142 12.3329 165.167 11.3579C163.867 10.058 161.442 9.6583 159.442 10.3833C158.217 10.8083 157.317 11.6333 156.817 12.7583C156.292 13.86 156.067 24.808 156.492 27.1079Z" fill="#000"/>
<path d="M116.018 31.1079C118.217 31.1328 119.518 30.5574 120.518 29.0825C121.092 28.2328 121.143 27.9822 121.143 24.9077C121.143 22.2578 121.067 21.4825 120.692 20.8325C120.167 19.8826 118.667 18.9576 116.692 18.4077C115.042 17.9327 114.768 17.5077 114.768 15.4077C114.768 13.7828 115.168 13.1831 116.143 13.3081C116.892 13.383 116.893 13.3833 116.968 15.1831L117.042 17.0083H121.018V15.1831C120.993 11.7832 119.742 10.333 116.593 10.1079C115.468 10.0329 114.567 10.1079 113.942 10.3579C111.692 11.2079 111.018 12.4833 111.018 16.0083C111.018 19.8579 111.618 20.8083 114.718 21.7583C117.117 22.5081 117.268 22.7082 117.268 25.0581C117.268 27.2828 117.017 28.0082 116.192 28.0083C115.242 28.0083 115.018 27.5325 115.018 25.4575V23.5083H111.018V25.4575C111.018 27.7323 111.292 28.8575 112.067 29.7075C113.067 30.7575 114.018 31.1079 116.018 31.1079Z" fill="#000"/>
<path fill-rule="evenodd" clip-rule="evenodd" d="M60.5175 23.7583H61.2421C61.8421 23.7583 61.9921 23.8831 62.1171 24.4331C62.2423 25.0592 63.0175 30.6083 63.0175 30.8833C63.0212 30.958 63.9194 31.0083 65.042 31.0083C66.8417 31.0083 67.0419 30.9579 66.917 30.5581C66.867 30.3331 66.4921 28.3829 66.1171 26.2329L65.4423 22.3081L65.9921 21.2075C66.4421 20.2326 66.5175 19.6572 66.5175 16.5825C66.5175 13.3586 66.4674 13.0079 65.9677 12.2583C64.7927 10.5333 64.3671 10.3831 60.2421 10.3081L56.5175 10.2075V31.0083H60.5175V23.7583ZM60.5175 17.1333C60.5175 13.5083 60.5177 13.5083 61.0927 13.5083C61.4177 13.5084 61.8921 13.658 62.167 13.8579C62.567 14.1579 62.6671 14.5829 62.7421 16.4829C62.8671 19.7578 62.4671 20.7583 61.1171 20.7583H60.5175V17.1333Z" fill="#000"/>
<path d="M76.7675 27.7583H72.5175V22.0083H76.2675V18.7583H72.5175V13.5083H76.5175V10.2583H68.5175V31.0083H76.7675V27.7583Z" fill="#000"/>
<path d="M82.7675 31.0083C84.7171 31.0083 85.7673 30.9078 85.7675 30.7329C85.7675 30.5829 86.3426 26.1081 87.0175 20.7583C87.7175 15.4083 88.2675 10.8577 88.2675 10.6577C88.2674 10.3328 87.9171 10.2583 86.3173 10.2583H84.3671L83.792 17.4331C83.1922 24.9547 82.9926 26.8062 82.7177 26.3833C82.6427 26.2333 82.2671 22.558 81.8671 18.1831L81.167 10.2583H79.2177C77.4932 10.2583 77.2677 10.3078 77.2675 10.7075C77.2675 10.9575 77.8175 15.4827 78.5175 20.7827C79.1925 26.0577 79.7675 30.5331 79.7675 30.6831C79.7681 30.9329 80.5433 31.0083 82.7675 31.0083Z" fill="#000"/>
<path d="M97.5175 27.7583H93.2675V22.0083H97.0175V18.7583H93.2675V13.5083H97.5175V10.2583H89.2675V31.0083H97.5175V27.7583Z" fill="#000"/>
<path fill-rule="evenodd" clip-rule="evenodd" d="M103.018 23.7583H104.692L105.192 27.3081L105.667 30.8833L107.593 30.9575C109.042 31.0075 109.518 30.9575 109.518 30.7075C109.517 30.5303 109.192 28.5313 108.792 26.2827L108.067 22.1831L108.667 21.0581C109.217 20.0331 109.268 19.6327 109.268 16.7827C109.268 12.883 108.842 11.733 107.018 10.8081C106.043 10.3331 105.542 10.2583 102.593 10.2583H99.2675V31.0083H103.018V23.7583ZM103.768 20.7583C103.293 20.7583 103.268 20.5828 103.268 17.1333C103.268 13.5833 103.267 13.5083 103.817 13.5083C104.117 13.5083 104.567 13.6831 104.817 13.9331C105.192 14.283 105.268 14.7334 105.268 17.0581C105.268 19.4328 105.218 19.8083 104.768 20.2583C104.493 20.5331 104.043 20.7581 103.768 20.7583Z" fill="#000"/>
<path d="M131.018 27.7827L126.893 27.6333L126.742 22.0083H130.768V18.7583H126.768V13.5083H131.018V10.2583H123.018V31.0083H131.018V27.7827Z" fill="#000"/>
<path d="M142.518 13.5083H145.518V10.2583H135.768V13.5083H138.768V31.0083H142.518V13.5083Z" fill="#000"/>
<path d="M154.768 27.7583H150.518V22.0083H154.518V18.7583H150.518V13.5083H154.768V10.2583H146.768V31.0083H154.768V27.7583Z" fill="#000"/>
<path d="M172.268 22.0083H174.268V31.0083H178.268V10.2583H174.268V18.7583H172.268V10.2583H168.268V31.0083H172.268V22.0083Z" fill="#000"/>
</svg>
