<svg aria-hidden="true" fill="none" height="26" viewbox="0 0 26 26" width="26" xmlns="http://www.w3.org/2000/svg"> <path clip-rule="evenodd" d="M4.33333 10.7395C4.33333 10.4826 4.52777 10.3228 4.91667 10.2603L10.1458 9.49992L12.4896 4.76034C12.6215 4.47561 12.7917 4.33325 13 4.33325C13.2083 4.33325 13.3785 4.47561 13.5104 4.76034L15.8542 9.49992L21.0833 10.2603C21.4722 10.3228 21.6667 10.4826 21.6667 10.7395C21.6667 10.8923 21.5764 11.0589 21.3958 11.2395L17.6146 14.927L18.5104 20.1353C18.5174 20.1839 18.5208 20.2534 18.5208 20.3437C18.5208 20.4895 18.4844 20.6128 18.4115 20.7135C18.3385 20.8142 18.2326 20.8645 18.0937 20.8645C17.9618 20.8645 17.8229 20.8228 17.6771 20.7395L13 18.2812L8.32292 20.7395C8.17014 20.8228 8.03125 20.8645 7.90625 20.8645C7.76041 20.8645 7.65104 20.8142 7.57812 20.7135C7.50521 20.6128 7.46875 20.4895 7.46875 20.3437C7.46875 20.302 7.47569 20.2326 7.48958 20.1353L8.38542 14.927L4.59375 11.2395C4.42014 11.052 4.33333 10.8853 4.33333 10.7395V10.7395Z" fill="#7B98B6" fill-rule="evenodd"></path> </svg>