<svg aria-hidden="true" fill="none" height="26" viewbox="0 0 26 26" width="26" xmlns="http://www.w3.org/2000/svg"> <g clip-path="url(#clip0_3205_23493)"> <path d="M24.4736 12.9849V16.4529C24.4751 17.0592 24.2703 17.648 23.8929 18.1225C23.5155 18.597 22.9879 18.929 22.3968 19.064C22.1348 20.4862 21.4469 21.7952 20.4244 22.8178C19.4018 23.8404 18.0927 24.5282 16.6706 24.7902C16.5756 25.1374 16.3693 25.4438 16.0834 25.6623C15.7974 25.8809 15.4477 25.9995 15.0878 26H13.0715C12.6357 26 12.2177 25.8269 11.9095 25.5187C11.6013 25.2105 11.4282 24.7926 11.4282 24.3567V24.1753C11.4242 23.9586 11.4631 23.7433 11.5426 23.5418C11.6221 23.3402 11.7408 23.1564 11.8916 23.0008C12.0425 22.8453 12.2226 22.7211 12.4216 22.6355C12.6207 22.5498 12.8347 22.5044 13.0513 22.5017H15.0676C15.3693 22.5006 15.6652 22.584 15.9218 22.7427C16.1785 22.9013 16.3855 23.1286 16.5193 23.399C17.5983 23.1904 18.5954 22.6785 19.3936 21.9231C20.1918 21.1678 20.758 20.2004 21.0257 19.1345H20.9048C20.5501 19.1385 20.1981 19.0721 19.8692 18.9392C19.5404 18.8062 19.2412 18.6093 18.989 18.3599C18.7367 18.1105 18.5365 17.8135 18.3998 17.4862C18.2632 17.1588 18.1928 16.8076 18.1928 16.4529V12.9849C18.1913 12.3999 18.3819 11.8306 18.7352 11.3644C19.0885 10.8981 19.5851 10.5608 20.1486 10.404C19.8563 6.04886 16.4992 2.57076 12.517 2.57076C8.53484 2.57076 5.20797 6.00853 4.89545 10.3435C5.51218 10.4587 6.06933 10.7856 6.47061 11.2679C6.87189 11.7502 7.09211 12.3575 7.0932 12.9849V16.4529C7.0932 17.1641 6.81067 17.8462 6.30776 18.3491C5.80485 18.852 5.12276 19.1345 4.41154 19.1345H3.49413C2.78291 19.1345 2.10082 18.852 1.59791 18.3491C1.095 17.8462 0.812469 17.1641 0.812469 16.4529V12.9849C0.814954 12.4403 0.983156 11.9095 1.2947 11.4629C1.60625 11.0162 2.04638 10.6751 2.55656 10.4847C2.81867 4.67778 7.24442 0 12.5473 0C17.8501 0 22.2053 4.62737 22.5077 10.404C23.0732 10.5589 23.572 10.8955 23.9273 11.3619C24.2825 11.8283 24.4745 12.3986 24.4736 12.9849V12.9849Z" fill="#7C98B6"></path> </g> <defs> <clippath id="clip0_3205_23493"> <rect fill="white" height="26" width="26"></rect> </clippath> </defs> </svg>