<svg xmlns="http://www.w3.org/2000/svg" viewBox="0 0 32 32" fill="currentColor">
  <path d="M25.785,6.414c-1.724-1.124-2.968-2.922-3.356-5.018C22.345.943,22.299.477,22.299,0h-5.501l-.009,22.048c-.093,2.469-2.125,4.451-4.616,4.451-.774,0-1.503-.194-2.145-.531-1.472-.775-2.479-2.318-2.479-4.093,0-2.55,2.075-4.625,4.625-4.625.476,0,.933.079,1.365.214v-5.616c-.447-.061-.901-.099-1.365-.099-5.584,0-10.126,4.543-10.126,10.126,0,3.426,1.712,6.458,4.323,8.291,1.645,1.155,3.645,1.835,5.803,1.835,5.584,0,10.126-4.542,10.126-10.126v-11.18c2.158,1.549,4.801,2.461,7.654,2.461v-5.501c-1.537,0-2.968-.457-4.168-1.239Z"></path>
</svg>