<svg fill="none" height="40" viewbox="0 0 89 40" width="89" xmlns="http://www.w3.org/2000/svg">
<path d="M81.0715 6C84.0645 6 86.4301 6.48259 88.3129 7.0136C88.699 7.11014 88.9887 7.54469 88.8923 7.97912L87.444 14.4964C87.3957 14.786 87.1063 15.0276 86.7684 15.0277H84.6922C84.3061 15.0276 84.0166 14.6896 84.0166 14.3035V14.1588C84.1131 12.0347 82.7612 10.4415 79.7199 10.4415C74.651 10.4415 70.9822 14.593 70.4994 20.0481C70.0166 25.6963 73.9268 28.931 79.3818 28.931C82.1818 28.931 84.4027 28.3998 85.6096 28.0136C86.0923 27.8688 86.575 28.3036 86.4785 28.7863L85.851 32.1656C85.8027 32.4552 85.6097 32.6965 85.3201 32.7931C84.2098 33.131 81.0717 34 76.2925 34C64.8994 34 60.313 27.4343 60.9889 20.7722C61.6648 14.7378 65.5752 6.00007 81.0715 6Z" fill="#141415"></path>
<path d="M18.699 6.38611C19.1335 6.38611 19.4233 6.77242 19.375 7.2069L18.9889 8.9932C18.9406 9.23456 18.7472 9.47577 18.4576 9.52404H18.3614C17.7821 9.71714 16.8648 10.2 16.5751 11.3103L14.9336 18.8412L24.444 10.9242C25.0233 10.4415 24.8785 9.81399 24.2026 9.5726C23.8164 9.47605 23.6235 9.08947 23.6718 8.70326L24.106 7.0136C24.1543 6.67582 24.4923 6.43474 24.8301 6.43467H36.0302C36.4646 6.43467 36.8026 6.8206 36.7062 7.25498L36.3197 8.9932C36.2713 9.28279 36.0301 9.47577 35.6922 9.52404H35.5955C34.7748 9.62062 33.2299 9.91024 31.9748 10.8757L22.6577 18.5998L29.8024 28.3035C31.2024 30.0897 31.8785 30.4274 33.2784 30.4274C33.7129 30.4274 34.051 30.8623 33.9544 31.2967L33.6164 33.0345C33.5681 33.3241 33.2783 33.5653 32.9404 33.5653H27.3886C21.2095 33.5653 19.5196 30.862 14.3541 21.4483L12.8578 28.3035C12.6165 29.3655 13.5338 29.9446 14.1613 30.186L14.258 30.2346C14.5958 30.3312 14.7404 30.669 14.6922 31.0068L14.258 33.0345C14.2097 33.3241 13.9199 33.5653 13.5819 33.5653H0.692173C0.257756 33.5652 -0.0799477 33.1309 0.016594 32.6965L0.402707 30.9587C0.45098 30.6691 0.740555 30.4276 1.0302 30.3793H1.07829C2.28518 30.2345 3.49236 29.5102 4.26478 25.8412L7.20941 12.4206C7.59557 10.6345 6.67827 9.95843 5.90587 9.66878C5.85868 9.66863 5.81165 9.62262 5.8097 9.62069C5.47178 9.52414 5.27869 9.13801 5.32694 8.75182L5.71305 6.96552C5.80961 6.62761 6.09927 6.38611 6.43719 6.38611H18.699Z" fill="#141415"></path>
<path d="M62.1958 6.43467C62.6302 6.43469 62.9683 6.82059 62.8719 7.25498L61.375 13.9174C61.3267 14.2551 61.0372 14.4482 60.6994 14.4483H58.527C58.1409 14.4483 57.8028 14.1104 57.851 13.6761V13.5794C57.9475 11.8897 57.368 10.8757 55.4853 10.8757H49.596L48.0025 18.069H56.4508C56.8853 18.069 57.2234 18.4553 57.1268 18.8897L56.3061 22.6071C56.2577 22.8966 55.9682 23.1378 55.6305 23.1379H46.8923C46.8882 23.1563 45.9268 27.5314 45.8787 27.7241C45.5407 29.1241 46.5546 29.8964 47.1822 30.186C47.2302 30.1862 47.2303 30.2345 47.2784 30.2346C47.568 30.3794 47.713 30.6691 47.6164 30.9587L47.1822 33.0345C47.1339 33.3241 46.8441 33.5653 46.5062 33.5653H36.2235C35.7891 33.5653 35.4993 33.1794 35.5474 32.745L40.037 12.4206C40.4715 10.6344 39.4578 9.91034 38.6854 9.62069L38.5887 9.5726C38.2509 9.47602 38.058 9.0897 38.1545 8.75182L38.5887 7.0136C38.6371 6.67579 38.975 6.43475 39.3129 6.43467H62.1958Z" fill="#141415"></path>
</svg>