<svg fill="none" height="40" viewbox="0 0 182 40" width="182" xmlns="http://www.w3.org/2000/svg">
<g clip-path="url(#clip0_11405_694)">
<path clip-rule="evenodd" d="M20.0005 0C31.0412 3.73465e-05 40 8.95283 40 20.0154C39.9998 31.0174 31.041 40 20.0005 40C8.99007 40 0.000173215 31.0475 0 20.0154V19.9241C0.0303982 8.92209 8.99011 0 20.0005 0ZM38.1302 24.989C37.1347 26.1644 35.7469 27.0386 34.1783 27.4004C32.67 30.2639 30.3166 32.6145 27.451 34.1218C26.9684 34.393 26.4856 34.6041 25.973 34.8151C24.2234 35.5084 22.3226 35.9306 20.3318 35.9608H19.7287C18.6428 35.8703 17.7082 35.297 17.105 34.4531C16.6526 33.8502 16.4107 33.127 16.4107 32.3432C16.4107 31.2583 16.8629 30.2933 17.6169 29.6303C16.6519 29.3892 15.7167 28.9979 14.8722 28.4856C14.0881 29.5707 13.6055 30.8966 13.6055 32.3432C13.6055 32.6749 13.6057 33.0068 13.666 33.3084C13.7565 33.8507 13.8765 34.3331 14.0875 34.8151C15.0227 37.0458 17.2251 38.6736 19.7892 38.764H20.2723C21.9312 38.764 23.5303 38.5224 25.0386 38.1004C31.373 36.352 36.3806 31.3487 38.1302 24.989ZM7.63199 13.5648C7.33056 13.5648 6.99899 13.5641 6.69758 13.6243C6.15459 13.7147 5.67149 13.866 5.18884 14.0469C2.92651 14.9813 1.32785 17.1518 1.20719 19.7138V20.2564C1.23738 21.884 1.44853 23.4512 1.8708 24.9582C3.62039 31.3183 8.62784 36.352 14.9624 38.1004C13.7862 37.0756 12.911 35.689 12.549 34.1218C9.68352 32.6145 7.3309 30.2632 5.82269 27.3696C5.55123 26.8874 5.33947 26.4049 5.12833 25.8926C4.40449 24.0842 4.01244 22.0949 4.0124 20.0154V19.9549C4.0124 18.7795 4.61619 17.7247 5.52114 17.0614C6.12434 16.6395 6.84786 16.3979 7.63199 16.3978C8.71792 16.3978 9.68328 16.8503 10.3469 17.604C10.5883 16.6394 10.9808 15.7042 11.4936 14.8603C10.4077 14.0465 9.07988 13.5648 7.63199 13.5648ZM20.061 29.9626C18.7337 29.9626 17.6476 31.0477 17.6476 32.374C17.6478 33.6096 18.5828 34.634 19.7892 34.7546H20.2723C21.4786 34.6339 22.4137 33.6095 22.4139 32.374C22.4139 31.0478 21.3278 29.9627 20.061 29.9626ZM14.7819 22.7581C14.3898 23.7226 13.8166 24.5969 13.0926 25.3203C13.5451 25.923 14.0884 26.4661 14.6916 26.9183C15.0233 27.1893 15.3555 27.3997 15.7173 27.6107C16.9841 28.334 18.4618 28.7563 20.0303 28.7564C20.9353 28.7564 21.7804 29.0883 22.4139 29.661C23.1377 30.3241 23.6203 31.2889 23.6806 32.374C23.6805 33.1575 23.4095 33.881 22.9872 34.4838C24.1936 34.2427 25.3395 33.8504 26.4253 33.3381C26.4554 33.0066 26.4858 32.7054 26.4858 32.374C26.4858 30.9271 26.0335 29.6004 25.2191 28.5153C24.9477 28.1837 24.6757 27.882 24.374 27.6107C23.2279 26.586 21.7199 25.9532 20.061 25.9531C19.0656 25.9531 18.0999 25.7119 17.2856 25.2598C16.1996 24.687 15.3249 23.813 14.7819 22.7581ZM12.1275 26.1039C10.8907 27.0382 9.32123 27.5809 7.63199 27.5809H7.33044C8.56723 29.6306 10.3172 31.3792 12.3685 32.615C12.3685 32.5548 12.3689 32.4639 12.3387 32.3432C12.3388 30.6554 12.9114 29.0879 13.8465 27.8219C13.2131 27.3096 12.6402 26.7368 12.1275 26.1039ZM27.8438 26.1337C27.3612 26.7667 26.7879 27.3397 26.1545 27.8219C27.0895 29.0879 27.6324 30.6554 27.6325 32.3432V32.615C29.6838 31.3792 31.4031 29.6604 32.6398 27.6107H32.368C30.679 27.6106 29.1106 27.0681 27.8438 26.1337ZM32.3382 13.5648C30.8903 13.5648 29.5626 14.0166 28.4766 14.8305C28.1449 15.1017 27.8434 15.3733 27.572 15.6746C26.5465 16.82 25.9125 18.3269 25.9125 19.9846C25.9125 20.9794 25.6716 21.9443 25.2191 22.7581C24.6761 23.813 23.8009 24.6874 22.7452 25.23C23.7407 25.5916 24.6161 26.1641 25.3401 26.8875C25.9131 26.4355 26.456 25.923 26.9084 25.3203C27.1798 24.9889 27.3907 24.6572 27.6017 24.2956C28.3258 23.0296 28.7484 21.5521 28.7484 19.9846C28.7485 19.0503 29.0801 18.2061 29.6531 17.5732C30.3166 16.8197 31.2822 16.3681 32.368 16.368C33.1524 16.368 33.8766 16.6394 34.4798 17.0614C34.2385 15.8556 33.8464 14.7095 33.3034 13.6243C33.0018 13.5942 32.67 13.5648 32.3382 13.5648ZM14.5706 13.0817C13.9674 13.5338 13.4548 14.0772 13.0024 14.65C12.7308 14.9815 12.5192 15.313 12.308 15.6746C11.5841 16.9406 11.1623 18.4174 11.1623 19.9846V20.2564C11.1322 20.3166 11.1316 20.3766 11.1316 20.437V20.6482C11.1314 20.6783 11.1018 20.7084 11.1018 20.7385C11.1018 20.7987 11.071 20.8293 11.071 20.8595V20.8893C11.041 20.9495 11.0407 21.0404 11.0105 21.1006C11.0105 21.1309 11.0108 21.1906 10.9808 21.2206C10.9808 21.2507 10.9512 21.2809 10.951 21.3108C10.9209 21.371 10.9205 21.4015 10.8905 21.4616C10.8603 21.4918 10.8602 21.5526 10.83 21.5826V21.6124C10.7697 21.6728 10.7392 21.7337 10.709 21.7939C10.6793 21.8238 10.6794 21.8541 10.6495 21.8842C10.6493 21.9143 10.6189 21.9741 10.589 22.0042C10.5286 22.0946 10.4678 22.1549 10.4074 22.2453C10.3773 22.2755 10.3473 22.3362 10.3172 22.3663C9.65352 23.1199 8.6878 23.5715 7.63199 23.5715C6.84786 23.5714 6.12356 23.3303 5.42988 22.8781C5.67121 24.0839 6.06376 25.23 6.57656 26.3152C6.90839 26.3453 7.24065 26.3747 7.57247 26.3747C9.02029 26.3746 10.3175 25.8926 11.4033 25.109C11.735 24.8679 12.0366 24.597 12.308 24.2956C13.3336 23.1804 13.9972 21.6731 13.9973 20.0154V19.9846C13.9973 18.99 14.2391 18.0557 14.6916 17.2419C15.2346 16.1869 16.1089 15.3126 17.1645 14.77C16.1691 14.3781 15.2945 13.8052 14.5706 13.0817ZM25.0386 1.83906C26.2147 2.86388 27.089 4.25046 27.451 5.81773C30.3165 7.32481 32.67 9.67567 34.1783 12.5391C34.4195 13.0212 34.6606 13.5039 34.8717 14.0161C35.6259 15.8549 36.0183 17.875 36.0183 19.9549C36.0183 21.1603 35.4153 22.215 34.5106 22.8781C33.9073 23.3001 33.1829 23.5714 32.3988 23.5715C31.3129 23.5715 30.3474 23.1198 29.6838 22.3663C29.4425 23.3309 29.0499 24.265 28.5371 25.109C29.5928 25.8927 30.9202 26.3746 32.368 26.3747C32.7 26.3747 33.0324 26.3754 33.3342 26.3152C33.877 26.2248 34.3594 26.1036 34.8419 25.8926C37.0741 24.9581 38.7033 22.7878 38.7938 20.2257V19.6831C38.7938 18.0253 38.5524 16.4278 38.1302 14.9208C36.3806 8.59087 31.3731 3.58746 25.0386 1.83906ZM20.0005 15.2521C17.4062 15.2521 15.2941 17.3627 15.264 19.9549V19.9846C15.264 22.6072 17.3761 24.7172 20.0005 24.7172C22.6248 24.7171 24.736 22.6071 24.736 19.9846C24.7359 17.3925 22.5947 15.2521 20.0005 15.2521ZM32.368 17.5732C31.041 17.5734 29.9547 18.6586 29.9546 19.9846C29.9546 21.3109 31.0409 22.3959 32.368 22.396C33.6651 22.396 34.721 21.3715 34.7814 20.1056V19.8646C34.7211 18.5986 33.6651 17.5732 32.368 17.5732ZM7.63199 17.5435C6.33519 17.5437 5.28011 18.5682 5.21959 19.8339V19.9846C5.24975 21.3108 6.30491 22.3663 7.63199 22.3365C8.95928 22.3365 10.0152 21.2809 10.0454 19.9846V19.9549C10.0454 18.6287 8.95928 17.5435 7.63199 17.5435ZM17.105 5.54594C15.8985 5.78705 14.7519 6.17929 13.666 6.69163C13.6359 6.99306 13.6055 7.32522 13.6055 7.65679C13.6056 9.10338 14.058 10.4294 14.8722 11.5144C15.1437 11.846 15.4156 12.1478 15.7173 12.4191C16.8635 13.4438 18.3714 14.0766 20.0303 14.0766C21.0257 14.0766 21.9913 14.3179 22.8057 14.77C23.8616 15.3126 24.7366 16.1868 25.2796 17.2419C25.6416 16.2473 26.2143 15.3733 26.9381 14.65C26.4856 14.0772 25.9733 13.5338 25.3699 13.0817C25.0382 12.8106 24.7062 12.5993 24.3442 12.3883C23.0773 11.665 21.5988 11.2436 20.0303 11.2436C19.0953 11.2436 18.2504 10.9117 17.6169 10.339C16.8631 9.67597 16.3807 8.71146 16.4107 7.65679C16.4107 6.87308 16.6826 6.1488 17.105 5.54594ZM19.7595 1.2062C18.1004 1.23634 16.5013 1.47663 14.9932 1.89857C8.65837 3.64687 3.68034 8.62084 1.90056 14.9208C2.92619 13.7451 4.31458 12.9007 5.8832 12.5391C7.3915 9.67573 9.74443 7.35455 12.5798 5.84749C13.0624 5.60639 13.545 5.36508 14.0578 5.15412C15.8978 4.40055 17.8889 4.00942 20.0005 4.00942C21.2071 4.00945 22.2631 4.61192 22.9267 5.51618C23.3791 6.11899 23.6201 6.84241 23.6201 7.62604C23.6201 8.71107 23.1679 9.67587 22.4139 10.339C23.3791 10.5801 24.3141 10.9723 25.1586 11.4847C25.9428 10.3995 26.4253 9.07293 26.4253 7.62604C26.4253 7.29463 26.426 6.96317 26.3658 6.66187C26.2753 6.1193 26.1545 5.63641 25.9432 5.15412C25.0081 2.92364 22.8055 1.29663 20.2415 1.2062H19.7595ZM27.6325 7.35524C27.6325 7.44555 27.6321 7.53638 27.6622 7.65679C27.6621 9.34464 27.0895 10.9122 26.1545 12.1781C26.7879 12.6603 27.3612 13.2334 27.8438 13.8663C29.1106 12.9017 30.679 12.3587 32.368 12.3586H32.6398C31.4031 10.309 29.6836 8.59107 27.6325 7.35524ZM12.3685 7.35524C10.3474 8.59109 8.62772 10.3093 7.39095 12.3288H7.63199C9.35132 12.3288 10.9201 12.9013 12.187 13.8356C12.6696 13.2328 13.2131 12.6603 13.8465 12.1781C12.9114 10.8819 12.3685 9.31403 12.3685 7.62604V7.35524ZM19.8795 5.21463C18.6126 5.27509 17.5872 6.33007 17.5871 7.62604C17.5871 8.95234 18.6733 10.0374 20.0005 10.0374C21.3277 10.0374 22.4139 8.95231 22.4139 7.62604C22.4138 6.33012 21.3883 5.27516 20.1215 5.21463H19.8795Z" fill="#141415" fill-rule="evenodd"></path>
<path d="M122.549 11.5383C123.025 11.5383 123.521 11.5842 124.038 11.6751C124.556 11.766 125.053 11.9059 125.528 12.0947C126.003 12.2835 126.451 12.5175 126.871 12.797C127.29 13.0766 127.647 13.4123 127.94 13.8038L125.927 15.3989C125.534 14.8674 125.025 14.4792 124.395 14.2343C123.766 13.9896 123.151 13.8674 122.549 13.8673C121.78 13.8673 121.081 14.0073 120.451 14.2869C119.822 14.5667 119.279 14.951 118.825 15.4405C118.37 15.9299 118.021 16.5034 117.776 17.1606C117.531 17.8179 117.409 18.5318 117.409 19.3012C117.409 20.1123 117.528 20.8538 117.766 21.5251C118.004 22.1963 118.342 22.7736 118.783 23.256C119.223 23.7386 119.752 24.1121 120.367 24.3779C120.982 24.6436 121.675 24.7767 122.444 24.7767C123.241 24.7767 123.947 24.6192 124.563 24.3045C125.178 23.9899 125.675 23.5742 126.053 23.0567L128.172 24.5456C127.515 25.3708 126.71 26.0113 125.758 26.466C124.807 26.9204 123.696 27.1474 122.423 27.1474C121.262 27.1474 120.196 26.9547 119.223 26.5701C118.252 26.1856 117.416 25.6474 116.717 24.9552C116.017 24.2629 115.472 23.4374 115.08 22.4794C114.688 21.5213 114.493 20.4619 114.493 19.3012C114.493 18.1122 114.698 17.0384 115.112 16.0803C115.524 15.1222 116.091 14.3075 116.811 13.6362C117.532 12.965 118.382 12.4475 119.36 12.0838C120.34 11.7203 121.402 11.5383 122.549 11.5383Z" fill="#141415"></path>
<path d="M136.289 21.2097C136.289 21.6432 136.345 22.0737 136.456 22.5002C136.568 22.9267 136.755 23.3082 137.013 23.6439C137.271 23.9795 137.615 24.2525 138.041 24.4622C138.467 24.6719 138.995 24.7767 139.625 24.7767C140.254 24.7767 140.782 24.6721 141.209 24.4622C141.635 24.2524 141.979 23.9796 142.237 23.6439C142.495 23.3082 142.681 22.9267 142.793 22.5002C142.904 22.0736 142.96 21.6432 142.96 21.2097V11.9162H145.604V21.3148C145.604 22.21 145.45 23.0179 145.143 23.7381C144.834 24.4584 144.415 25.0707 143.884 25.5742C143.352 26.0777 142.723 26.466 141.995 26.7387C141.268 27.0115 140.478 27.1474 139.625 27.1474C138.772 27.1474 137.982 27.0113 137.255 26.7387C136.527 26.466 135.895 26.0777 135.355 25.5742C134.817 25.0707 134.396 24.4584 134.096 23.7381C133.797 23.0179 133.645 22.21 133.645 21.3148V11.9162H136.289V21.2097Z" fill="#141415"></path>
<path d="M66.0146 22.4694H66.0771L69.8961 11.9162H74.0503V26.7695H71.4276V14.8325H71.385L66.8746 26.7695H65.0286L60.5808 14.8325H60.5391V26.7695H58.0216V11.9162H62.154L66.0146 22.4694Z" fill="#141415"></path>
<path d="M91.1256 14.2234H83.9291V17.9998H90.7477V20.2237H83.9291V24.4196H91.5035V26.7695H81.2855V11.9162H91.1256V14.2234Z" fill="#141415"></path>
<path clip-rule="evenodd" d="M103.207 11.9162C103.907 11.9162 104.585 11.9896 105.242 12.1364C105.9 12.2833 106.484 12.5248 106.995 12.8605C107.505 13.1961 107.914 13.6365 108.222 14.1818C108.529 14.7272 108.684 15.3915 108.684 16.1746C108.684 17.2515 108.38 18.1299 107.771 18.8082C107.163 19.4865 106.333 19.9443 105.285 20.182L109.25 26.7695H106.061L102.62 20.4756H100.69V26.7695H98.0464V11.9162H103.207ZM100.69 18.3152H102.851C103.229 18.3152 103.606 18.2869 103.984 18.2309C104.362 18.1749 104.7 18.0701 105.001 17.9164C105.302 17.7626 105.551 17.5425 105.747 17.2558C105.942 16.969 106.04 16.6013 106.04 16.1538C106.04 15.7483 105.949 15.4156 105.767 15.1569C105.585 14.8984 105.354 14.6926 105.074 14.5389C104.795 14.385 104.477 14.2794 104.12 14.2234C103.763 14.1676 103.418 14.1401 103.082 14.1401H100.69V18.3152Z" fill="#141415" fill-rule="evenodd"></path>
<path clip-rule="evenodd" d="M157.874 11.9162C158.574 11.9162 159.254 11.9895 159.911 12.1364C160.567 12.2833 161.152 12.5249 161.661 12.8605C162.171 13.1962 162.581 13.6363 162.89 14.1818C163.197 14.7272 163.351 15.3916 163.351 16.1746C163.351 17.2515 163.047 18.1299 162.438 18.8082C161.83 19.4865 161.001 19.9443 159.951 20.182L163.917 26.7695H160.728L157.287 20.4756H155.357V26.7695H152.713V11.9162H157.874ZM155.357 18.3152H157.518C157.896 18.3152 158.274 18.2869 158.651 18.2309C159.029 18.1748 159.369 18.0702 159.669 17.9164C159.969 17.7626 160.218 17.5424 160.414 17.2558C160.609 16.969 160.707 16.6013 160.707 16.1538C160.707 15.7483 160.617 15.4156 160.434 15.1569C160.252 14.8984 160.021 14.6926 159.742 14.5389C159.463 14.385 159.144 14.2795 158.787 14.2234C158.431 14.1676 158.084 14.1401 157.749 14.1401H155.357V18.3152Z" fill="#141415" fill-rule="evenodd"></path>
<path d="M174.699 18.1684L178.475 11.9162H181.537L175.957 20.3288V26.7695H173.314V20.3288L167.733 11.9162H170.964L174.699 18.1684Z" fill="#141415"></path>
</g>
<defs>
<clippath id="clip0_11405_694">
<rect fill="white" height="40" width="181.537"></rect>
</clippath>
</defs>
</svg>