<svg xmlns="http://www.w3.org/2000/svg" fill="none" viewBox="0 0 24 25" class="icon-module-scss-module__leGPra__icon" width="24" height="24"><path fill="currentColor" fill-rule="evenodd" d="M1.4 1.4h10c2.42 0 4.4 1.979 4.4 4.4v5.8H20c1.32 0 2.4 1.079 2.4 2.4v8.7H18v-.8h3.6V14c0-.88-.721-1.6-1.6-1.6h-4.2v10.2h-10c-2.421 0-4.4-1.98-4.4-4.4zm.8.8v16c0 1.979 1.62 3.6 3.6 3.6H15v-16c0-1.98-1.621-3.6-3.6-3.6zm3.1 4.5h1.6v1.6H5.3zm4.5 0h1.6v1.6H9.8zm-4.5 4.5h1.6v1.6H5.3zm4.5 0h1.6v1.6H9.8zm-4.5 4.5h1.6v1.6H5.3zm4.5 0h1.6v1.6H9.8zm8.1 0h1.6v1.6h-1.6z" clip-rule="evenodd"></path></svg>