<svg xmlns="http://www.w3.org/2000/svg" fill="none" viewBox="0 0 24 24" class="icon-module-scss-module__leGPra__icon" width="24" height="24"><path fill="currentColor" fill-rule="evenodd" d="M13.4 18.4c0-.876.724-1.6 1.6-1.6h1.5c.876 0 1.6.724 1.6 1.6h-1a.61.61 0 0 0-.6-.6H15a.61.61 0 0 0-.6.6c0 .324.276.6.6.6h1v1h-1a1.61 1.61 0 0 1-1.6-1.6" clip-rule="evenodd"></path><path fill="currentColor" fill-rule="evenodd" d="M15.5 19h1.1c.876 0 1.6.724 1.6 1.6s-.724 1.6-1.6 1.6h-1.5a1.61 1.61 0 0 1-1.6-1.6h1c0 .324.276.6.6.6h1.5a.61.61 0 0 0 .6-.6.61.61 0 0 0-.6-.6h-1.1zM16.3 16v.9h-1V16z" clip-rule="evenodd"></path><path fill="currentColor" fill-rule="evenodd" d="M16.3 21.2V23h-1v-1.8z" clip-rule="evenodd"></path><path fill="currentColor" fill-rule="evenodd" d="M7.8 13.3c-3.024 0-5.5 2.476-5.5 5.5v3H6c1.724 0 3.1-1.376 3.1-3.1h1c0 2.276-1.824 4.1-4.1 4.1H1.3v-4c0-3.576 2.924-6.5 6.5-6.5h8.5c3.576 0 6.5 2.924 6.5 6.5v4.3h-1v-4.3c0-3.024-2.476-5.5-5.5-5.5zM12 2.3a3.8 3.8 0 1 0 0 7.6 3.8 3.8 0 0 0 0-7.6M7.2 6.1a4.8 4.8 0 1 1 9.6 0 4.8 4.8 0 0 1-9.6 0" clip-rule="evenodd"></path></svg>