<svg width="160" height="79" viewBox="0 0 160 79" fill="none" xmlns="http://www.w3.org/2000/svg">
<path d="M89.4551 40.9374C86.2805 41.0415 84.3079 41.6144 84.3079 43.7055C84.3079 45.0592 85.3872 46.5269 88.1271 46.5269C91.8005 46.5269 93.7614 44.5245 93.7614 41.2405L93.7616 40.8792C92.4737 40.8792 90.8855 40.8905 89.4551 40.9374ZM97.2629 45.2764C97.2629 46.2952 97.2924 47.301 97.3813 48.2067H94.1245C94.0376 47.4609 94.0059 46.7199 94.0059 46.0012C92.2451 48.1656 90.1508 48.7879 87.2454 48.7879C82.9362 48.7879 80.6289 46.5102 80.6289 43.8757C80.6289 40.0601 83.7671 38.7148 89.2149 38.59C90.7047 38.556 92.3781 38.5509 93.7616 38.5509L93.7614 38.1781C93.7614 35.6237 92.1234 34.5734 89.2851 34.5734C87.178 34.5734 85.6251 35.4454 85.465 36.9522H81.7864C82.1757 33.1953 86.1228 32.2451 89.5934 32.2451C93.7511 32.2451 97.2629 33.7244 97.2629 38.122L97.2629 45.2764Z" fill="#FFBC13"/>
<path d="M59.1746 39.0742C59.0388 35.799 56.6748 34.5734 54.1483 34.5734C51.4239 34.5734 49.2487 35.9521 48.8677 39.0742H59.1746ZM48.7922 41.4026C48.9812 44.5804 51.1726 46.4599 54.1858 46.4599C56.2735 46.4599 58.1305 45.6092 58.7523 43.7588H62.3634C61.661 47.5134 57.6715 48.7879 54.2376 48.7879C47.9938 48.7879 45.2266 45.3492 45.2266 40.712C45.2266 35.6071 48.0887 32.2451 54.2945 32.2451C59.2341 32.2451 62.8533 34.8302 62.8533 40.4724V41.4026H48.7922Z" fill="#F12C2D"/>
<path d="M71.8348 46.393C75.0887 46.393 77.3152 44.0509 77.3152 40.5166C77.3152 36.9825 75.0887 34.6401 71.8348 34.6401C68.5992 34.6401 66.3541 36.9825 66.3541 40.5166C66.3541 44.0509 68.5992 46.393 71.8348 46.393ZM62.8536 26.0879H66.3541L66.3537 34.8826C68.0695 32.8383 70.4332 32.2447 72.7599 32.2447C76.6609 32.2447 80.9938 34.8772 80.9938 40.561C80.9938 45.3205 77.5479 48.7875 72.6949 48.7875C70.1547 48.7875 67.7636 47.8763 66.289 46.0709C66.289 46.792 66.2487 47.5188 66.1699 48.2063H62.7344C62.7941 47.0947 62.8535 45.7107 62.8535 44.5909L62.8536 26.0879Z" fill="#0968F6"/>
<path d="M115.1 32.8271L104.275 54.0874H100.355L103.467 48.1839L95.3203 32.8271H99.4164L105.411 44.8255L111.389 32.8271H115.1Z" fill="#93C822"/>
</svg>
