<svg width="32" height="34" viewBox="0 0 32 34" fill="none" xmlns="http://www.w3.org/2000/svg">
<path d="M31.5181 16.2153H31.4734C27.6515 16.1916 24.5598 13.0101 24.5598 9.0892C24.5598 8.81664 24.344 8.59562 24.0779 8.59562C23.8118 8.59562 23.5961 8.81664 23.5961 9.0892C23.5961 13.0101 20.505 16.1909 16.683 16.2153H16.5909V0.702305C16.5909 0.429583 16.375 0.208496 16.1087 0.208496H16.1042C15.8405 0.208496 15.6266 0.427473 15.6266 0.697594C15.6266 9.26779 8.84415 16.2153 0.477473 16.2153C0.213781 16.2153 0 16.4343 0 16.7044V16.7137C0 16.9677 0.189057 17.1763 0.430874 17.2004C0.447678 17.2022 0.4647 17.2032 0.481969 17.2032H0.510157C8.86086 17.2213 15.6254 24.1601 15.6266 32.7183V32.7205C15.6267 32.9901 15.84 33.2085 16.1031 33.2085H16.1144C16.3775 33.2085 16.5909 32.99 16.5909 32.7205V17.2032H16.6823C20.5042 17.227 23.5959 20.4084 23.5959 24.3294C23.5959 24.6019 23.8116 24.8229 24.0778 24.8229C24.3439 24.8229 24.5596 24.6019 24.5596 24.3294C24.5596 20.4084 27.6507 17.2276 31.4726 17.2032H31.5181C31.7843 17.2032 32 16.9822 32 16.7096V16.7089C32 16.4364 31.7843 16.2153 31.5181 16.2153Z" fill="url(#paint0_linear_2191_14426)"/>
<defs>
<linearGradient id="paint0_linear_2191_14426" x1="2.1681" y1="2.4306" x2="38.6086" y2="38.0055" gradientUnits="userSpaceOnUse">
<stop stop-color="#FBDDD2"/>
<stop offset="0.542" stop-color="#FF4800"/>
</linearGradient>
</defs>
</svg>
