<svg width="511" height="511" viewBox="0 0 511 511" fill="none" xmlns="http://www.w3.org/2000/svg">
<path d="M495.822 247.662H495.129C435.879 247.302 387.949 199.152 387.949 139.812C387.949 135.686 384.605 132.342 380.479 132.342C376.353 132.342 373.009 135.686 373.009 139.812C373.009 199.152 325.089 247.292 265.839 247.662H264.41V12.8807C264.41 8.75324 261.064 5.40723 256.936 5.40723H256.865C252.777 5.40723 249.463 8.72132 249.463 12.8094C249.463 142.515 144.316 247.662 14.611 247.662C10.5231 247.662 7.20898 250.976 7.20898 255.063V255.203C7.20898 259.048 10.1398 262.206 13.8887 262.569C14.1491 262.596 14.4131 262.612 14.6808 262.612H15.1177C144.576 262.886 249.444 367.901 249.463 497.423V497.457C249.464 501.536 252.77 504.842 256.849 504.842H257.024C261.103 504.842 264.41 501.535 264.41 497.456V262.612H265.827C325.077 262.972 373.007 311.122 373.007 370.462C373.007 374.587 376.351 377.932 380.477 377.932C384.603 377.932 387.947 374.587 387.947 370.462C387.947 311.122 435.867 262.982 495.117 262.612H495.822C499.948 262.612 503.292 259.267 503.292 255.142V255.132C503.292 251.006 499.948 247.662 495.822 247.662Z" fill="url(#paint0_linear_1_717)"/>
<defs>
<linearGradient id="paint0_linear_1_717" x1="6.81445" y1="5.53223" x2="383.354" y2="381.571" gradientUnits="userSpaceOnUse">
<stop stop-color="#FBDDD2"/>
<stop offset="0.66" stop-color="#FF4800"/>
<stop offset="1" stop-color="#FB31A7"/>
</linearGradient>
</defs>
</svg>
