<svg width="16" height="17" viewBox="0 0 16 17" fill="none" xmlns="http://www.w3.org/2000/svg">
<path d="M15.5134 7.72168C11.6842 7.72168 8.48661 4.52617 8.48661 0.696202C8.48661 0.431287 8.26496 0.209595 7.99999 0.209595C7.7316 0.209595 7.5134 0.427817 7.5134 0.696199C7.5134 4.5262 4.31592 7.72168 0.486606 7.72168C0.217574 7.72168 0 7.9399 0 8.20829V8.20895C0 8.47797 0.217574 8.69554 0.486606 8.69554C4.31583 8.69554 7.5134 11.8911 7.5134 15.721C7.5134 15.9859 7.73502 16.2076 7.99999 16.2076C8.26838 16.2076 8.48661 15.9894 8.48661 15.721C8.48661 11.891 11.6841 8.69554 15.5134 8.69554C15.7824 8.69554 16 8.47731 16 8.20895V8.20829C16 7.93924 15.7824 7.72168 15.5134 7.72168Z" fill="url(#paint0_linear_2872_21)"/>
<defs>
<linearGradient id="paint0_linear_2872_21" x1="-5.45961e-07" y1="0.659299" x2="15.4777" y2="16.2795" gradientUnits="userSpaceOnUse">
<stop offset="0.2" stop-color="#FBDDD2"/>
<stop offset="0.5" stop-color="#FF4800"/>
<stop offset="0.8" stop-color="#FB31A7"/>
</linearGradient>
</defs>
</svg>
