<svg fill="none" height="40" viewbox="0 0 63 40" width="63" xmlns="http://www.w3.org/2000/svg">
<path d="M2.02868 3.52726C1.16792 3.65675 0.655826 4.02365 0.230896 4.81139C0.0347745 5.1675 0.0238789 5.66388 0.00208762 15.4945C-0.00880802 21.1598 0.0238789 26.0374 0.0783571 26.3395C0.318061 27.7315 0.481496 28.3466 0.917322 29.361C2.2139 32.4364 4.70901 34.7565 7.91233 35.8788C9.7319 36.5262 12.4231 36.6881 14.2427 36.2672C17.5986 35.4903 20.159 33.6127 22.044 30.5372C22.142 30.3753 22.1965 30.4185 22.4471 30.8502C23.7982 33.1163 26.0972 34.9831 28.6903 35.8896C29.5511 36.1917 29.7908 36.2457 31.0765 36.4291C31.7411 36.537 33.9093 36.5047 34.3996 36.3967C36.9383 35.814 37.7228 35.4687 39.7385 34.0875C40.109 33.8285 41.3402 32.5983 41.8087 32.0156C42.9963 30.5372 43.8789 28.4653 44.1621 26.5014C44.2711 25.6812 44.2929 24.0518 44.1948 23.5338C44.1512 23.2964 44.0859 22.8864 44.0423 22.6166C43.7481 20.6634 42.299 18.0628 40.6102 16.4873C39.161 15.1168 36.5352 13.714 35.304 13.6385C35.2495 13.6385 35.1079 13.5953 34.9771 13.5413C34.3887 13.3255 32.3077 13.2176 31.1309 13.3579C29.3768 13.5629 27.1431 14.4046 25.7376 15.3974C24.8333 16.0449 23.3515 17.5664 22.7522 18.4836C22.4253 18.98 22.1529 19.3793 22.142 19.3793C22.1202 19.3793 21.9459 19.1203 21.7498 18.8074C21.3249 18.1491 20.2789 16.8542 19.8322 16.4549C18.7862 15.4945 17.0865 14.4478 15.8335 13.9946C12.4122 12.7428 8.2392 13.2068 5.30827 15.1708C5.03588 15.3434 4.78528 15.4945 4.75259 15.4945C4.7199 15.4945 4.68722 13.196 4.68722 10.3904C4.67632 5.41569 4.67632 5.27541 4.44751 4.85456C4.16422 4.31501 4.02258 4.15314 3.61944 3.88337C3.14003 3.55963 2.59525 3.44093 2.02868 3.52726ZM12.9025 18.0304C13.687 18.1383 15.0054 18.6779 15.7245 19.1743C17.6421 20.5016 18.7208 22.5411 18.7317 24.8827C18.7535 28.5732 15.8879 31.6487 12.2161 31.8645C10.1786 31.9832 8.26099 31.3142 6.88814 29.9977C3.55407 26.8035 4.07706 21.4404 7.94501 19.0232C9.45951 18.0844 11.0612 17.7606 12.9025 18.0304ZM34.7265 18.311C35.925 18.6887 37.1018 19.4764 37.9407 20.4692C41.2094 24.3324 39.3354 30.2027 34.367 31.6595C33.7786 31.8321 33.3755 31.8753 32.4057 31.8537C31.7302 31.8321 31.1092 31.7998 31.022 31.7674C30.9348 31.735 30.7169 31.6703 30.5317 31.6271C28.407 31.066 26.4894 29.1991 25.7812 26.9978C25.4761 26.0481 25.3998 24.4834 25.6178 23.4907C26.2497 20.5555 28.8211 18.2678 31.7847 18.0088C32.1769 17.9764 32.5038 17.9441 32.5147 17.9225C32.6019 17.8577 34.1273 18.1275 34.7265 18.311Z" fill="#141415"></path>
<path d="M44.5217 13.6169C43.552 13.9082 42.8438 14.8686 42.8874 15.8074C42.9091 16.2715 43.1488 16.9945 43.3123 17.1132C43.3559 17.1455 44.4454 18.4513 45.7311 20.0267C47.0168 21.6022 48.4441 23.3396 48.9126 23.9007C49.6536 24.7856 49.7407 24.9367 49.61 25.0877C49.5337 25.1849 49.3703 25.3791 49.2395 25.5302C49.1197 25.6812 48.6076 26.2963 48.1064 26.8898C47.6161 27.4941 47.0604 28.174 46.8752 28.4006C46.7008 28.6272 46.3958 28.9833 46.2214 29.1991C45.644 29.8574 43.5084 32.4688 43.2469 32.8357C42.8765 33.3645 42.7784 34.1414 43.0181 34.7565C43.4212 35.814 44.3474 36.3752 45.6004 36.332C46.5047 36.2996 47.0604 35.9219 48.1282 34.6054C48.3352 34.3464 48.9018 33.6666 49.3812 33.0947C49.8606 32.5228 50.8412 31.3357 51.5603 30.4617C52.2685 29.5876 52.9005 28.8754 52.944 28.8754C52.9767 28.8754 53.3254 29.2531 53.6958 29.7063C54.0772 30.1703 54.415 30.5696 54.4476 30.602C54.4803 30.6343 55.0251 31.2818 55.6462 32.0587C56.2781 32.8249 56.812 33.4832 56.8447 33.5155C56.8774 33.5479 57.3023 34.0551 57.7926 34.6486C58.904 35.9975 59.5032 36.3536 60.6473 36.3428C61.094 36.332 61.8894 36.0083 62.2816 35.6737C62.9789 35.0802 63.2077 33.8069 62.7501 33.0407C62.6303 32.8465 61.1049 30.9473 59.3616 28.8214C57.6074 26.7064 56.2018 24.9151 56.2345 24.8395C56.2781 24.7424 58.4572 22.0555 59.8737 20.3613C62.14 17.6635 62.8373 16.7355 62.9353 16.2499C63.0988 15.4837 62.9571 14.9226 62.4559 14.3183C61.5625 13.2716 59.6993 13.1852 58.686 14.1456C58.4899 14.3399 57.1171 15.9585 55.6462 17.739C53.7176 20.0807 52.944 20.944 52.846 20.8684C52.7697 20.8145 52.2358 20.1778 51.6475 19.4548C51.0591 18.7318 50.5252 18.0844 50.4598 18.0196C50.4053 17.9549 49.6535 17.0484 48.8037 16.0233C47.9538 14.9873 47.0931 14.0377 46.897 13.9082C46.1561 13.4442 45.3934 13.3471 44.5217 13.6169Z" fill="#141415"></path>
</svg>