<svg xmlns="http://www.w3.org/2000/svg" fill="none" viewBox="0 0 24 24" class="icon-module-scss-module__leGPra__icon" width="24" height="24"><path fill="currentColor" fill-rule="evenodd" d="M12 1.3c5.976 0 10.8 4.824 10.8 10.8S17.976 22.9 12 22.9 1.2 18.076 1.2 12.1v-.01C1.305 6.13 6.016 1.3 12 1.3m-3.5 17c0 1.924 1.576 3.5 3.5 3.5s3.5-1.576 3.5-3.5v-5.8h-7zm-6.292-5.8a9.79 9.79 0 0 0 6.466 8.824A4.48 4.48 0 0 1 7.5 18.3v-5.8zM16.5 18.3a4.48 4.48 0 0 1-1.174 3.024 9.79 9.79 0 0 0 6.466-8.824H16.5zM8.668 2.883C5.102 4.18 2.532 7.508 2.228 11.5H7.5V5.9c0-1.158.443-2.218 1.168-3.017M12.5 2.4H12a3.51 3.51 0 0 0-3.5 3.5v5.6h7V5.8c0-1.754-1.31-3.22-3-3.464zm2.954.523A4.48 4.48 0 0 1 16.5 5.8v5.7h5.282a9.79 9.79 0 0 0-6.328-8.577" clip-rule="evenodd"></path></svg>