<svg preserveAspectRatio="none" width="100%" height="100%" overflow="visible" style="display: block;" viewBox="0 0 14.3333 14.3333" fill="none" xmlns="http://www.w3.org/2000/svg">
<path id="Vector" fill-rule="evenodd" clip-rule="evenodd" d="M5.81096 5.01623e-08H8.52237C9.43685 -3.04928e-06 10.1538 -5.47369e-06 10.73 0.0470746C11.3168 0.0950149 11.8015 0.194252 12.2403 0.417808C12.9616 0.785323 13.548 1.37175 13.9155 2.09304C14.1391 2.53179 14.2383 3.01653 14.2863 3.60329C14.3333 4.17952 14.3333 4.89647 14.3333 5.81095V8.52239C14.3333 9.43686 14.3333 10.1538 14.2863 10.73C14.2383 11.3168 14.1391 11.8015 13.9155 12.2403C13.548 12.9616 12.9616 13.548 12.2403 13.9155C11.8015 14.1391 11.3168 14.2383 10.73 14.2863C10.1538 14.3333 9.43686 14.3333 8.52239 14.3333H5.81095C4.89647 14.3333 4.17952 14.3333 3.60329 14.2863C3.01653 14.2383 2.53179 14.1391 2.09304 13.9155C1.37175 13.548 0.785323 12.9616 0.417808 12.2403C0.194252 11.8015 0.0950149 11.3168 0.0470746 10.73C-5.47369e-06 10.1538 -3.04928e-06 9.43685 5.01623e-08 8.52237V5.81096C-3.04928e-06 4.89648 -5.47369e-06 4.17952 0.0470746 3.60329C0.0950149 3.01653 0.194252 2.53179 0.417808 2.09304C0.785323 1.37175 1.37175 0.785323 2.09304 0.417808C2.53179 0.194252 3.01653 0.0950149 3.60329 0.0470746C4.17952 -5.47369e-06 4.89648 -3.04928e-06 5.81096 5.01623e-08ZM3.68472 1.04375C3.1598 1.08664 2.82131 1.16906 2.54703 1.30881C2.0139 1.58046 1.58046 2.0139 1.30881 2.54703C1.16906 2.82131 1.08664 3.1598 1.04375 3.68472C1.00039 4.21548 1 4.89166 1 5.83333V8.5C1 9.44167 1.00039 10.1179 1.04375 10.6486C1.08664 11.1735 1.16906 11.512 1.30881 11.7863C1.58046 12.3194 2.0139 12.7529 2.54703 13.0245C2.82131 13.1643 3.1598 13.2467 3.68472 13.2896C4.21548 13.3329 4.89166 13.3333 5.83333 13.3333H8.5C9.44167 13.3333 10.1179 13.3329 10.6486 13.2896C11.1735 13.2467 11.512 13.1643 11.7863 13.0245C12.3194 12.7529 12.7529 12.3194 13.0245 11.7863C13.1643 11.512 13.2467 11.1735 13.2896 10.6486C13.3329 10.1179 13.3333 9.44167 13.3333 8.5V5.83333C13.3333 4.89166 13.3329 4.21548 13.2896 3.68472C13.2467 3.1598 13.1643 2.82131 13.0245 2.54703C12.7529 2.0139 12.3194 1.58046 11.7863 1.30881C11.512 1.16906 11.1735 1.08664 10.6486 1.04375C10.1179 1.00039 9.44167 1 8.5 1H5.83333C4.89166 1 4.21548 1.00039 3.68472 1.04375ZM10 3.16667C10 2.70643 10.3731 2.33333 10.8333 2.33333C11.2936 2.33333 11.6667 2.70643 11.6667 3.16667C11.6667 3.6269 11.2936 4 10.8333 4C10.3731 4 10 3.6269 10 3.16667ZM7.16667 5C5.97005 5 5 5.97005 5 7.16667C5 8.36328 5.97005 9.33333 7.16667 9.33333C8.36328 9.33333 9.33333 8.36328 9.33333 7.16667C9.33333 5.97005 8.36328 5 7.16667 5ZM4 7.16667C4 5.41776 5.41776 4 7.16667 4C8.91557 4 10.3333 5.41776 10.3333 7.16667C10.3333 8.91557 8.91557 10.3333 7.16667 10.3333C5.41776 10.3333 4 8.91557 4 7.16667Z" fill="var(--fill-0, #141415)"/>
</svg>
