<?xml version="1.0" encoding="UTF-8"?>
<svg id="Current" xmlns="http://www.w3.org/2000/svg" viewBox="0 0 49.39 50.95">
  <defs>
    <style>
      .cls-1 {
        fill: #ff4800;
      }
    </style>
  </defs>
  <path class="cls-1" d="M47.85,1.67c-1.17-1.21-2.8-1.81-4.47-1.65l-25.66,2.52c-1.74.17-3.18,1.3-3.77,2.94s-.19,3.43,1.05,4.66l3.47,3.47L.66,31.42c-.88.88-.88,2.3,0,3.18l2.65,2.65c.88.88,2.3.88,3.18,0,.88-.88.88-2.3,0-3.18l-1.05-1.05L23.23,15.2c.42-.42.66-.99.66-1.59s-.24-1.17-.66-1.59l-5.08-5,25.66-2.52c.41-.04.68.17.8.29.12.13.32.4.27.81l-3.26,24.81-5.33-5.33c-.42-.42-.99-.66-1.59-.66h0c-.6,0-1.17.24-1.59.67l-13.68,13.86c-2.2-.81-4.76-.35-6.53,1.42-2.42,2.42-2.42,6.34,0,8.76s6.34,2.42,8.76,0c1.94-1.94,2.3-4.84,1.12-7.17l11.94-12.1,3.73,3.73c1.21,1.21,2.97,1.62,4.59,1.07,1.62-.55,2.77-1.94,3-3.64l3.31-24.82c.22-1.67-.32-3.32-1.49-4.53Z"/>
</svg>