<svg width="64" height="64" viewBox="0 0 64 64" fill="none" xmlns="http://www.w3.org/2000/svg">
<path d="M64 0H0V64H64V0Z" fill="#FF4F00"/>
<path d="M64 32C64 14.3269 49.6731 0 32 0C14.3269 0 0 14.3269 0 32C0 49.6731 14.3269 64 32 64C49.6731 64 64 49.6731 64 32Z" fill="#FF4F00"/>
<path d="M9.00387 35.258L8.99473 35.229L14.7648 29.9466V27.4014H5.50768V29.9466H11.037L11.0461 29.971L5.3324 35.258V37.8031H14.8578V35.258H9.00387Z" fill="#FFFDF9"/>
<path d="M20.5393 27.1597C19.4715 27.1597 18.6012 27.3206 17.9286 27.6427C17.302 27.9235 16.7742 28.3859 16.4137 28.9702C16.0688 29.5584 15.8522 30.2128 15.7781 30.8905L18.587 31.2853C18.6886 30.6869 18.8918 30.2627 19.1966 30.0126C19.5432 29.7513 19.97 29.6192 20.4036 29.6393C20.9737 29.6393 21.3872 29.7917 21.6443 30.0965C21.8988 30.4013 22.0283 30.8235 22.0283 31.3798V31.6571H19.3276C17.9529 31.6571 16.9654 31.9619 16.3649 32.5717C15.7644 33.1813 15.4647 33.9859 15.4657 34.9857C15.4657 36.0099 15.7654 36.772 16.3649 37.2718C16.9644 37.7717 17.7182 38.0201 18.6267 38.0171C19.7534 38.0171 20.6201 37.6294 21.2267 36.8542C21.5849 36.3777 21.8408 35.8325 21.978 35.2525H22.0801L22.4673 37.7976H25.0124V31.3523C25.0124 30.0203 24.6614 28.9885 23.9593 28.2569C23.2572 27.5254 22.1172 27.1597 20.5393 27.1597ZM21.4294 35.1046C21.0254 35.4414 20.4966 35.6091 19.8382 35.6091C19.2956 35.6091 18.9187 35.5141 18.7073 35.324C18.6044 35.2342 18.5225 35.1227 18.4675 34.9976C18.4124 34.8725 18.3856 34.7368 18.3889 34.6001C18.3828 34.4712 18.4032 34.3425 18.4484 34.2217C18.4937 34.1009 18.5632 33.9907 18.6526 33.8976C18.7491 33.807 18.863 33.7369 18.9875 33.6915C19.112 33.6462 19.2443 33.6265 19.3764 33.6339H22.0329V33.8091C22.0382 34.0569 21.9867 34.3025 21.882 34.5272C21.7774 34.7518 21.6225 34.9493 21.4294 35.1046Z" fill="#FFFDF9"/>
<path d="M40.3977 27.4014H37.3906V37.8047H40.3977V27.4014Z" fill="#FFFDF9"/>
<path d="M58.1631 27.4014C57.3138 27.4014 56.6442 27.7012 56.1545 28.3006C55.8029 28.7314 55.5357 29.3679 55.3529 30.2103H55.2644L54.8713 27.4014H52.3031V37.8031H55.3101V32.4689C55.3101 31.7962 55.4676 31.2807 55.7826 30.922C56.0975 30.5633 56.6788 30.3841 57.5261 30.3841H58.6676V27.4014H58.1631Z" fill="#FFFDF9"/>
<path d="M49.3091 27.7406C48.607 27.323 47.7216 27.1149 46.6528 27.1158C44.9702 27.1158 43.6534 27.5949 42.7024 28.553C41.7513 29.5112 41.2758 30.832 41.2758 32.5155C41.2517 33.5334 41.4739 34.5421 41.9235 35.4555C42.3352 36.2694 42.9763 36.945 43.7677 37.3987C44.5643 37.8589 45.5117 38.0896 46.6101 38.0906C47.5601 38.0906 48.3536 37.9443 48.9907 37.6517C49.5896 37.3888 50.1112 36.977 50.5056 36.4552C50.8811 35.9432 51.1601 35.3667 51.3286 34.7544L48.7376 34.029C48.6286 34.4272 48.4187 34.7904 48.128 35.0837C47.8353 35.3762 47.3451 35.5226 46.6573 35.5226C45.8393 35.5226 45.2297 35.2883 44.8285 34.82C44.5373 34.4816 44.3544 33.9986 44.2737 33.3722H51.3681C51.3971 33.0795 51.4123 32.8341 51.4123 32.636V31.9883C51.4296 31.1181 51.2497 30.2554 50.8865 29.4643C50.5465 28.7438 49.9968 28.143 49.3091 27.7406ZM46.5659 29.5955C47.7851 29.5955 48.4765 30.1954 48.6401 31.3954H44.327C44.3955 30.995 44.5614 30.6176 44.8101 30.2965C45.2054 29.8282 45.7905 29.5944 46.5659 29.5955Z" fill="#FFFDF9"/>
<path d="M38.93 23.209C38.7037 23.2012 38.4783 23.2391 38.2669 23.3202C38.0556 23.4015 37.8628 23.5242 37.6999 23.6815C37.5392 23.8401 37.4133 24.0305 37.3303 24.2404C37.2471 24.4503 37.2084 24.6753 37.2167 24.9009C37.2087 25.1279 37.2474 25.3543 37.3306 25.5657C37.414 25.7772 37.5399 25.9692 37.7005 26.1298C37.8613 26.2905 38.0535 26.4162 38.265 26.4993C38.4765 26.5823 38.7029 26.6209 38.93 26.6125C39.1556 26.621 39.3805 26.5825 39.5904 26.4993C39.8005 26.4161 39.9908 26.2901 40.1493 26.1293C40.3066 25.9669 40.4295 25.7743 40.5104 25.5633C40.5912 25.3521 40.6287 25.1268 40.6204 24.9009C40.6308 24.6762 40.5941 24.4519 40.513 24.2421C40.4319 24.0325 40.3079 23.842 40.1488 23.6829C39.99 23.5239 39.7996 23.3997 39.59 23.3185C39.3804 23.237 39.1546 23.1988 38.93 23.209Z" fill="#FFFDF9"/>
<path d="M32.7179 27.1158C31.6937 27.1158 30.8709 27.4374 30.2489 28.0805C29.7888 28.5571 29.4509 29.2683 29.2355 30.2142H29.1395L28.7462 27.4054H26.1782V40.7928H29.1853V35.2787H29.2949C29.3867 35.6464 29.5153 36.0038 29.679 36.3456C29.9334 36.9022 30.3505 37.3688 30.8753 37.6837C31.4197 37.9806 32.0326 38.1283 32.6525 38.1118C33.9113 38.1118 34.8699 37.6216 35.5283 36.6413C36.1867 35.6608 36.516 34.2926 36.516 32.537C36.516 30.8411 36.1974 29.5136 35.5603 28.5546C34.9233 27.5954 33.9758 27.1158 32.7179 27.1158ZM33.0229 34.6538C32.6723 35.1618 32.1237 35.4158 31.3768 35.4158C31.0689 35.4301 30.7621 35.3707 30.4816 35.2427C30.2013 35.1147 29.9553 34.9218 29.7643 34.6797C29.3752 34.191 29.1811 33.5219 29.1822 32.6725V32.4744C29.1822 31.6118 29.3761 30.9514 29.7643 30.4931C30.1525 30.0349 30.6899 29.8083 31.3768 29.8134C32.1368 29.8134 32.6889 30.0547 33.0334 30.5373C33.3779 31.02 33.5501 31.6931 33.5501 32.5566C33.5521 33.4498 33.3774 34.1488 33.0259 34.6538H33.0229Z" fill="#FFFDF9"/>
</svg>
