<svg aria-hidden="true" fill="none" height="26" viewbox="0 0 26 26" width="26" xmlns="http://www.w3.org/2000/svg"> <g clip-path="url(#clip0_2400_8299)"> <path d="M9.5887 5.54748C10.9401 5.30303 12.1857 4.65014 13.1601 3.6755C14.1346 2.70087 14.7918 1.4506 15.0444 0.0907181C15.0486 0.0656366 15.0615 0.0428558 15.0807 0.0264246C15.1 0.00999348 15.1244 0.000976562 15.1497 0.000976563C15.1749 0.000976562 15.1993 0.00999348 15.2186 0.0264246C15.2378 0.0428558 15.2507 0.0656366 15.2548 0.0907181C15.5076 1.45059 16.1649 2.70083 17.1393 3.67546C18.1138 4.65008 19.3594 5.30298 20.7108 5.54748C20.7357 5.55152 20.7583 5.56435 20.7747 5.58367C20.791 5.60299 20.8 5.62754 20.8 5.65292C20.8 5.6783 20.791 5.70285 20.7747 5.72217C20.7583 5.7415 20.7357 5.75432 20.7108 5.75836C19.3594 6.00283 18.1137 6.65578 17.1392 7.63051C16.1647 8.60523 15.5075 9.8556 15.2548 11.2156C15.2507 11.2407 15.2378 11.2634 15.2186 11.2799C15.1993 11.2963 15.1749 11.3053 15.1497 11.3053C15.1244 11.3053 15.1 11.2963 15.0807 11.2799C15.0615 11.2634 15.0486 11.2407 15.0444 11.2156C14.7917 9.85581 14.1345 8.60568 13.16 7.63117C12.1856 6.65666 10.94 6.00388 9.5887 5.7595C9.56301 5.75632 9.53937 5.74379 9.52222 5.72427C9.50507 5.70474 9.49561 5.67957 9.49561 5.65349C9.49561 5.62742 9.50507 5.60224 9.52222 5.58272C9.53937 5.56319 9.56301 5.55066 9.5887 5.54748Z" fill="#BF2434"></path> <path d="M0.090137 11.8773C1.44202 11.6327 2.68807 10.9798 3.6628 10.0051C4.63754 9.0304 5.29485 7.78013 5.54746 6.4203C5.55162 6.39522 5.56449 6.37244 5.58375 6.35601C5.60302 6.33958 5.62745 6.33057 5.6527 6.33057C5.67795 6.33057 5.70238 6.33958 5.72165 6.35601C5.74092 6.37244 5.75378 6.39522 5.75794 6.4203C6.01067 7.78023 6.66813 9.03056 7.64303 10.0052C8.61793 10.9799 9.86414 11.6328 11.2162 11.8773C11.241 11.8813 11.2637 11.8942 11.28 11.9135C11.2964 11.9328 11.3053 11.9574 11.3053 11.9827C11.3053 12.0081 11.2964 12.0327 11.28 12.052C11.2637 12.0713 11.241 12.0841 11.2162 12.0882C9.86414 12.3326 8.61793 12.9856 7.64303 13.9602C6.66813 14.9349 6.01067 16.1852 5.75794 17.5452C5.75378 17.5703 5.74092 17.593 5.72165 17.6095C5.70238 17.6259 5.67795 17.6349 5.6527 17.6349C5.62745 17.6349 5.60302 17.6259 5.58375 17.6095C5.56449 17.593 5.55162 17.5703 5.54746 17.5452C5.29485 16.1853 4.63754 14.9351 3.6628 13.9604C2.68807 12.9857 1.44202 12.3327 0.090137 12.0882C0.0652611 12.0841 0.0426259 12.0713 0.0262877 12.052C0.00994964 12.0327 0.000976563 12.0081 0.000976562 11.9827C0.000976562 11.9574 0.00994964 11.9328 0.0262877 11.9135C0.0426259 11.8942 0.0652611 11.8813 0.090137 11.8773Z" fill="#FF5C35"></path> <path d="M9.13065 20.2429C10.4829 19.9984 11.7293 19.3455 12.7044 18.3708C13.6794 17.3962 14.3369 16.1459 14.5895 14.786C14.5935 14.7608 14.6063 14.7379 14.6256 14.7214C14.6448 14.7049 14.6693 14.6958 14.6946 14.6958C14.72 14.6958 14.7444 14.7049 14.7637 14.7214C14.783 14.7379 14.7958 14.7608 14.7998 14.786C15.0524 16.1459 15.7099 17.3962 16.6849 18.3708C17.6599 19.3455 18.9064 19.9984 20.2586 20.2429C20.2835 20.2469 20.3061 20.2598 20.3225 20.2791C20.3388 20.2984 20.3478 20.3229 20.3478 20.3483C20.3478 20.3737 20.3388 20.3982 20.3225 20.4176C20.3061 20.4369 20.2835 20.4497 20.2586 20.4537C18.9065 20.6982 17.6601 21.351 16.6851 22.3255C15.7101 23.3001 15.0525 24.5502 14.7998 25.9099C14.7958 25.9351 14.783 25.958 14.7637 25.9745C14.7444 25.9911 14.72 26.0001 14.6946 26.0001C14.6693 26.0001 14.6448 25.9911 14.6256 25.9745C14.6063 25.958 14.5935 25.9351 14.5895 25.9099C14.3369 24.5501 13.6794 23.2998 12.7044 22.3251C11.7293 21.3505 10.4829 20.6975 9.13065 20.4531C9.10619 20.4486 9.08406 20.4356 9.06812 20.4164C9.05219 20.3972 9.04346 20.373 9.04346 20.348C9.04346 20.3229 9.05219 20.2987 9.06812 20.2795C9.08406 20.2603 9.10619 20.2473 9.13065 20.2429Z" fill="#FFA766"></path> </g> <defs> <clippath id="clip0_2400_8299"> <rect fill="white" height="26" width="20.8"></rect> </clippath> </defs> </svg>