<svg width="64" height="64" viewBox="0 0 64 64" fill="none" xmlns="http://www.w3.org/2000/svg">
<path d="M41.7069 23.14C42.0641 23.0976 42.4071 23.0952 42.7219 23.14C42.9046 22.7227 42.9352 22.0024 42.7714 21.2185C42.5285 20.0527 42.1985 19.3477 41.5171 19.4573C40.8357 19.567 40.811 20.411 41.055 21.5769C41.1918 22.2323 41.4358 22.7934 41.7069 23.14Z" fill="black"/>
<path d="M35.8613 24.0619C36.3481 24.2753 36.6476 24.4179 36.7654 24.2941C36.8409 24.2163 36.8185 24.069 36.7018 23.8792C36.4613 23.4866 35.9662 23.0882 35.4416 22.8654C34.3689 22.4033 33.0887 22.5565 32.1008 23.2662C31.7743 23.5055 31.4654 23.8356 31.5102 24.0372C31.5244 24.102 31.5727 24.1515 31.6882 24.1668C31.957 24.1975 32.8965 23.7224 33.9775 23.6564C34.7414 23.6104 35.3732 23.8485 35.8613 24.0619Z" fill="black"/>
<path d="M34.8802 24.6218C34.2459 24.722 33.8958 24.9306 33.6707 25.1263C33.4785 25.2937 33.3606 25.4788 33.3618 25.6097C33.3618 25.6721 33.3889 25.7075 33.4102 25.7252C33.4396 25.7511 33.4738 25.7653 33.5151 25.7653C33.6589 25.7653 33.9795 25.6368 33.9795 25.6368C34.8625 25.3208 35.4448 25.3586 36.0224 25.4246C36.3419 25.4599 36.4916 25.48 36.5624 25.3703C36.5836 25.3385 36.6083 25.2713 36.5447 25.1676C36.395 24.9259 35.7537 24.5181 34.8802 24.6218Z" fill="black"/>
<path d="M39.7323 26.6741C40.1626 26.8863 40.6377 26.8026 40.7921 26.4891C40.9465 26.1743 40.7226 25.7487 40.2911 25.5366C39.8597 25.3244 39.3858 25.4081 39.2313 25.7216C39.0781 26.0364 39.3021 26.4631 39.7323 26.6741Z" fill="black"/>
<path d="M42.5025 24.254C42.1524 24.2481 41.8624 24.6324 41.8542 25.1122C41.8459 25.5919 42.123 25.9857 42.4731 25.9916C42.8232 25.9975 43.1132 25.6132 43.1214 25.1334C43.1297 24.6536 42.8527 24.2599 42.5025 24.254Z" fill="black"/>
<path d="M18.991 32.9102C18.9038 32.8006 18.7611 32.8348 18.622 32.8666C18.5254 32.889 18.4157 32.915 18.2955 32.9126C18.0385 32.9079 17.8204 32.7971 17.6978 32.6096C17.5387 32.3644 17.5481 32.0002 17.7238 31.5817C17.7473 31.5251 17.7756 31.4626 17.8063 31.3943C18.0868 30.7648 18.5572 29.7097 18.0291 28.7053C17.6318 27.9497 16.9846 27.4782 16.2054 27.3792C15.458 27.2848 14.6883 27.5619 14.1979 28.103C13.4234 28.9576 13.302 30.1199 13.4517 30.5302C13.5071 30.6811 13.592 30.7223 13.6544 30.7306C13.7865 30.7483 13.981 30.6528 14.1036 30.3239C14.1118 30.3003 14.1236 30.2638 14.1389 30.2166C14.1932 30.0433 14.2945 29.7203 14.4608 29.461C14.6612 29.1486 14.9724 28.9329 15.3378 28.8551C15.7103 28.7749 16.0911 28.8468 16.4094 29.0555C16.9516 29.4103 17.1603 30.0751 16.9292 30.7094C16.809 31.0371 16.6145 31.6642 16.6581 32.1794C16.7453 33.2226 17.3866 33.6411 17.9631 33.6859C18.523 33.7071 18.9156 33.3924 19.0146 33.1625C19.0712 33.0281 19.0228 32.9456 18.991 32.9102Z" fill="black"/>
<path d="M51.3355 31.0016C51.3143 30.9262 51.1752 30.4181 50.9842 29.8063C50.7933 29.1945 50.5952 28.763 50.5952 28.763C51.3615 27.616 51.3744 26.5904 51.273 26.0104C51.1646 25.2902 50.8652 24.6772 50.2604 24.043C49.6557 23.4087 48.4215 22.7592 46.685 22.2724C46.487 22.2169 45.8316 22.0366 45.7738 22.0189C45.7691 21.9812 45.7255 19.8711 45.6866 18.9657C45.6583 18.3115 45.6017 17.2882 45.2846 16.2815C44.9062 14.9188 44.2484 13.7258 43.4256 12.9631C45.6948 10.6113 47.1106 8.02027 47.1071 5.79817C47.1 1.52372 41.8518 0.230539 35.3824 2.90885C35.3753 2.9112 34.022 3.4853 34.0114 3.49119C34.0055 3.4853 31.5335 1.06044 31.497 1.02743C24.1222 -5.40546 1.06303 20.2259 8.43545 26.4501L10.0469 27.8152C9.62843 28.8974 9.46457 30.1387 9.59895 31.472C9.77106 33.1848 10.6552 34.8281 12.0875 36.0965C13.4467 37.3013 15.235 38.064 16.9702 38.0628C19.8395 44.6737 26.395 48.7301 34.081 48.9588C42.3257 49.204 49.2466 45.335 52.1466 38.3858C52.3364 37.8978 53.1415 35.7004 53.1415 33.7601C53.1403 31.8103 52.0381 31.0016 51.3355 31.0016ZM17.6032 36.2062C17.3533 36.2486 17.0975 36.2663 16.8393 36.2592C14.3497 36.192 11.6596 33.951 11.392 31.2916C11.0961 28.3528 12.5979 26.0918 15.2562 25.5554C15.5745 25.4917 15.9576 25.454 16.3725 25.4764C17.8626 25.5578 20.0576 26.7024 20.5586 29.9466C21.003 32.8205 20.298 35.7464 17.6032 36.2062ZM14.8224 23.7978C13.1673 24.1196 11.7091 25.0579 10.8167 26.3535C10.2839 25.909 9.2901 25.0485 9.11445 24.7125C7.69042 22.0083 10.6682 16.7507 12.7488 13.7812C17.8909 6.44417 25.9435 0.890685 29.6721 1.89859C30.278 2.0707 32.2856 4.39771 32.2856 4.39771C32.2856 4.39771 28.5593 6.46538 25.103 9.34763C20.4466 12.9325 16.9289 18.1429 14.8224 23.7978ZM40.9606 35.1075C41.0148 35.0851 41.0526 35.0226 41.0455 34.9613C41.0372 34.8859 40.97 34.8305 40.8946 34.8387C40.8946 34.8387 36.9938 35.4163 33.3088 34.0666C33.7096 32.7616 34.7776 33.2331 36.3903 33.3628C39.2985 33.5361 41.9037 33.1117 43.8299 32.5588C45.4991 32.0802 47.6906 31.136 49.394 29.7921C49.9681 31.0535 50.1708 32.4421 50.1708 32.4421C50.1708 32.4421 50.6153 32.3632 50.9866 32.5907C51.3379 32.8064 51.5949 33.2555 51.4192 34.4167C51.0609 36.5857 50.139 38.3457 48.59 39.9655C47.647 40.9804 46.5011 41.8634 45.1915 42.5058C44.4959 42.8713 43.7545 43.1872 42.9717 43.443C37.1306 45.3504 31.1504 43.2532 29.223 38.7489C29.0686 38.4106 28.9389 38.0557 28.8363 37.6856C28.0147 34.7173 28.7125 31.156 30.8922 28.9151V28.9139C31.0266 28.7713 31.1633 28.6027 31.1633 28.3917C31.1633 28.2148 31.0514 28.0286 30.9535 27.8954C30.1908 26.7896 27.549 24.9047 28.0795 21.2562C28.4603 18.6357 30.7519 16.7896 32.8892 16.8992C33.0695 16.9087 33.2499 16.9193 33.4302 16.9299C34.3568 16.9841 35.1643 17.1032 35.9258 17.135C37.2013 17.1904 38.3483 17.0041 39.7075 15.8725C40.1661 15.4905 40.5339 15.1593 41.1551 15.0544C41.22 15.0437 41.3826 14.9848 41.708 15.0001C42.0393 15.0178 42.3552 15.1086 42.6393 15.2972C43.7285 16.0222 43.8829 17.7775 43.9395 19.0624C43.9714 19.7956 44.0598 21.5698 44.0904 22.0778C44.16 23.2425 44.4653 23.4064 45.0854 23.6103C45.4331 23.7247 45.7573 23.8107 46.2335 23.9439C47.6753 24.3483 48.5299 24.7597 49.0698 25.2866C49.3916 25.6167 49.5402 25.9668 49.5873 26.3004C49.7571 27.5406 48.6242 29.073 45.6253 30.4652C42.3469 31.9871 38.3684 32.3726 35.6205 32.0661C35.4095 32.0425 34.6598 31.9576 34.6574 31.9576C32.4589 31.6618 31.2046 34.5027 32.5249 36.449C33.3748 37.7033 35.6912 38.5202 38.0088 38.5202C43.3218 38.5214 47.4065 36.2521 48.9248 34.2929C48.9708 34.234 48.9743 34.2281 49.0462 34.1196C49.1205 34.0065 49.0592 33.9452 48.9661 34.0088C47.7248 34.8576 42.2125 38.229 36.3148 37.2152C36.3148 37.2152 35.5981 37.0974 34.9439 36.8427C34.424 36.6411 33.3359 36.1401 33.2039 35.0238C37.964 36.4985 40.9606 35.1075 40.9606 35.1075ZM33.422 34.2175C33.4232 34.2198 33.4232 34.2198 33.4232 34.221C33.4232 34.2198 33.4232 34.2186 33.422 34.2175ZM24.3179 13.7517C26.1462 11.6393 28.3966 9.80266 30.4112 8.77236C30.4808 8.73699 30.5551 8.81244 30.5173 8.88081C30.357 9.1708 30.0493 9.79087 29.9515 10.2624C29.9362 10.3355 30.0163 10.3909 30.0776 10.3485C31.3319 9.49381 33.5128 8.57785 35.4272 8.45997C35.5097 8.45525 35.5486 8.56017 35.4838 8.61086C35.1926 8.83366 34.8743 9.14251 34.6421 9.4549C34.602 9.50795 34.6397 9.58458 34.7057 9.58458C36.0496 9.59401 37.944 10.0644 39.1782 10.7563C39.2619 10.8035 39.2018 10.965 39.1087 10.9438C37.2402 10.5159 34.1835 10.1905 31.0066 10.965C28.1715 11.657 26.0071 12.725 24.4287 13.8732C24.3497 13.9321 24.2542 13.826 24.3179 13.7517Z" fill="black"/>
<path d="M13.7698 56.6154C12.8621 56.6154 12.413 57.3297 12.2079 57.7907C12.0923 58.0476 12.0605 58.2516 11.9674 58.2516C11.8354 58.2516 11.9297 58.0748 11.8224 57.6834C11.6809 57.167 11.2542 56.6165 10.3477 56.6165C9.394 56.6165 8.98613 57.4217 8.7928 57.8649C8.66077 58.1679 8.66077 58.2516 8.55821 58.2516C8.41086 58.2516 8.53345 58.0111 8.59947 57.7282C8.73032 57.1718 8.6313 56.7462 8.6313 56.7462H7.11768V62.4294H9.18063C9.18063 62.4294 9.18063 60.054 9.18063 59.6013C9.18063 59.0438 9.41404 58.3365 9.81367 58.3365C10.2758 58.3365 10.3677 58.6913 10.3677 59.3479C10.3677 59.9432 10.3677 62.4305 10.3677 62.4305H12.4389C12.4389 62.4305 12.4389 60.041 12.4389 59.6013C12.4389 59.1051 12.6417 58.3365 13.0755 58.3365C13.5435 58.3365 13.6272 58.8351 13.6272 59.3479C13.6272 59.8607 13.6272 62.4294 13.6272 62.4294H15.6607C15.6607 62.4294 15.6607 60.1778 15.6607 59.0874C15.6619 57.6044 15.1385 56.6154 13.7698 56.6154Z" fill="#010101"/>
<path d="M48.7846 56.6154C47.8769 56.6154 47.4277 57.3297 47.2226 57.7907C47.1071 58.0476 47.0753 58.2516 46.9821 58.2516C46.8501 58.2516 46.9385 58.0276 46.8371 57.6834C46.6862 57.1706 46.3102 56.6165 45.3624 56.6165C44.4087 56.6165 44.0009 57.4217 43.8075 57.8649C43.6755 58.1679 43.6755 58.2516 43.5729 58.2516C43.4256 58.2516 43.5482 58.0111 43.6142 57.7282C43.7451 57.1718 43.646 56.7462 43.646 56.7462H42.1348V62.4294H44.1977C44.1977 62.4294 44.1977 60.054 44.1977 59.6013C44.1977 59.0438 44.4311 58.3365 44.8308 58.3365C45.2929 58.3365 45.3848 58.6913 45.3848 59.3479C45.3848 59.9432 45.3848 62.4305 45.3848 62.4305H47.456C47.456 62.4305 47.456 60.041 47.456 59.6013C47.456 59.1051 47.6588 58.3365 48.0926 58.3365C48.5606 58.3365 48.6443 58.8351 48.6443 59.3479C48.6443 59.8607 48.6443 62.4294 48.6443 62.4294H50.6778C50.6778 62.4294 50.6778 60.1778 50.6778 59.0874C50.6766 57.6044 50.1544 56.6154 48.7846 56.6154Z" fill="#010101"/>
<path d="M19.1844 56.6166C17.6036 56.6166 16.4707 57.1977 16.4707 57.1977V58.9059C16.4707 58.9059 17.7227 58.1856 18.7388 58.1856C19.5498 58.1856 19.6489 58.623 19.6123 58.986C19.6123 58.986 19.3789 58.9247 18.6645 58.9247C16.9835 58.9247 16.1348 59.6886 16.1348 60.9146C16.1348 62.0769 17.0884 62.5626 17.8924 62.5626C19.0653 62.5626 19.5805 61.7751 19.7396 61.4003C19.8493 61.1409 19.8693 60.9665 19.9683 60.9665C20.0803 60.9665 20.0426 61.0914 20.0379 61.3496C20.0285 61.8023 20.0497 62.1429 20.1216 62.4318H21.6765V59.6344C21.6741 57.8885 21.0564 56.6166 19.1844 56.6166ZM18.6822 61.102C18.1895 61.2164 17.9337 61.0643 17.9337 60.7366C17.9337 60.2886 18.3969 60.1095 19.0583 60.1095C19.3494 60.1095 19.6241 60.1342 19.6241 60.1342C19.6229 60.3264 19.2068 60.9806 18.6822 61.102Z" fill="#010101"/>
<path d="M27.1352 55.0262H25.0723V62.4305H27.1352V55.0262Z" fill="#010101"/>
<path d="M29.4057 59.5896C29.4057 59.0792 29.8807 58.6135 30.7519 58.6135C31.702 58.6135 32.4659 59.0709 32.6368 59.1746V57.1977C32.6368 57.1977 32.0333 56.6166 30.5503 56.6166C28.9872 56.6166 27.6846 57.5314 27.6846 59.5C27.6846 61.4687 28.8658 62.5603 30.5456 62.5603C31.8576 62.5603 32.6392 61.84 32.6392 61.84V59.9621C32.3916 60.1 31.702 60.5786 30.7601 60.5786C29.764 60.581 29.4057 60.1224 29.4057 59.5896Z" fill="#010101"/>
<path d="M36.8158 56.6166C35.6217 56.6166 35.1678 57.7482 35.0759 57.9451C34.9839 58.142 34.9391 58.2551 34.8637 58.2516C34.7328 58.2469 34.8248 58.0099 34.8755 57.8567C34.971 57.5667 35.1749 56.8064 35.1749 55.8715C35.1749 55.2373 35.0888 55.0251 35.0888 55.0251H33.3076V62.4294H35.3706C35.3706 62.4294 35.3706 60.0623 35.3706 59.6014C35.3706 59.1405 35.5545 58.3365 36.0743 58.3365C36.5046 58.3365 36.6402 58.6559 36.6402 59.2972C36.6402 59.9397 36.6402 62.4294 36.6402 62.4294H38.7031C38.7031 62.4294 38.7031 60.6977 38.7031 59.421C38.702 57.964 38.4603 56.6166 36.8158 56.6166Z" fill="#010101"/>
<path d="M39.373 56.7544V62.4305H41.436V56.7544C41.436 56.7544 41.0894 56.9572 40.4069 56.9572C39.7243 56.9572 39.373 56.7544 39.373 56.7544Z" fill="#010101"/>
<path d="M40.3983 56.6165C41.0956 56.6165 41.6608 56.2476 41.6608 55.7925C41.6608 55.3374 41.0956 54.9685 40.3983 54.9685C39.701 54.9685 39.1357 55.3374 39.1357 55.7925C39.1357 56.2476 39.701 56.6165 40.3983 56.6165Z" fill="#010101"/>
<path d="M22.3423 56.7544V62.4305H24.4052V56.7544C24.4052 56.7544 24.0587 56.9572 23.3761 56.9572C22.6924 56.9572 22.3423 56.7544 22.3423 56.7544Z" fill="#010101"/>
<path d="M23.3665 56.6165C24.0638 56.6165 24.6291 56.2476 24.6291 55.7925C24.6291 55.3374 24.0638 54.9685 23.3665 54.9685C22.6693 54.9685 22.104 55.3374 22.104 55.7925C22.104 56.2476 22.6693 56.6165 23.3665 56.6165Z" fill="#010101"/>
<path d="M54.7756 56.6154C53.7147 56.6154 53.229 57.4111 53.018 57.8637C52.8789 58.1632 52.886 58.2504 52.7834 58.2504C52.636 58.2504 52.7586 58.0099 52.8247 57.727C52.9555 57.1706 52.8565 56.745 52.8565 56.745H51.3452V63.9972H53.4082C53.4082 63.9972 53.4082 62.8101 53.4082 61.6973C53.6522 62.1111 54.1049 62.5543 54.8016 62.5543C56.2928 62.5543 57.0437 61.2918 57.0437 59.5872C57.0437 57.6563 56.1442 56.6154 54.7756 56.6154ZM54.2098 61.2093C53.7371 61.2093 53.3881 60.6092 53.3881 59.7735C53.3881 58.9612 53.7453 58.3376 54.1933 58.3376C54.7674 58.3376 55.0126 58.8646 55.0126 59.7735C55.0114 60.7201 54.7862 61.2093 54.2098 61.2093Z" fill="#010101"/>
</svg>
