<svg width="160" height="79" viewBox="0 0 160 79" fill="none" xmlns="http://www.w3.org/2000/svg">
<g clip-path="url(#clip0_1704_23039)">
<g clip-path="url(#clip1_1704_23039)">
<path d="M62.138 36.0222L59.911 42.3031H59.8182L57.5964 36.0222H53.6992L57.5036 46.1329H61.9266L65.731 36.0222H62.138ZM83.2787 35.7464C81.7425 35.7464 80.5259 36.4256 79.9795 37.5388V36.0222H76.2679V46.138H79.9795V41.1695C79.9795 39.6478 80.4847 38.652 81.7425 38.652C82.8663 38.652 83.258 39.3771 83.258 40.761V46.1329H86.9697V39.7856C86.9697 37.6767 86.0727 35.7464 83.2787 35.7464ZM111.58 37.8145V36.0222H107.868V46.138H111.58V41.5116C111.58 39.8112 112.43 39.0758 113.801 39.0758C114.513 39.0758 115.291 39.2137 115.796 39.5099V36.0375C115.544 35.8332 114.992 35.6494 114.374 35.6494C113.023 35.6494 111.946 36.6809 111.58 37.8145ZM116.415 36.0222H120.127V46.138H116.415V36.0222Z" fill="#F05537"/>
<path d="M118.27 35.3129C119.429 35.3129 120.368 34.3824 120.368 33.2346C120.368 32.0867 119.429 31.1562 118.27 31.1562C117.111 31.1562 116.172 32.0867 116.172 33.2346C116.172 34.3824 117.111 35.3129 118.27 35.3129Z" fill="#F05537"/>
<path d="M125.798 42.2523V38.5553H128.458V36.0174H125.798V33.2292H123.571C123.571 34.7714 122.308 36.0174 120.751 36.0174V38.5553H122.127V43.3145C122.127 45.6992 123.751 46.3988 125.473 46.3988C126.87 46.3988 127.762 46.0566 128.545 45.4898V43.1102C127.927 43.3604 127.422 43.4523 126.968 43.4523C126.21 43.4574 125.798 43.1153 125.798 42.2523ZM93.481 43.4574H93.4707C92.7181 43.4574 92.3108 43.1153 92.3108 42.2574V38.5604H94.9708V36.0174H92.3108V33.2292H90.0838C90.0838 34.7714 88.8209 36.0174 87.2641 36.0174H87.2589V38.5553H88.6353V43.3145C88.6353 45.6992 90.2591 46.3988 91.9809 46.3988C93.3779 46.3988 94.2697 46.0566 95.0533 45.4898V43.1102C94.4398 43.3604 93.9346 43.4574 93.481 43.4574ZM49.2459 35.7518C46.0652 35.7518 43.6836 38.0446 43.6836 41.2413C43.6836 44.4634 46.0188 46.4141 49.2922 46.4141C52.2667 46.4141 54.0452 44.877 54.4679 42.5332H51.4213C51.0759 43.3247 50.4367 43.6668 49.4314 43.6668C48.3076 43.6668 47.3952 43.0796 47.3024 41.8285H54.4679V40.8072C54.4627 38.065 52.6533 35.7518 49.2459 35.7518ZM47.3437 40.0617C47.4828 39.1068 48.0086 38.3816 49.1995 38.3816C50.2975 38.3816 50.8955 39.1527 50.9418 40.0617H47.3437ZM70.3917 35.7518C67.2111 35.7518 64.8294 38.0446 64.8294 41.2413C64.8294 44.4634 67.1647 46.4141 70.4381 46.4141C73.4125 46.4141 75.191 44.877 75.6137 42.5332H72.5671C72.2217 43.3247 71.5825 43.6668 70.5773 43.6668C69.4535 43.6668 68.5411 43.0796 68.4483 41.8285H75.6137V40.8072C75.6137 38.065 73.8043 35.7518 70.3917 35.7518ZM68.4895 40.0617C68.6287 39.1068 69.1545 38.3816 70.3453 38.3816C71.4433 38.3816 72.0413 39.1527 72.0877 40.0617H68.4895ZM139.773 40.8072C139.773 38.065 137.964 35.7518 134.551 35.7518C131.37 35.7518 128.989 38.0446 128.989 41.2413C128.989 44.4634 131.324 46.4141 134.597 46.4141C137.572 46.4141 139.35 44.877 139.773 42.5332H136.726C136.381 43.3247 135.742 43.6668 134.737 43.6668C133.613 43.6668 132.7 43.0796 132.608 41.8285H139.773V40.8072ZM132.654 40.0617C132.793 39.1068 133.319 38.3816 134.51 38.3816C135.608 38.3816 136.206 39.1527 136.252 40.0617H132.654ZM102.76 35.7314C101.043 35.7314 99.8938 36.5484 99.3886 37.7536V31.8301H95.677V46.1332H98.5432L99.1824 44.3868C99.7546 45.6124 101.038 46.409 102.688 46.409C105.76 46.409 107.296 44.0702 107.296 41.0727C107.296 38.0906 105.76 35.7314 102.76 35.7314ZM101.456 43.5647C100.193 43.5647 99.3938 42.6098 99.3938 41.134V41.0012C99.3938 39.5459 100.198 38.5961 101.456 38.5961C102.899 38.5961 103.564 39.6174 103.564 41.0727C103.564 42.5434 102.899 43.5647 101.456 43.5647Z" fill="#F05537"/>
<path d="M36.8164 44.6777L29.9757 39.3977C29.8623 39.3109 29.9809 39.1372 30.1046 39.2087L32.7749 40.6896C33.9863 41.3637 35.5173 40.9705 36.2494 39.8062C37.0226 38.5755 36.6154 36.9568 35.3472 36.2317L31.4294 33.99C31.3057 33.9185 31.3985 33.7295 31.5325 33.7857L33.3316 34.5006C33.3368 34.5006 33.378 34.5159 33.3935 34.521C33.5842 34.5874 33.7904 34.6232 34.0018 34.6232C34.9761 34.6232 35.7802 33.8572 35.8473 32.9482C35.9349 31.7635 35.0276 30.9414 33.9399 30.9414H25.6197C24.5526 30.9414 23.6505 31.8044 23.666 32.8614C23.6711 33.4231 23.9289 33.9236 24.3258 34.2657C24.6248 34.5261 25.6352 35.3227 26.1146 35.7057C26.2022 35.7721 26.1507 35.91 26.0424 35.91H24.3774C22.6247 35.9202 21.207 37.3296 21.207 39.0658C21.207 39.9441 21.5679 40.7356 22.1556 41.3126L31.8006 50.3918C32.481 51.0199 33.3986 51.408 34.4039 51.408C36.5174 51.408 38.2289 49.7127 38.2289 47.619C38.2237 46.4344 37.6773 45.3722 36.8164 44.6777Z" fill="#F05537"/>
</g>
</g>
<defs>
<clipPath id="clip0_1704_23039">
<rect width="118.564" height="28" fill="white" transform="translate(21 26)"/>
</clipPath>
<clipPath id="clip1_1704_23039">
<rect width="118.565" height="20.4666" fill="white" transform="translate(21.207 30.9414)"/>
</clipPath>
</defs>
</svg>
