<svg aria-hidden="true" fill="none" height="26" viewbox="0 0 26 26" width="26" xmlns="http://www.w3.org/2000/svg"> <path d="M11.7026 12.6406L13.4632 11.0635L20.3346 18.1734C20.5555 18.4025 20.6915 18.7146 20.6915 19.0578C20.6915 19.7614 20.1211 20.3318 19.4175 20.3318C19.0572 20.3318 18.7316 20.1822 18.4998 19.9416L15.5631 16.9097L15.5624 16.909C15.4054 16.7438 15.1838 16.6398 14.9377 16.6378C14.7025 16.6392 14.4897 16.7323 14.3327 16.8825C14.1736 17.0395 14.0751 17.2571 14.0751 17.4977C14.0751 17.7384 14.1736 17.9566 14.3327 18.1129L15.9159 19.7573C16.1498 20.0021 16.2939 20.3331 16.2939 20.6982C16.2939 21.0082 16.1906 21.2937 16.0186 21.5187L16.0172 21.52C15.7841 21.7913 15.4387 21.9639 15.0533 21.9673H15.0492C14.6909 21.9673 14.3667 21.8192 14.1356 21.5799L10.3899 17.7051L10.3892 17.7044C10.2322 17.5392 10.0106 17.4352 9.76451 17.4331C9.53406 17.4345 9.32536 17.5276 9.17309 17.6779C9.01402 17.8349 8.91545 18.0524 8.91545 18.2931C8.91545 18.5337 9.01402 18.7519 9.17309 18.9083V18.9491C9.41306 19.1945 9.56057 19.5296 9.56057 19.8994C9.56057 20.2108 9.45588 20.4976 9.28254 20.7233L9.28118 20.7247C9.04733 20.9918 8.70268 21.1611 8.31927 21.1611C7.95831 21.1611 7.63201 21.0116 7.39952 20.7702L5.41453 18.6969H1.19303C1.05639 18.6962 0.925195 18.671 0.812349 18.6289H0.751168L0.743691 18.6269C0.628806 18.5854 0.522759 18.5256 0.431667 18.4522L0.3902 18.4107C0.350772 18.3767 0.314743 18.3386 0.282113 18.2958L0.214134 18.221L0.216173 18.2244C0.182184 18.1796 0.150913 18.1333 0.118963 18.0783L0.121003 18.0817C0.106047 18.0558 0.0924515 18.0293 0.0781759 17.9967L0.0822545 18.0062C0.0557427 17.9491 0.0326298 17.8906 0.0101968 17.8199V17.8213C0.00815739 17.8084 0.0067979 17.7955 0.0067979 17.7826C0.0067979 17.7698 0.00746483 17.757 0.00945943 17.7455C0.00315309 17.7009 0 17.6557 0 17.6092C0 17.5609 0.00339891 17.514 0.00951702 17.4733V9.31577C0.00951702 8.61355 0.578502 8.04456 1.28073 8.04456H3.74157L9.23427 3.53755L9.23223 3.53959C9.45181 3.35877 9.73324 3.25 10.0398 3.25C10.4348 3.25 10.7869 3.42946 11.0221 3.7143L11.0201 3.71226C11.1941 3.92707 11.2981 4.20103 11.2981 4.49877C11.2981 4.85974 11.1452 5.18536 10.8998 5.41445L10.8991 5.41513C10.8814 5.44164 10.859 5.46408 10.8318 5.48243L9.92766 6.2302L9.24787 6.80122L7.88829 8.08603L7.88421 8.08943C7.24317 8.63666 6.83597 9.45105 6.83597 10.3606C6.83597 11.0941 7.10041 11.7651 7.53548 12.2803L7.53888 12.2844C8.08543 12.9221 8.89642 13.3265 9.8019 13.3265C10.5266 13.3265 11.1907 13.0675 11.7026 12.6406Z" fill="#7B98B6"></path> <path clip-rule="evenodd" d="M22.2734 8.05884H24.843L24.845 8.0568L24.8505 8.05748C25.4922 8.12138 25.9939 8.66385 25.9939 9.32257V17.4862L25.9932 17.4801C25.9973 17.527 26 17.5745 26 17.6221C26 17.6694 25.9973 17.7167 25.9933 17.7573C25.9953 17.77 25.9966 17.7827 25.9966 17.7955C25.9966 17.8084 25.9959 17.8213 25.9939 17.8329L25.9918 17.841C25.9714 17.9015 25.9463 17.96 25.9191 18.0096V18.011C25.913 18.0422 25.8987 18.0701 25.8783 18.0919L25.8763 18.0973C25.8538 18.1469 25.8267 18.1938 25.7967 18.2353L25.7961 18.2367C25.7757 18.2666 25.7505 18.2938 25.722 18.3169L25.7206 18.3189C25.6893 18.3604 25.654 18.3984 25.6132 18.4324V18.4732L25.4636 18.5684L25.4704 18.5643C25.4168 18.5989 25.3611 18.6309 25.2939 18.6634C25.2845 18.6608 25.2738 18.6595 25.2631 18.6595C25.2555 18.6595 25.2482 18.6602 25.2413 18.6615C25.1161 18.6992 24.9836 18.7214 24.845 18.7247H24.5602C23.6819 18.7247 22.8886 18.3604 22.3223 17.773L13.6074 8.73183L12.2886 9.82629L10.6231 11.349L10.6245 11.3477C10.4104 11.5346 10.1303 11.6481 9.82371 11.6481H9.79448C9.09225 11.6481 8.52327 11.0791 8.52327 10.3769C8.52327 9.984 8.70137 9.63255 8.98349 9.39802L10.513 7.99086L15.2308 4.06167L15.2301 4.06235C15.2856 4.00885 15.3452 3.96008 15.4135 3.91267C15.4731 3.87348 15.5373 3.83952 15.6114 3.81015H15.6522C15.7223 3.78215 15.7969 3.76159 15.8788 3.74962C15.9182 3.74488 15.9582 3.74217 15.9989 3.74217C16.0397 3.74217 16.0798 3.74489 16.1145 3.74897L16.109 3.74965C16.1512 3.74489 16.194 3.74285 16.2369 3.74285C16.2797 3.74285 16.3225 3.74489 16.3592 3.74897H16.4068L16.4109 3.74965C16.5115 3.7646 16.606 3.80063 16.6855 3.85093L16.6896 3.85297C16.7426 3.87881 16.7916 3.91008 16.8351 3.9461H16.8759L22.2734 8.05884ZM25.2325 18.6636C25.2346 18.663 25.2368 18.6624 25.239 18.662L25.2325 18.6636Z" fill="#7B98B6" fill-rule="evenodd"></path> <path d="M15.8788 3.74962C15.8787 3.74963 15.8789 3.74961 15.8788 3.74962Z" fill="#7B98B6"></path> <path d="M15.4135 3.91267C15.4138 3.91249 15.414 3.9123 15.4143 3.91212L15.4102 3.91483C15.4113 3.91411 15.4124 3.91339 15.4135 3.91267Z" fill="#7B98B6"></path> </svg>