<svg width="64" height="64" viewBox="0 0 64 64" fill="none" xmlns="http://www.w3.org/2000/svg">
<g clip-path="url(#clip0_3630_31780)">
<path d="M53.1223 12.3393C53.0845 11.9987 52.7817 11.8473 52.5546 11.8095C52.3276 11.7716 47.786 11.7338 47.786 11.7338C47.786 11.7338 43.9635 8.02482 43.5851 7.64636C43.2066 7.26789 42.4875 7.38143 42.1848 7.45713C42.1848 7.45713 41.4657 7.6842 40.2546 8.06267C40.0654 7.41928 39.7626 6.62451 39.3463 5.82973C37.9838 3.21834 36.0158 1.85587 33.5937 1.85587C33.4423 1.85587 33.253 1.85587 33.1017 1.89372C33.026 1.81803 32.9503 1.74233 32.8746 1.62879C31.8149 0.493405 30.4903 -0.0364437 28.9007 0.00140264C25.7973 0.0770953 22.7318 2.31003 20.1961 6.32174C18.4173 9.12236 17.0927 12.6421 16.7142 15.367C13.1566 16.4645 10.6588 17.2215 10.6209 17.2593C8.84217 17.827 8.76648 17.8649 8.5394 19.5679C8.35017 20.8169 3.65723 57.1872 3.65723 57.1872L43.0552 63.9995L60.1239 59.7607C60.1239 59.7607 53.1602 12.6421 53.1223 12.3393ZM38.2866 8.66821C37.3783 8.93313 36.3564 9.27375 35.221 9.61437C35.1832 8.06267 34.994 5.86758 34.2749 3.97527C36.6592 4.42942 37.7946 7.07866 38.2866 8.66821ZM33.1773 10.2578C31.0958 10.9011 28.8629 11.5824 26.5921 12.3015C27.2355 9.87929 28.4466 7.45713 29.9226 5.86758C30.4903 5.26204 31.2472 4.61865 32.1555 4.24019C33.026 6.01897 33.1773 8.55467 33.1773 10.2578ZM28.9386 2.08295C29.6576 2.08295 30.2632 2.23433 30.793 2.57495C29.9604 2.99126 29.1278 3.63465 28.3709 4.46727C26.4029 6.58666 24.889 9.84144 24.2835 13.0205C22.3911 13.5882 20.5745 14.1559 18.8714 14.6858C20.0068 9.69006 24.1699 2.23433 28.9386 2.08295Z" fill="#95BF47"/>
<path d="M52.5546 11.8099C52.3275 11.772 47.786 11.7342 47.786 11.7342C47.786 11.7342 43.9635 8.02522 43.585 7.64676C43.4336 7.49537 43.2444 7.41968 43.0552 7.41968L43.0552 63.9999L60.1239 59.7611C60.1239 59.7611 53.1601 12.6803 53.1223 12.3397C53.0466 11.9991 52.7817 11.8477 52.5546 11.8099Z" fill="#5E8E3E"/>
<path d="M33.5941 20.5897L31.6261 28.0075C31.6261 28.0075 29.431 26.9857 26.7818 27.1749C22.9215 27.402 22.8836 29.8242 22.9215 30.4675C23.1485 33.798 31.8532 34.5171 32.3452 42.2756C32.7237 48.4067 29.0904 52.5698 23.8676 52.9104C17.5851 53.2889 14.1411 49.6178 14.1411 49.6178L15.4657 43.9787C15.4657 43.9787 18.9476 46.5901 21.7104 46.4387C23.527 46.3252 24.1704 44.8491 24.0947 43.7894C23.8298 39.475 16.7147 39.702 16.2605 32.6248C15.882 26.6451 19.8181 20.5897 28.4849 20.022C31.891 19.7192 33.5941 20.5897 33.5941 20.5897Z" fill="white"/>
</g>
<defs>
<clipPath id="clip0_3630_31780">
<rect width="64" height="64" fill="white"/>
</clipPath>
</defs>
</svg>
