<svg aria-hidden="true" fill="none" height="26" viewbox="0 0 26 26" width="26" xmlns="http://www.w3.org/2000/svg"> <path d="M0.69352 20.608L7.83152 13.767L11.1995 16.995L4.06152 23.836C3.13652 24.722 1.63952 24.724 0.70152 23.826C-0.22648 22.935 -0.23848 21.499 0.69352 20.608V20.608ZM1.60052 22.2C1.60052 21.777 1.95852 21.433 2.40052 21.433C2.84252 21.433 3.20052 21.777 3.20052 22.2C3.20052 22.623 2.84252 22.967 2.40052 22.967C1.95852 22.967 1.60052 22.623 1.60052 22.2V22.2ZM0.81752 3.054C0.76752 2.503 1.22452 2.16 1.68352 2.16C1.97752 2.16 2.27152 2.3 2.43752 2.616C2.46652 2.671 2.59452 2.821 2.85752 2.994C3.25152 3.254 3.79152 3.442 4.51752 3.509C7.20952 3.76 8.80352 5.824 7.46452 7.695C6.09752 9.607 3.60252 9.877 2.25452 7.642C2.02318 7.25429 1.82256 6.84905 1.65452 6.43C1.35252 5.69 1.13252 4.902 0.97952 4.118C0.908307 3.76617 0.854243 3.41108 0.81752 3.054V3.054ZM9.03752 7.826C9.20138 7.67311 9.4174 7.5885 9.64151 7.58943C9.86562 7.59036 10.0809 7.67676 10.2435 7.831C10.3221 7.9052 10.3849 7.99459 10.4279 8.09377C10.4709 8.19294 10.4934 8.29982 10.4938 8.40793C10.4943 8.51603 10.4728 8.62311 10.4306 8.72265C10.3885 8.82219 10.3265 8.91213 10.2485 8.987L7.81252 11.321C7.649 11.4746 7.43285 11.5596 7.20852 11.5587C6.9842 11.5578 6.76876 11.4709 6.60652 11.316C6.52783 11.2419 6.46502 11.1525 6.42191 11.0534C6.3788 10.9543 6.35628 10.8474 6.35572 10.7393C6.35515 10.6312 6.37656 10.5241 6.41865 10.4245C6.46073 10.3249 6.5226 10.2349 6.60052 10.16L9.03652 7.826H9.03752ZM8.20452 12.58L11.5615 9.363L23.0775 20.399C23.2978 20.6053 23.4734 20.8546 23.5936 21.1314C23.7139 21.4081 23.7762 21.7066 23.7766 22.0084C23.7771 22.3102 23.7157 22.6089 23.5964 22.886C23.477 23.1632 23.3021 23.413 23.0825 23.62C22.1575 24.506 20.6505 24.506 19.7205 23.615L8.20452 12.58ZM15.4285 5.607C15.4285 3.338 17.3485 1.5 19.7145 1.5C20.2695 1.5 20.7985 1.601 21.2845 1.784L19.3865 3.604C19.226 3.75227 19.0979 3.93209 19.0102 4.13219C18.9225 4.3323 18.8771 4.54836 18.8768 4.76684C18.8765 4.98533 18.9214 5.20151 19.0086 5.40184C19.0958 5.60217 19.2234 5.78232 19.3835 5.931C20.0585 6.577 21.1405 6.571 21.8115 5.927L23.7065 4.111C23.8965 4.574 24.0005 5.08 24.0005 5.607C24.0005 7.876 22.0805 9.714 19.7145 9.714C19.436 9.71454 19.1581 9.68876 18.8845 9.637L16.2535 12.159L12.8955 8.942L15.5155 6.432C15.4577 6.16081 15.4285 5.88429 15.4285 5.607V5.607Z" fill="#7C98B6"></path> </svg>