<svg xmlns="http://www.w3.org/2000/svg" fill="none" viewBox="0 0 24 25" class="icon-module-scss-module__leGPra__icon" width="24" height="24"><path fill="currentColor" fill-rule="evenodd" d="M13.046 2.754c-.604-.605-1.488-.605-2.093 0l-2.8 2.8-.707-.708 2.8-2.8c.995-.995 2.512-.995 3.507 0l2.8 2.8-.707.708zm-7.493 5.5-2.8 2.8c-.604.604-.604 1.488 0 2.092l2.8 2.8-.707.708-2.8-2.8c-.995-.996-.995-2.512 0-3.507l2.8-2.8zm13.7-.707 2.8 2.8c.996.995.996 2.511 0 3.507l-2.8 2.8-.707-.707 2.8-2.8c.605-.605.605-1.489 0-2.093l-2.8-2.8zM12 10.5a1.5 1.5 0 1 0 0 3 1.5 1.5 0 0 0 0-3M9.5 12a2.5 2.5 0 1 1 5 0 2.5 2.5 0 0 1-5 0m.746 10.054-2.8-2.8.707-.707 2.8 2.8c.605.604 1.489.604 2.093 0l2.8-2.8.707.707-2.8 2.8c-.995.995-2.511.995-3.507 0" clip-rule="evenodd"></path></svg>