<svg xmlns="http://www.w3.org/2000/svg" fill="none" viewBox="0 0 24 25" class="icon-module-scss-module__leGPra__icon" width="24" height="24"><path fill="currentColor" fill-rule="evenodd" d="M12 2.2a3.8 3.8 0 1 0 0 7.6 3.8 3.8 0 0 0 0-7.6M7.2 6a4.8 4.8 0 1 1 9.6 0 4.8 4.8 0 0 1-9.6 0M7.8 13.3c-3.024 0-5.5 2.476-5.5 5.5v3H6c1.724 0 3.1-1.376 3.1-3.1h1c0 2.276-1.824 4.1-4.1 4.1H1.3v-4c0-3.576 2.924-6.5 6.5-6.5h8.5c3.576 0 6.5 2.924 6.5 6.5v4h-9.7v-1h8.7v-3c0-3.024-2.476-5.5-5.5-5.5z" clip-rule="evenodd"></path></svg>