<svg xmlns="http://www.w3.org/2000/svg" fill="none" viewBox="0 0 24 25" class="icon-module-scss-module__leGPra__icon" width="24" height="24"><path fill="currentColor" fill-rule="evenodd" d="M11.9 2.302A9.785 9.785 0 0 0 2.302 12.3l4.24 4.335c.524.442 1.158.067 1.158-.435v-.3l-.944-2.266a1.6 1.6 0 0 1-.221-.536c-.035-.174-.035-.343-.035-.48V10.5c0-1.076.924-2 2-2 .524 0 1-.476 1-1v-.3c0-.976.724-1.7 1.7-1.7.424 0 .7-.276.7-.7zm1 .03V4.8c0 .976-.724 1.7-1.7 1.7-.424 0-.7.276-.7.7v.3c0 1.076-.924 2-2 2-.524 0-1 .476-1 1v2.1c0 .16.002.234.015.302.011.053.033.118.101.22l.027.041L8.7 15.7v.5c0 1.494-1.755 2.116-2.83 1.176l-.014-.012-3.393-3.469A9.785 9.785 0 0 0 12.1 21.9h.9v1h-.9c-5.976 0-10.8-4.824-10.8-10.8S6.124 1.3 12.1 1.3s10.8 4.824 10.8 10.8v.5h-1v-.5c0-.792-.093-1.563-.27-2.3H15.4a1.4 1.4 0 0 1-.59-.118 1.5 1.5 0 0 1-.463-.328 1.466 1.466 0 0 1 0-2.107l.8-.8c.07-.07.078-.122.078-.147s-.009-.077-.079-.146a1.2 1.2 0 0 1-.371-.854c0-.325.141-.623.371-.853l1.19-1.19a9.8 9.8 0 0 0-3.436-.925m4.352 1.424-1.398 1.398c-.07.07-.079.122-.079.146 0 .025.009.077.079.147.23.23.371.528.371.853 0 .326-.141.623-.371.854l-.8.8a.47.47 0 0 0 0 .692.6.6 0 0 0 .162.122.4.4 0 0 0 .184.032h5.933a9.8 9.8 0 0 0-4.081-5.044M12.5 16.8c0-2.584 2.132-4.6 4.6-4.6 3.358 0 5.615 3.475 4.15 6.517l-.003.007-.3.6-.894-.448.298-.596c1.132-2.358-.61-5.08-3.251-5.08-1.932 0-3.6 1.584-3.6 3.6 0 2.354 2.27 4.034 4.566 3.418l.674-.192c.732-.278 1.523.03 2.014.52l.005.006 1.506 1.606-.73.684-1.494-1.594c-.303-.3-.695-.388-.955-.284l-.024.01-.732.209c-2.902.781-5.83-1.338-5.83-4.383" clip-rule="evenodd"></path></svg>