<svg fill="none" height="40" viewbox="0 0 191 40" width="191" xmlns="http://www.w3.org/2000/svg">
<g clip-path="url(#clip0_14198_159)">
<path d="M17.418 29.6403L7.28796 37L7.20401 36.944L17.362 29.6123L17.418 29.6403Z" fill="#141415"></path>
<path d="M21.4686 15.8095L34.6821 15.8558L24.0195 23.6597L28.0579 36.2409L17.341 28.5122L6.62335 36.2409L10.6626 23.6597L0 15.8558L13.2135 15.8095L17.341 3.2571L21.4686 15.8095Z" fill="#141415"></path>
<path d="M35.3275 16.6L25.1974 24.0156L29.0312 35.9926L28.9472 36.0486L28.9192 35.9646L25.0575 23.9877L35.1876 16.6L35.2995 16.516L35.3275 16.6Z" fill="#141415"></path>
<path clip-rule="evenodd" d="M72.0506 14.3526C77.3057 14.3526 80.7243 18.5482 80.7246 20.9112C80.7246 21.4395 80.5079 22.0312 79.9796 22.5281C79.0472 23.4617 76.5597 24.7041 70.5894 26.57C70.0309 26.7256 69.812 26.9436 69.8119 27.1909C69.8119 28.0942 71.1497 29.5239 73.2941 29.524C75.4086 29.524 77.1505 28.7782 78.5183 27.4104C78.797 27.1294 78.9845 27.0055 79.4199 27.0055C79.732 27.0056 80.0722 27.0679 80.4772 27.4716C80.8499 27.8443 80.9756 28.2178 80.9756 28.6845C80.9755 29.1199 80.7554 29.6489 79.8545 30.5498C77.9898 32.4157 75.4404 33.3796 72.7362 33.3796C70.0923 33.3796 67.6677 32.5401 65.9887 30.8611C64.3097 29.1821 63.346 27.0677 63.346 24.0209C63.346 20.8488 64.3725 18.5181 66.0202 16.8693C67.6677 15.2208 69.8748 14.3526 72.0506 14.3526ZM72.0506 17.3678C69.6253 17.368 68.9742 20.1659 68.9742 22.466C68.9742 23.4298 69.2525 23.8967 69.8749 23.8967C70.2174 23.8967 71.3672 23.6486 72.8604 23.0878C74.7251 22.4364 75.2224 22.0934 75.2224 20.9427C75.2223 19.7931 74.2892 17.3678 72.0506 17.3678Z" fill="#141415" fill-rule="evenodd"></path>
<path clip-rule="evenodd" d="M121.952 14.3526C127.207 14.3526 130.627 18.5482 130.627 20.9112C130.627 21.4395 130.41 22.0312 129.88 22.5281C128.948 23.4616 126.461 24.7043 120.492 26.57C119.932 26.7256 119.714 26.9436 119.714 27.1909C119.714 28.0942 121.051 29.524 123.196 29.524C125.31 29.524 127.052 28.7782 128.42 27.4104C128.7 27.1295 128.885 27.0055 129.322 27.0055C129.633 27.0056 129.975 27.0678 130.379 27.4716C130.752 27.8443 130.876 28.2178 130.876 28.6845C130.876 29.1199 130.657 29.649 129.756 30.5498C127.891 32.4157 125.341 33.3796 122.637 33.3796C119.994 33.3796 117.569 32.5401 115.889 30.8611C114.211 29.1821 113.247 27.0676 113.247 24.0209C113.247 20.8488 114.273 18.5181 115.921 16.8693C117.569 15.2206 119.776 14.3526 121.952 14.3526ZM121.952 17.3678C119.528 17.3678 118.875 20.1658 118.875 22.466C118.875 23.4298 119.154 23.8967 119.777 23.8967C120.119 23.8966 121.269 23.6483 122.761 23.0878C124.626 22.4364 125.125 22.0934 125.125 20.9427C125.125 19.7931 124.191 17.3678 121.952 17.3678Z" fill="#141415" fill-rule="evenodd"></path>
<path clip-rule="evenodd" d="M160.165 14.3526C165.418 14.3528 168.838 18.5483 168.838 20.9112C168.838 21.4395 168.621 22.0312 168.093 22.5281C167.159 23.4617 164.672 24.7041 158.703 26.57C158.143 26.7256 157.926 26.9436 157.926 27.1909C157.926 28.0942 159.264 29.524 161.408 29.524C163.522 29.524 165.263 28.7781 166.631 27.4104C166.91 27.1294 167.098 27.0055 167.533 27.0055C167.842 27.0055 168.185 27.0679 168.59 27.4716C168.963 27.8443 169.086 28.2178 169.086 28.6845C169.086 29.1198 168.869 29.6491 167.969 30.5498C166.104 32.4157 163.552 33.3796 160.847 33.3796C158.205 33.3796 155.78 32.54 154.101 30.8611C152.422 29.1821 151.458 27.0677 151.458 24.0209C151.458 20.8488 152.484 18.5181 154.131 16.8693C155.779 15.2206 157.986 14.3526 160.165 14.3526ZM160.165 17.3678C157.739 17.3678 157.085 20.1658 157.085 22.466C157.085 23.4298 157.366 23.8967 157.986 23.8967C158.33 23.8966 159.481 23.6485 160.973 23.0878C162.839 22.4364 163.336 22.0934 163.336 20.9427C163.335 19.7931 162.402 17.3681 160.165 17.3678Z" fill="#141415" fill-rule="evenodd"></path>
<path d="M105.723 14.4138C108.552 14.4138 110.356 16.1856 110.356 19.6677V29.3378C110.356 29.8347 110.48 29.9901 110.698 29.9901C111.009 29.9897 111.63 29.4305 112.066 29.4305C112.439 29.4305 113.029 30.1769 113.029 30.5498C113.029 30.9852 111.785 33.0989 108.864 33.0989C106.221 33.0989 104.759 31.5767 104.759 29.2765V20.662C104.759 19.0154 104.168 18.2388 103.111 18.2388C102.084 18.2388 100.687 19.0154 100.687 21.5338V27.6579C100.687 28.7154 100.842 29.399 101.153 29.7103C101.588 30.1446 102.304 30.3645 102.551 30.6119C102.614 30.6757 102.646 30.7988 102.646 31.0168C102.646 31.8249 102.52 32.5708 102.364 32.7264C102.271 32.8192 102.148 32.882 101.775 32.882H93.9399C93.5973 32.882 93.411 32.8193 93.3181 32.7264C93.1927 32.6032 93.0986 31.8249 93.0986 31.0168C93.0986 30.7986 93.1316 30.6756 93.1931 30.6119C93.4113 30.3947 94.1568 30.1446 94.5922 29.7103C94.9021 29.399 94.9954 28.7154 94.9954 27.6579V19.3564C94.9953 18.4555 94.8731 17.8645 94.5922 17.5847C94.2195 17.212 93.7529 17.1189 93.5044 16.8693C93.4115 16.7753 93.3802 16.6521 93.3802 16.4977C93.3802 15.9369 93.5045 15.129 93.66 14.9735C93.7842 14.8482 93.8773 14.8484 94.2197 14.8484H99.6905C100.593 14.8484 100.251 16.1243 100.749 16.1243C100.873 16.1243 101.028 16.0313 101.525 15.7203C102.956 14.8483 104.385 14.4138 105.723 14.4138Z" fill="#141415"></path>
<path d="M182.737 14.4138C185.565 14.4138 187.367 16.1856 187.367 19.6677V29.3378C187.367 29.8345 187.493 29.99 187.711 29.9901C188.022 29.9901 188.644 29.4305 189.08 29.4305C189.452 29.4309 190.043 30.177 190.043 30.5498C190.043 30.9852 188.799 33.0989 185.876 33.0989C183.234 33.0988 181.772 31.5766 181.772 29.2765V20.662C181.772 19.0156 181.182 18.239 180.125 18.2388C179.098 18.2388 177.698 19.0154 177.698 21.5338V27.6579C177.698 28.7156 177.855 29.3991 178.166 29.7103C178.601 30.1446 179.317 30.3645 179.565 30.6119C179.628 30.6757 179.658 30.7989 179.658 31.0168C179.658 31.8249 179.534 32.5708 179.379 32.7264C179.285 32.8192 179.16 32.882 178.787 32.882H170.952C170.611 32.882 170.424 32.8193 170.329 32.7264C170.207 32.6032 170.113 31.8249 170.113 31.0168C170.113 30.7986 170.145 30.6756 170.207 30.6119C170.424 30.3947 171.17 30.1446 171.606 29.7103C171.916 29.399 172.01 28.7153 172.01 27.6579V19.3564C172.01 18.4555 171.885 17.8645 171.606 17.5847C171.234 17.2119 170.766 17.119 170.517 16.8693C170.424 16.7754 170.393 16.652 170.393 16.4977C170.393 15.9371 170.517 15.1293 170.672 14.9735C170.797 14.8481 170.891 14.8484 171.234 14.8484H176.705C177.606 14.8484 177.265 16.1243 177.763 16.1243C177.885 16.1242 178.042 16.0312 178.539 15.7203C179.969 14.8483 181.399 14.4138 182.737 14.4138Z" fill="#141415"></path>
<path d="M49.6961 8.69203C50.0372 8.69203 50.1629 8.72414 50.2558 8.81795C50.3487 8.91086 50.443 9.56389 50.443 10.4034C50.4429 10.5578 50.412 10.745 50.3494 10.8065C50.1936 10.9632 49.417 11.2116 49.1059 11.5227C48.7633 11.8653 48.6389 12.2378 48.6389 13.2944V17.429C48.6389 17.5845 48.7942 17.8022 49.0123 17.8024H54.609C54.8262 17.8024 54.9824 17.5846 54.9824 17.429V13.2944C54.9824 12.2379 54.8576 11.8652 54.5163 11.5227C54.2053 11.2117 53.4278 10.9633 53.2728 10.8065C53.2101 10.745 53.1793 10.5578 53.1792 10.4034C53.1792 9.56393 53.2726 8.91091 53.3655 8.81795C53.4584 8.72388 53.5829 8.69203 53.9243 8.69203H62.3508C62.8175 8.69203 62.9408 8.72433 63.0662 8.84856C63.1903 8.97357 63.3154 9.81257 63.3154 10.3719C63.3154 10.5275 63.2832 10.7136 63.1903 10.8065C62.9729 11.0247 61.9779 11.1184 61.4798 11.6163C61.2011 11.8939 61.0146 12.3933 61.0146 13.1388V27.6579C61.0146 28.7152 61.201 29.3677 61.541 29.7103C62.0078 30.177 62.9731 30.3641 63.1903 30.5813C63.2832 30.6752 63.3153 30.7985 63.3154 30.9853C63.3154 31.7923 63.1904 32.6032 63.0662 32.7264C62.9408 32.8518 62.7548 32.882 62.3508 32.882H53.6138C53.2104 32.882 53.0236 32.8514 52.8994 32.7264C52.7751 32.6033 52.6502 31.7923 52.6502 30.9853C52.6502 30.7986 52.6804 30.6752 52.7743 30.5813C53.0228 30.3317 53.956 30.1771 54.4227 29.7103C54.765 29.3677 54.9824 28.7777 54.9824 27.4104V22.1547C54.9823 21.7498 54.8888 21.5024 54.4848 21.5024H49.1365C48.7328 21.5025 48.6389 21.7499 48.6389 22.1547V27.4104C48.6389 28.7781 48.8583 29.3678 49.1986 29.7103C49.6652 30.1769 50.597 30.3318 50.847 30.5813C50.9398 30.6752 50.9694 30.7985 50.9694 30.9853C50.9694 31.7923 50.847 32.6033 50.7228 32.7264C50.5974 32.8517 50.4113 32.882 50.0075 32.882H41.2713C40.8049 32.882 40.6804 32.8515 40.5551 32.7264C40.432 32.6033 40.3068 31.7923 40.3068 30.9853C40.3068 30.7985 40.3379 30.6752 40.4318 30.5813C40.6494 30.3642 41.6127 30.1769 42.0794 29.7103C42.4206 29.3677 42.6076 28.7154 42.6076 27.6579V13.1388C42.6076 12.3933 42.4204 11.8939 42.1406 11.6163C41.6437 11.1187 40.6495 11.0246 40.4318 10.8065C40.3378 10.7136 40.3068 10.5275 40.3068 10.3719C40.3068 9.81224 40.432 8.97281 40.5551 8.84856C40.6805 8.72431 40.8047 8.69203 41.2713 8.69203H49.6961Z" fill="#141415"></path>
<path d="M89.027 14.8484C89.3683 14.8485 89.5867 15.0052 89.5867 15.4081V27.6579C89.5867 28.7155 89.6807 29.3991 89.9907 29.7103C90.4575 30.1771 91.1727 30.3947 91.3899 30.6119C91.4525 30.6757 91.4825 30.7988 91.4826 31.0168C91.4826 31.8249 91.3899 32.6033 91.2657 32.7264C91.1728 32.8193 91.0168 32.882 90.6754 32.882H82.6835C82.3421 32.882 82.1872 32.8193 82.0932 32.7264C81.969 32.603 81.8449 31.8248 81.8449 31.0168C81.8449 30.7986 81.8768 30.6756 81.9384 30.6119C82.1558 30.3948 82.9321 30.177 83.3988 29.7103C83.7098 29.399 83.8352 28.7154 83.8352 27.6579V19.3564C83.8351 18.4555 83.7098 17.8645 83.4312 17.5847C83.026 17.2422 82.5607 17.1491 82.3424 16.8693C82.2809 16.7753 82.2191 16.6521 82.2191 16.4977C82.2192 15.9372 82.3418 15.0984 82.4649 14.9735C82.56 14.8481 82.6838 14.8484 83.0263 14.8484H89.027Z" fill="#141415"></path>
<path d="M138.554 8.13323C139.021 8.13327 139.363 8.50614 139.363 9.00422V20.7556C139.363 21.285 139.395 21.4097 139.582 21.4097C140.11 21.4096 143.279 18.3632 143.281 17.8024C143.281 17.1498 141.976 17.0866 141.976 16.621C141.976 15.2208 142.038 14.8484 142.692 14.8484H150.215C150.433 14.8488 150.587 15.254 150.587 16.4041C150.587 17.3978 149.905 16.8398 148.847 17.6791C147.2 18.9853 145.21 20.9739 145.209 21.3782C145.209 21.8438 145.334 22.0936 149.841 29.7103C150.121 30.2386 151.426 30.3947 151.644 30.6119C151.708 30.6757 151.738 30.7986 151.738 31.0168C151.738 31.8248 151.614 32.603 151.49 32.7264C151.397 32.8193 151.271 32.882 150.897 32.882H145.83C145.271 32.882 145.177 32.7891 144.96 32.3539C141.539 25.4522 141.292 25.2347 140.981 25.2347C140.762 25.2347 140.483 25.4518 140.173 25.7305C139.489 26.4143 139.363 26.5395 139.363 26.9434V27.6579C139.363 28.7155 139.489 29.3991 139.829 29.7103C140.235 30.1446 140.981 30.3947 141.198 30.6119C141.292 30.6757 141.322 30.7986 141.322 31.0168C141.322 31.8249 141.167 32.6033 141.042 32.7264C140.948 32.8191 140.825 32.882 140.421 32.882H132.617C132.212 32.882 132.089 32.8193 131.995 32.7264C131.871 32.6033 131.778 31.8249 131.778 31.0168C131.778 30.7987 131.809 30.6756 131.871 30.6119C132.089 30.3947 132.834 30.1446 133.27 29.7103C133.519 29.4617 133.737 28.8092 133.737 26.7257V14.2887C133.737 11.9274 133.58 11.3058 133.27 10.9945C132.897 10.6207 132.056 10.403 131.839 10.1848C131.778 10.0606 131.746 9.93588 131.746 9.75015C131.746 9.22183 131.84 8.44419 131.965 8.28976C132.057 8.13326 132.212 8.13323 132.586 8.13323H138.554Z" fill="#141415"></path>
<path d="M22.2312 14.921H22.1192L18.2015 3H18.3135L22.2312 14.921Z" fill="#141415"></path>
<path d="M86.2601 7.57356C88.0015 7.57374 89.4002 8.91095 89.4004 10.5897C89.4004 12.2988 88.0017 13.6371 86.2601 13.6372C84.5509 13.6372 83.1505 12.2989 83.1505 10.5897C83.1507 8.91084 84.551 7.57356 86.2601 7.57356Z" fill="#141415"></path>
<path clip-rule="evenodd" d="M186.664 8.92289C187.28 8.92289 187.624 8.92539 187.699 8.93076C187.916 8.94939 188.085 8.99304 188.204 9.06193C188.326 9.12829 188.427 9.23179 188.507 9.37238C188.589 9.51029 188.63 9.66439 188.63 9.8341C188.63 10.0675 188.553 10.2678 188.399 10.4349C188.248 10.5994 188.034 10.7012 187.758 10.7409C187.856 10.7781 187.932 10.8191 187.986 10.8642C188.039 10.9067 188.111 10.9897 188.204 11.1117C188.228 11.144 188.308 11.2751 188.443 11.5052L188.825 12.1576H188.013L187.742 11.6329C187.559 11.2801 187.408 11.0585 187.289 10.9683C187.169 10.8755 187.018 10.8284 186.835 10.8284H186.664V12.1576H186.007V8.92289H186.664ZM186.664 10.3194H186.931C187.31 10.3194 187.545 10.3049 187.635 10.2757C187.728 10.2466 187.8 10.1959 187.853 10.1244C187.907 10.0501 187.934 9.96632 187.934 9.87346C187.934 9.78335 187.907 9.70364 187.853 9.63472C187.803 9.56325 187.73 9.51258 187.635 9.48344C187.539 9.45169 187.305 9.43622 186.931 9.43621H186.664V10.3194Z" fill="#141415" fill-rule="evenodd"></path>
<path clip-rule="evenodd" d="M187.384 7.47824C187.906 7.47827 188.408 7.60917 188.888 7.87176C189.368 8.13175 189.745 8.50563 190.019 8.99372C190.295 9.48177 190.432 9.99272 190.432 10.5258C190.432 11.0564 190.297 11.5637 190.027 12.0466C189.759 12.5267 189.383 12.9023 188.9 13.1729C188.42 13.4408 187.914 13.5743 187.384 13.5743C186.853 13.5743 186.347 13.4407 185.864 13.1729C185.384 12.9023 185.008 12.5266 184.738 12.0466C184.47 11.5637 184.335 11.0564 184.335 10.5258C184.336 9.99272 184.472 9.48177 184.746 8.99372C185.021 8.50576 185.4 8.1317 185.88 7.87176C186.36 7.60921 186.861 7.47825 187.384 7.47824ZM187.388 8.07464C186.969 8.07464 186.567 8.17988 186.182 8.38945C185.798 8.59904 185.494 8.90022 185.271 9.2928C185.051 9.68528 184.941 10.0962 184.941 10.5258C184.941 10.953 185.048 11.361 185.263 11.7484C185.481 12.1355 185.784 12.4377 186.171 12.6552C186.558 12.8726 186.964 12.9814 187.388 12.9814C187.815 12.9814 188.222 12.8728 188.606 12.6552C188.993 12.4377 189.296 12.1354 189.513 11.7484C189.731 11.361 189.839 10.953 189.839 10.5258C189.839 10.0962 189.728 9.68528 189.505 9.2928C189.285 8.90021 188.981 8.59904 188.594 8.38945C188.209 8.17988 187.807 8.07464 187.388 8.07464Z" fill="#141415" fill-rule="evenodd"></path>
</g>
<defs>
<clippath id="clip0_14198_159">
<rect fill="white" height="40" width="190.432"></rect>
</clippath>
</defs>
</svg>