<svg width="136" height="40" viewBox="0 0 136 40" fill="none" xmlns="http://www.w3.org/2000/svg">
<path d="M31.0501 33.5H0L15.525 6.5L31.0501 33.5Z" fill="#141415"/>
<path fill-rule="evenodd" clip-rule="evenodd" d="M66.2661 13.5347C67.9602 13.5347 69.4847 13.9035 70.8397 14.6409C72.1948 15.3784 73.2716 16.4731 74.07 17.9249C74.8684 19.3768 75.2796 21.1513 75.3042 23.2485V24.3202H61.6201C61.7169 25.8412 62.1645 27.0395 62.963 27.9153C63.7858 28.768 64.8868 29.1943 66.2661 29.1943C67.1372 29.1943 67.9356 28.9639 68.6617 28.5029C69.3877 28.042 69.9324 27.4198 70.295 26.6363L75.0498 26.9819C74.4692 28.7103 73.3805 30.0931 71.783 31.1301C70.1861 32.1672 68.3468 32.6857 66.2661 32.6857C64.3545 32.6857 62.6848 32.294 61.2571 31.5104C59.8294 30.7269 58.7163 29.6091 57.9177 28.1573C57.1192 26.7053 56.7199 25.0231 56.7199 23.1102C56.7199 21.1975 57.1192 19.5151 57.9177 18.0632C58.7163 16.6113 59.8294 15.4936 61.2571 14.7101C62.6848 13.9265 64.3545 13.5347 66.2661 13.5347ZM66.2661 17.0261C64.9836 17.0261 63.9431 17.4064 63.1445 18.1669C62.346 18.9274 61.85 19.9991 61.6563 21.3818H70.5129C70.3436 19.8838 69.8713 18.7892 69.0974 18.0977C68.3229 17.3833 67.379 17.0261 66.2661 17.0261Z" fill="#141415"/>
<path d="M98.7423 13.5347C100.291 13.5347 101.707 13.8228 102.989 14.3989C104.296 14.9521 105.36 15.7471 106.183 16.7842C107.006 17.8212 107.502 19.0427 107.671 20.4484L102.881 20.6904C102.687 19.5842 102.203 18.72 101.429 18.0977C100.678 17.4525 99.7832 17.1299 98.7423 17.1299C97.2424 17.1299 96.0807 17.6484 95.2577 18.6854C94.4353 19.7225 94.0241 21.1975 94.0241 23.1102C94.0241 25.0231 94.4353 26.4979 95.2577 27.535C96.0807 28.5721 97.2424 29.0906 98.7423 29.0906C99.831 29.0906 100.763 28.768 101.537 28.1227C102.311 27.4544 102.784 26.5094 102.953 25.288L107.78 25.4954C107.611 26.9473 107.115 28.2148 106.292 29.298C105.469 30.3812 104.405 31.2223 103.098 31.8215C101.791 32.3976 100.339 32.6857 98.7423 32.6857C96.8306 32.6857 95.1613 32.294 93.7332 31.5104C92.3057 30.7269 91.1924 29.6091 90.394 28.1573C89.5955 26.7053 89.1964 25.0231 89.1964 23.1102C89.1964 21.1975 89.5955 19.5151 90.394 18.0632C91.1924 16.6113 92.3057 15.4936 93.7332 14.7101C95.1613 13.9265 96.8306 13.5347 98.7423 13.5347Z" fill="#141415"/>
<path fill-rule="evenodd" clip-rule="evenodd" d="M118.814 13.5347C120.508 13.5347 122.032 13.9035 123.387 14.6409C124.742 15.3784 125.819 16.4731 126.618 17.9249C127.416 19.3768 127.828 21.1513 127.852 23.2485V24.3202H114.168C114.265 25.8412 114.712 27.0395 115.511 27.9153C116.334 28.768 117.435 29.1943 118.814 29.1943C119.685 29.1943 120.484 28.9639 121.209 28.5029C121.935 28.042 122.48 27.4198 122.843 26.6363L127.598 26.9819C127.017 28.7103 125.928 30.0931 124.331 31.1301C122.734 32.1672 120.895 32.6857 118.814 32.6857C116.902 32.6857 115.232 32.294 113.805 31.5104C112.377 30.7269 111.264 29.6091 110.466 28.1573C109.667 26.7053 109.268 25.0231 109.268 23.1102C109.268 21.1975 109.667 19.5151 110.466 18.0632C111.264 16.6113 112.377 15.4936 113.805 14.7101C115.232 13.9265 116.902 13.5347 118.814 13.5347ZM118.814 17.0261C117.531 17.0261 116.491 17.4064 115.693 18.1669C114.894 18.9274 114.398 19.9991 114.204 21.3818H123.061C122.891 19.8838 122.42 18.7892 121.645 18.0977C120.871 17.3833 119.927 17.0261 118.814 17.0261Z" fill="#141415"/>
<path d="M135.129 32.271H130.484V7.72737H135.129V32.271Z" fill="#141415"/>
<path d="M36.1716 7.72737L45.1217 25.5518L54.0717 7.72737H59.6836L46.7092 32.2709H43.534L30.5596 7.72737H36.1716Z" fill="#141415"/>
<path d="M82.3087 17.4749C82.6156 16.4768 83.042 15.7017 83.5887 15.1496C84.3811 14.349 85.4865 13.9487 86.9033 13.9487H88.6689V17.723H86.8675C85.8585 17.723 85.0302 17.8602 84.3812 18.1347C83.7568 18.4092 83.2765 18.8438 82.9404 19.4386C82.6282 20.0333 82.4721 20.7881 82.4721 21.7031V32.2709H77.8602V13.9487H82.1838L82.3087 17.4749Z" fill="#141415"/>
</svg>
