<svg fill="none" height="40" viewbox="0 0 65 40" width="65" xmlns="http://www.w3.org/2000/svg">
<path d="M2.09015 3.02809C1.20331 3.1615 0.6757 3.53952 0.237893 4.35113C0.0358283 4.71803 0.0246025 5.22946 0.00215089 15.358C-0.00907493 21.195 0.0246025 26.2203 0.0807316 26.5316C0.3277 27.9658 0.496087 28.5996 0.94512 29.6447C2.28099 32.8133 4.8517 35.2037 8.15209 36.3599C10.0268 37.027 12.7996 37.1938 14.6743 36.7602C18.1318 35.9597 20.7699 34.0252 22.712 30.8565C22.813 30.6898 22.8691 30.7342 23.1273 31.1789C24.5193 33.5137 26.888 35.4371 29.5597 36.3711C30.4466 36.6824 30.6935 36.738 32.0182 36.927C32.703 37.0381 34.9369 37.0048 35.4421 36.8936C38.0577 36.2932 38.8659 35.9375 40.9427 34.5144C41.3244 34.2475 42.5929 32.9801 43.0756 32.3797C44.2992 30.8565 45.2085 28.7219 45.5004 26.6984C45.6126 25.8534 45.6351 24.1746 45.5341 23.6409C45.4892 23.3963 45.4218 22.9738 45.3769 22.6959C45.0738 20.6835 43.5808 18.0041 41.8408 16.3808C40.3477 14.9689 37.6423 13.5235 36.3738 13.4457C36.3177 13.4457 36.1717 13.4012 36.037 13.3456C35.4308 13.1233 33.2867 13.0121 32.0743 13.1566C30.267 13.3679 27.9657 14.2351 26.5175 15.2579C25.5858 15.925 24.0591 17.4926 23.4417 18.4377C23.1049 18.9491 22.8242 19.3605 22.813 19.3605C22.7906 19.3605 22.6109 19.0936 22.4089 18.7712C21.9711 18.093 20.8934 16.7589 20.4331 16.3475C19.3555 15.358 17.6042 14.2795 16.3133 13.8126C12.7884 12.5229 8.48887 13.001 5.46912 15.0244C5.18848 15.2023 4.93028 15.358 4.89661 15.358C4.86293 15.358 4.82925 12.9898 4.82925 10.0992C4.81803 4.97374 4.81803 4.82921 4.58228 4.39561C4.29041 3.8397 4.14448 3.67293 3.72912 3.39498C3.23519 3.06144 2.6739 2.93914 2.09015 3.02809ZM13.2935 17.9707C14.1018 18.0819 15.4601 18.6378 16.201 19.1492C18.1767 20.5168 19.2881 22.6181 19.2993 25.0307C19.3218 28.833 16.3694 32.0017 12.5863 32.224C10.4871 32.3463 8.51132 31.657 7.09687 30.3006C3.66177 27.0097 4.20061 21.484 8.18577 18.9936C9.74616 18.0263 11.3964 17.6928 13.2935 17.9707ZM35.7788 18.2598C37.0137 18.6489 38.2261 19.4605 39.0904 20.4834C42.4582 24.4637 40.5274 30.5119 35.4084 32.0128C34.8022 32.1907 34.3868 32.2352 33.3877 32.2129C32.6917 32.1907 32.0519 32.1573 31.9621 32.124C31.8722 32.0906 31.6477 32.0239 31.4569 31.9794C29.2679 31.4013 27.2921 29.4779 26.5624 27.2098C26.2481 26.2314 26.1695 24.6193 26.394 23.5964C27.0451 20.5723 29.6944 18.2153 32.7479 17.9485C33.152 17.9151 33.4888 17.8818 33.5 17.8595C33.5898 17.7928 35.1614 18.0708 35.7788 18.2598Z" fill="#141415"></path>
<path d="M45.8708 13.4234C44.8717 13.7236 44.1421 14.7131 44.187 15.6804C44.2094 16.1585 44.4564 16.9034 44.6248 17.0257C44.6697 17.059 45.7923 18.4043 47.1169 20.0276C48.4416 21.6508 49.9121 23.4408 50.3948 24.0189C51.1582 24.9306 51.248 25.0863 51.1133 25.2419C51.0347 25.342 50.8663 25.5421 50.7316 25.6977C50.6081 25.8534 50.0805 26.4871 49.5641 27.0986C49.059 27.7212 48.4865 28.4217 48.2956 28.6551C48.116 28.8886 47.8017 29.2555 47.6221 29.4779C47.0271 30.1561 44.8268 32.8466 44.5574 33.2247C44.1757 33.7694 44.0747 34.5699 44.3217 35.2037C44.737 36.2932 45.6912 36.8714 46.9822 36.8269C47.9139 36.7935 48.4865 36.4044 49.5866 35.048C49.7999 34.7812 50.3836 34.0807 50.8776 33.4915C51.3715 32.9022 52.3818 31.6792 53.1227 30.7787C53.8524 29.8781 54.5035 29.1443 54.5484 29.1443C54.5821 29.1443 54.9413 29.5335 55.323 30.0004C55.7159 30.4785 56.0639 30.8899 56.0976 30.9232C56.1312 30.9566 56.6925 31.6237 57.3324 32.4242C57.9835 33.2135 58.5336 33.8917 58.5672 33.9251C58.6009 33.9584 59.0387 34.481 59.5439 35.0925C60.6889 36.4822 61.3063 36.8491 62.4851 36.838C62.9453 36.8269 63.7648 36.4934 64.1689 36.1487C64.8874 35.5372 65.1231 34.2253 64.6516 33.4359C64.5282 33.2358 62.9565 31.279 61.1604 29.0887C59.3531 26.9096 57.9049 25.064 57.9386 24.9862C57.9835 24.8861 60.2287 22.1177 61.688 20.3722C64.023 17.5927 64.7414 16.6366 64.8425 16.1362C65.0109 15.3469 64.8649 14.7687 64.3485 14.1461C63.428 13.0677 61.5084 12.9787 60.4644 13.9682C60.2623 14.1683 58.8479 15.8361 57.3324 17.6705C55.3454 20.0831 54.5484 20.9726 54.4474 20.8948C54.3688 20.8392 53.8187 20.1832 53.2125 19.4383C52.6063 18.6934 52.0563 18.0263 51.9889 17.9596C51.9328 17.8929 51.1582 16.959 50.2826 15.9028C49.407 14.8354 48.5201 13.857 48.3181 13.7236C47.5547 13.2455 46.7689 13.1455 45.8708 13.4234Z" fill="#141415"></path>
</svg>