<svg width="144" height="40" viewBox="0 0 144 40" fill="none" xmlns="http://www.w3.org/2000/svg">
<path fill-rule="evenodd" clip-rule="evenodd" d="M56.209 13.6885C57.9785 13.6885 59.5272 14.0724 60.8551 14.8385C62.1855 15.6046 63.2116 16.6969 63.9325 18.1162C64.6649 19.525 65.0307 21.1819 65.0307 23.0858C65.0306 24.9896 64.6645 26.652 63.9313 28.0723C63.2104 29.4916 62.1851 30.5838 60.8563 31.3499C59.5267 32.1161 57.9777 32.5 56.209 32.5C54.4394 32.5 52.8839 32.1161 51.5435 31.3499C50.2141 30.5838 49.1828 29.4915 48.4505 28.0723C47.7296 26.652 47.3692 24.9896 47.3692 23.0858C47.3692 21.1819 47.7296 19.5253 48.4505 18.1174C49.1836 16.6966 50.2149 15.6038 51.5435 14.8385C52.8839 14.0724 54.4394 13.6885 56.209 13.6885ZM56.2078 17.6105C55.4655 17.6105 54.8226 17.8188 54.2805 18.2357C53.752 18.6409 53.3469 19.2544 53.0653 20.076C52.7835 20.8883 52.6429 21.892 52.6429 23.0858C52.6429 24.2795 52.7835 25.2882 53.0653 26.1112C53.347 26.9339 53.7518 27.5541 54.2805 27.9709C54.8218 28.3762 55.465 28.5791 56.209 28.5791C56.952 28.5791 57.5885 28.3761 58.1181 27.9709C58.647 27.5532 59.0532 26.9388 59.3358 26.1281C59.6175 25.3052 59.7581 24.2909 59.7582 23.0858C59.7582 21.295 59.4479 19.9372 58.8277 19.0128C58.2082 18.0778 57.3347 17.6106 56.2078 17.6105Z" fill="#18181B"/>
<path fill-rule="evenodd" clip-rule="evenodd" d="M90.2672 13.6885C91.9452 13.6885 93.3648 13.9644 94.5248 14.5163C95.6864 15.0576 96.5598 15.8357 97.1447 16.8491C97.7418 17.8631 98.0401 19.0739 98.0402 20.4815V27.919C98.0402 28.7196 98.0975 29.4634 98.2103 30.1504C98.3339 30.8259 98.5083 31.2544 98.7341 31.4356V32.0088H93.4097C93.277 31.4698 93.1815 30.922 93.1225 30.37C93.1005 30.1651 93.0817 29.9599 93.0658 29.7545C92.9379 29.9446 92.8001 30.1284 92.6494 30.3024C92.0867 30.9673 91.3593 31.5025 90.4687 31.9087C89.5898 32.3016 88.5874 32.4992 87.4614 32.5C86.3459 32.5 85.3422 32.2798 84.4516 31.8399C83.5965 31.4222 82.8764 30.7713 82.3735 29.9633C81.8778 29.1421 81.6302 28.1848 81.6301 27.0911C81.6301 25.4239 82.1199 24.151 83.1 23.2728C84.0804 22.3831 85.4952 21.8021 87.3431 21.5302L90.4361 21.0909C91.0552 21.0004 91.5453 20.8884 91.906 20.7542C92.266 20.6183 92.5312 20.4373 92.7001 20.2124C92.8696 19.9761 92.9547 19.6775 92.9547 19.317C92.9547 18.9463 92.8528 18.608 92.6494 18.3032C92.4576 17.9879 92.1647 17.7403 91.7721 17.5599C91.3882 17.3679 90.9193 17.2714 90.3674 17.2714C89.4893 17.2715 88.7847 17.5021 88.2543 17.9641C87.7253 18.4148 87.4391 19.0358 87.3938 19.825H82.1044C82.1489 18.6305 82.5093 17.5707 83.1857 16.6463C83.8728 15.7121 84.8242 14.9846 86.041 14.4656C87.2577 13.9467 88.6666 13.6877 90.2672 13.6885ZM92.9873 23.3115C92.8081 23.4629 92.6108 23.5929 92.3972 23.694C92.0017 23.886 91.4653 24.0489 90.7897 24.184L89.4888 24.4374C88.6223 24.6063 87.9685 24.8657 87.5278 25.2158C87.0994 25.5643 86.8857 26.055 86.8857 26.6869C86.8858 27.3186 87.1168 27.8195 87.5797 28.1893C88.041 28.5617 88.632 28.7481 89.3536 28.7481C90.0751 28.748 90.7122 28.5905 91.264 28.275C91.8159 27.9471 92.2379 27.4955 92.5311 26.9222C92.8351 26.348 92.9873 25.6943 92.9873 24.9611V23.3115Z" fill="#18181B"/>
<path fill-rule="evenodd" clip-rule="evenodd" d="M105.437 16.773C105.615 16.4289 105.817 16.1103 106.045 15.8184C106.586 15.1314 107.245 14.6068 108.022 14.246C108.799 13.8753 109.673 13.6893 110.642 13.6885C112.096 13.6885 113.358 14.0658 114.428 14.8204C115.499 15.5742 116.321 16.6626 116.895 18.0836C117.469 19.4923 117.757 21.1652 117.757 23.1027C117.757 25.0296 117.464 26.7031 116.878 28.1217C116.293 29.5303 115.454 30.6123 114.36 31.3668C113.279 32.1221 112.011 32.5 110.557 32.5C109.589 32.4999 108.721 32.3308 107.955 31.9931C107.197 31.6515 106.535 31.1281 106.027 30.4702C105.784 30.1547 105.572 29.8047 105.386 29.4227V32.0088H100.315V7.77394H105.437V16.773ZM108.969 17.5924C108.214 17.5924 107.566 17.8238 107.026 18.2851C106.495 18.7358 106.094 19.3779 105.824 20.2124C105.554 21.0345 105.42 21.9981 105.42 23.1027C105.42 24.2173 105.554 25.1868 105.824 26.0098C106.096 26.8319 106.497 27.4684 107.026 27.919C107.566 28.3695 108.214 28.5948 108.969 28.5948C109.735 28.5947 110.377 28.3695 110.896 27.919C111.425 27.4684 111.819 26.8319 112.079 26.0098C112.349 25.1868 112.484 24.2173 112.484 23.1027C112.484 21.9874 112.349 21.0184 112.079 20.1955C111.819 19.3743 111.425 18.7378 110.896 18.2863C110.377 17.8243 109.735 17.5926 108.969 17.5924Z" fill="#18181B"/>
<path fill-rule="evenodd" clip-rule="evenodd" d="M134.864 13.6885C136.52 13.6885 137.991 14.049 139.276 14.7697C140.561 15.4913 141.558 16.5395 142.267 17.9134C142.988 19.2875 143.349 20.9332 143.349 22.8492C143.349 23.5362 143.344 24.0828 143.332 24.4881H130.995C131.044 25.2787 131.195 25.9662 131.45 26.5505C131.766 27.272 132.216 27.8186 132.802 28.1893C133.389 28.5502 134.083 28.7312 134.882 28.7312C135.761 28.7311 136.488 28.5048 137.062 28.0542C137.637 27.5929 137.997 26.9455 138.143 26.1112H143.265C143.107 27.4177 142.662 28.5507 141.93 29.5096C141.209 30.4659 140.245 31.2034 139.04 31.7216C137.834 32.2406 136.431 32.5 134.832 32.5C133.029 32.5 131.462 32.1563 130.134 31.4694C128.804 30.77 127.767 29.722 127.023 28.3257C126.289 26.9293 125.924 25.1993 125.924 23.1365C125.924 21.1757 126.307 19.485 127.073 18.0655C127.839 16.6346 128.899 15.5474 130.251 14.8035C131.603 14.0606 133.14 13.6885 134.864 13.6885ZM134.746 17.3897C133.992 17.3897 133.326 17.5757 132.751 17.9472C132.189 18.3081 131.75 18.8497 131.435 19.5704C131.262 19.9795 131.14 20.4358 131.065 20.9389H138.118C138.067 20.3009 137.941 19.7489 137.738 19.2832C137.478 18.6522 137.095 18.1783 136.589 17.8628C136.082 17.5473 135.468 17.3897 134.746 17.3897Z" fill="#18181B"/>
<path d="M7.29629 7.5C11.3247 7.5002 14.5913 10.7748 14.5914 14.8156V17.5961H17.0207C21.0489 17.5964 24.3156 20.871 24.3157 24.9117C24.3157 28.9499 21.0502 32.2258 17.0207 32.2261H0V14.8144C3.6525e-05 10.7747 3.2665 7.5 7.29629 7.5Z" fill="#18181B"/>
<path d="M73.4987 26.74L77.1915 14.1784H82.4821L76.313 32.01H70.6181L64.2124 14.1784H69.6551L73.4987 26.74Z" fill="#18181B"/>
<path d="M37.7088 27.1346H43.9117C48.4147 27.1346 47.8195 31.969 47.8145 32.0088H32.4025V7.77394H37.7088V27.1346Z" fill="#18181B"/>
<path d="M124.393 32.0088H119.273V7.77394H124.393V32.0088Z" fill="#18181B"/>
</svg>
