<svg xmlns="http://www.w3.org/2000/svg" fill="none" viewBox="0 0 24 25" class="icon-module-scss-module__leGPra__icon" width="24" height="24"><path fill="currentColor" fill-rule="evenodd" d="M2.3 23V1h1v.91l2.002-.4c1.566-.314 3.23-.312 4.888-.002h.002l5.006.902c1.432.286 2.967.288 4.507 0l3.095-.62V12.4c0 1.777-1.408 3.25-3.202 3.59-1.46.312-2.929.314-4.3 0l-5.296-1c-1.433-.286-2.967-.287-4.507 0l-2.195.44V23zm1.1-8.61 1.908-.382c1.658-.31 3.321-.312 4.887.001l5.307 1.002.01.002c1.224.282 2.55.284 3.883-.002l.013-.003c1.403-.263 2.392-1.387 2.392-2.608V3.01l-1.908.381c-1.657.311-3.32.313-4.885 0l-5-.9c-1.54-.289-3.076-.287-4.51 0L3.4 2.91z" clip-rule="evenodd"></path></svg>