<svg xmlns="http://www.w3.org/2000/svg" viewBox="0 0 32 32" fill="currentColor">
  <path d="M13.89 20.03c-5.04 0-9.14-4.1-9.14-9.14s4.1-9.14 9.14-9.14 9.14 4.1 9.14 9.14-4.1 9.14-9.14 9.14m0-16c-3.78 0-6.86 3.08-6.86 6.86s3.08 6.86 6.86 6.86 6.86-3.08 6.86-6.86-3.08-6.86-6.86-6.86"></path><path d="M13.89 24.6c-3.51 0-7.02-1.34-9.7-4.01a1.14 1.14 0 0 1 0-1.62 1.14 1.14 0 0 1 1.62 0c4.46 4.46 11.71 4.46 16.16 0 4.46-4.46 4.46-11.71 0-16.16a1.14 1.14 0 0 1 0-1.62 1.14 1.14 0 0 1 1.62 0c5.35 5.35 5.35 14.05 0 19.4a13.7 13.7 0 0 1-9.7 4.01"></path><path d="M19.6 31.46h-5.71c-.63 0-1.14-.51-1.14-1.14v-6.86a1.14 1.14 0 1 1 2.28 0v5.71h4.57a1.14 1.14 0 1 1 0 2.28Z"></path><path d="M13.89 31.46H8.18a1.14 1.14 0 1 1 0-2.28h5.71a1.14 1.14 0 1 1 0 2.28"></path>
</svg>