<svg width="24" height="24" viewBox="0 0 24 24" fill="none" xmlns="http://www.w3.org/2000/svg">
<g clip-path="url(#clip0_12570_21201)">
<path d="M12.4268 0C16.457 6.0527e-08 19.9507 1.72879 22.1582 4.57129L23.8301 3.60742L22.9912 11.0986L16.085 8.0791L17.6992 7.14648C16.4023 5.69998 14.5264 4.84863 12.4268 4.84863C8.39035 4.84875 5.31934 7.96356 5.31934 12C5.31941 16.0364 8.3904 19.1298 12.4268 19.1299C15.0811 19.1299 17.3408 17.7695 18.5693 15.6416L22.9355 18.2744C20.8295 21.7844 16.9239 24 12.4268 24C5.42883 23.9999 0.164136 18.8224 0.164062 12C0.164063 5.17748 5.42878 0.000107861 12.4268 0Z" fill="url(#paint0_linear_12570_21201)"/>
</g>
<defs>
<linearGradient id="paint0_linear_12570_21201" x1="9.10273" y1="17.2252" x2="19.3575" y2="4.06828" gradientUnits="userSpaceOnUse">
<stop offset="0.0913462" stop-color="#D40000"/>
<stop offset="1" stop-color="#9767FF"/>
</linearGradient>
<clipPath id="clip0_12570_21201">
<rect width="24" height="24" fill="white"/>
</clipPath>
</defs>
</svg>
