<svg xmlns="http://www.w3.org/2000/svg" fill="none" viewBox="0 0 16 16" width="16" height="16"><path fill="currentColor" fill-rule="evenodd" d="M10.24 6.538c-1.02-.866-2.231-1.996-2.777-2.921l.874-.457c.454.769 1.542 1.803 2.573 2.679a39 39 0 0 0 1.858 1.479l.03.021.008.007.501.366-.495.373-.009.007-.028.022a28 28 0 0 0-.517.402c-.342.27-.808.649-1.308 1.078-1.016.874-2.115 1.916-2.624 2.698l-.853-.49c.592-.912 1.793-2.035 2.802-2.902.302-.26.592-.501.85-.712H3.3v-.941H11.1c-.263-.21-.556-.45-.861-.71" clip-rule="evenodd"/></svg>
