<svg width="168" height="40" viewBox="0 0 168 40" fill="none" xmlns="http://www.w3.org/2000/svg">
<path d="M159.002 16.5179H160.86V13.1699H163.322V16.5179H165.547V18.3539H163.322V24.3155C163.322 24.5747 163.33 24.7979 163.344 24.9851C163.373 25.1723 163.423 25.3307 163.495 25.4603C163.582 25.5899 163.704 25.6907 163.862 25.7627C164.021 25.8203 164.237 25.8491 164.51 25.8491C164.683 25.8491 164.856 25.8491 165.029 25.8491C165.202 25.8347 165.374 25.8059 165.547 25.7627V27.6635C165.274 27.6923 165.007 27.7211 164.748 27.7499C164.489 27.7787 164.222 27.7931 163.949 27.7931C163.301 27.7931 162.775 27.7355 162.372 27.6203C161.983 27.4907 161.674 27.3107 161.443 27.0803C161.227 26.8355 161.076 26.5331 160.99 26.1731C160.918 25.8131 160.874 25.4027 160.86 24.9419V18.3539H159.002V16.5179Z" fill="#000"/>
<path d="M155.661 20.256C155.56 19.5648 155.28 19.0464 154.819 18.7008C154.372 18.3408 153.804 18.1608 153.112 18.1608C152.796 18.1608 152.457 18.2184 152.097 18.3336C151.737 18.4344 151.406 18.636 151.104 18.9384C150.801 19.2264 150.549 19.6368 150.348 20.1696C150.146 20.688 150.045 21.372 150.045 22.2216C150.045 22.6824 150.096 23.1432 150.196 23.604C150.312 24.0648 150.484 24.4752 150.715 24.8352C150.96 25.1952 151.269 25.4904 151.644 25.7208C152.018 25.9368 152.472 26.0448 153.004 26.0448C153.724 26.0448 154.315 25.8216 154.776 25.3752C155.251 24.9288 155.546 24.3024 155.661 23.496H158.124C157.893 24.9504 157.339 26.0664 156.46 26.844C155.596 27.6072 154.444 27.9888 153.004 27.9888C152.126 27.9888 151.348 27.8448 150.672 27.5568C150.009 27.2544 149.448 26.8512 148.987 26.3472C148.526 25.8288 148.173 25.2168 147.928 24.5112C147.698 23.8056 147.583 23.0424 147.583 22.2216C147.583 21.3864 147.698 20.6016 147.928 19.8672C148.159 19.1328 148.504 18.4992 148.965 17.9664C149.426 17.4192 149.995 16.9944 150.672 16.692C151.363 16.3752 152.169 16.2168 153.091 16.2168C153.739 16.2168 154.351 16.3032 154.927 16.476C155.517 16.6344 156.036 16.8792 156.482 17.2104C156.943 17.5416 157.317 17.9592 157.605 18.4632C157.893 18.9672 158.066 19.5648 158.124 20.256H155.661Z" fill="#000"/>
<path d="M143.788 21.12C143.76 20.7312 143.673 20.3568 143.529 19.9968C143.4 19.6368 143.212 19.3272 142.968 19.068C142.737 18.7944 142.449 18.5784 142.104 18.42C141.772 18.2472 141.398 18.1608 140.98 18.1608C140.548 18.1608 140.152 18.24 139.792 18.3984C139.447 18.5424 139.144 18.7512 138.885 19.0248C138.64 19.284 138.439 19.5936 138.28 19.9536C138.136 20.3136 138.057 20.7024 138.043 21.12H143.788ZM138.043 22.74C138.043 23.172 138.1 23.5896 138.216 23.9928C138.345 24.396 138.532 24.7488 138.777 25.0512C139.022 25.3536 139.332 25.5984 139.706 25.7856C140.08 25.9584 140.527 26.0448 141.045 26.0448C141.765 26.0448 142.341 25.8936 142.773 25.5912C143.22 25.2744 143.551 24.8064 143.767 24.1872H146.1C145.97 24.792 145.747 25.332 145.43 25.8072C145.113 26.2824 144.732 26.6856 144.285 27.0168C143.839 27.3336 143.335 27.5712 142.773 27.7296C142.226 27.9024 141.65 27.9888 141.045 27.9888C140.167 27.9888 139.389 27.8448 138.712 27.5568C138.036 27.2688 137.46 26.8656 136.984 26.3472C136.524 25.8288 136.171 25.2096 135.926 24.4896C135.696 23.7696 135.58 22.9776 135.58 22.1136C135.58 21.3216 135.703 20.5728 135.948 19.8672C136.207 19.1472 136.567 18.5208 137.028 17.988C137.503 17.4408 138.072 17.0088 138.734 16.692C139.396 16.3752 140.145 16.2168 140.98 16.2168C141.859 16.2168 142.644 16.404 143.335 16.7784C144.04 17.1384 144.624 17.6208 145.084 18.2256C145.545 18.8304 145.876 19.5288 146.078 20.3208C146.294 21.0984 146.352 21.9048 146.251 22.74H138.043Z" fill="#000"/>
<path d="M130.975 12.2637H133.437V14.5965H130.975V12.2637ZM130.975 16.5189H133.437V28.6365C133.437 29.7453 133.193 30.6021 132.703 31.2069C132.213 31.8117 131.393 32.1141 130.241 32.1141C129.996 32.1141 129.787 32.1069 129.614 32.0925C129.456 32.0781 129.297 32.0565 129.139 32.0277V30.0837C129.297 30.1125 129.449 30.1341 129.593 30.1485C129.737 30.1629 129.866 30.1701 129.981 30.1701C130.428 30.1701 130.701 30.0333 130.802 29.7597C130.917 29.4861 130.975 29.0757 130.975 28.5285V16.5189Z" fill="#000"/>
<path d="M123.226 27.9888C122.333 27.9888 121.534 27.8448 120.828 27.5568C120.137 27.2544 119.547 26.844 119.057 26.3256C118.582 25.8072 118.215 25.188 117.955 24.468C117.711 23.748 117.588 22.956 117.588 22.092C117.588 21.2424 117.711 20.4576 117.955 19.7376C118.215 19.0176 118.582 18.3984 119.057 17.88C119.547 17.3616 120.137 16.9584 120.828 16.6704C121.534 16.368 122.333 16.2168 123.226 16.2168C124.119 16.2168 124.911 16.368 125.602 16.6704C126.307 16.9584 126.898 17.3616 127.373 17.88C127.863 18.3984 128.23 19.0176 128.475 19.7376C128.734 20.4576 128.863 21.2424 128.863 22.092C128.863 22.956 128.734 23.748 128.475 24.468C128.23 25.188 127.863 25.8072 127.373 26.3256C126.898 26.844 126.307 27.2544 125.602 27.5568C124.911 27.8448 124.119 27.9888 123.226 27.9888ZM123.226 26.0448C123.773 26.0448 124.248 25.9296 124.651 25.6992C125.055 25.4688 125.386 25.1664 125.645 24.792C125.904 24.4176 126.091 24 126.207 23.5392C126.336 23.064 126.401 22.5816 126.401 22.092C126.401 21.6168 126.336 21.1416 126.207 20.6664C126.091 20.1912 125.904 19.7736 125.645 19.4136C125.386 19.0392 125.055 18.7368 124.651 18.5064C124.248 18.276 123.773 18.1608 123.226 18.1608C122.679 18.1608 122.203 18.276 121.8 18.5064C121.397 18.7368 121.066 19.0392 120.807 19.4136C120.547 19.7736 120.353 20.1912 120.223 20.6664C120.108 21.1416 120.051 21.6168 120.051 22.092C120.051 22.5816 120.108 23.064 120.223 23.5392C120.353 24 120.547 24.4176 120.807 24.792C121.066 25.1664 121.397 25.4688 121.8 25.6992C122.203 25.9296 122.679 26.0448 123.226 26.0448Z" fill="#000"/>
<path d="M110.892 16.5192H113.204V18.6792H113.247C113.319 18.3768 113.456 18.0816 113.657 17.7936C113.873 17.5056 114.125 17.2464 114.413 17.016C114.716 16.7712 115.047 16.5768 115.407 16.4328C115.767 16.2888 116.134 16.2168 116.508 16.2168C116.796 16.2168 116.991 16.224 117.092 16.2384C117.207 16.2528 117.322 16.2672 117.437 16.2816V18.6576C117.264 18.6288 117.084 18.6072 116.897 18.5928C116.724 18.564 116.552 18.5496 116.379 18.5496C115.961 18.5496 115.565 18.636 115.191 18.8088C114.831 18.9672 114.514 19.212 114.24 19.5432C113.967 19.86 113.751 20.256 113.592 20.7312C113.434 21.2064 113.355 21.7536 113.355 22.3728V27.6864H110.892V16.5192Z" fill="#000"/>
<path d="M96.8309 12.2637H103.635C104.729 12.2637 105.622 12.4221 106.313 12.7389C107.005 13.0557 107.537 13.4517 107.912 13.9269C108.286 14.4021 108.538 14.9205 108.668 15.4821C108.812 16.0437 108.884 16.5621 108.884 17.0373C108.884 17.5125 108.812 18.0309 108.668 18.5925C108.538 19.1397 108.286 19.6509 107.912 20.1261C107.537 20.6013 107.005 20.9973 106.313 21.3141C105.622 21.6165 104.729 21.7677 103.635 21.7677H99.5309V27.6861H96.8309V12.2637ZM99.5309 19.5645H103.484C103.786 19.5645 104.096 19.5213 104.413 19.4349C104.729 19.3485 105.017 19.2117 105.277 19.0245C105.55 18.8229 105.766 18.5637 105.925 18.2469C106.097 17.9157 106.184 17.5053 106.184 17.0157C106.184 16.5117 106.112 16.0941 105.968 15.7629C105.824 15.4317 105.629 15.1725 105.385 14.9853C105.14 14.7837 104.859 14.6469 104.542 14.5749C104.225 14.5029 103.887 14.4669 103.527 14.4669H99.5309V19.5645Z" fill="#000"/>
<path d="M92.1512 21.12C92.1224 20.7312 92.036 20.3568 91.892 19.9968C91.7624 19.6368 91.5752 19.3272 91.3304 19.068C91.1 18.7944 90.812 18.5784 90.4664 18.42C90.1352 18.2472 89.7608 18.1608 89.3432 18.1608C88.9112 18.1608 88.5152 18.24 88.1552 18.3984C87.8096 18.5424 87.5072 18.7512 87.248 19.0248C87.0032 19.284 86.8016 19.5936 86.6432 19.9536C86.4992 20.3136 86.42 20.7024 86.4056 21.12H92.1512ZM86.4056 22.74C86.4056 23.172 86.4632 23.5896 86.5784 23.9928C86.708 24.396 86.8952 24.7488 87.14 25.0512C87.3848 25.3536 87.6944 25.5984 88.0688 25.7856C88.4432 25.9584 88.8896 26.0448 89.408 26.0448C90.128 26.0448 90.704 25.8936 91.136 25.5912C91.5824 25.2744 91.9136 24.8064 92.1296 24.1872H94.4624C94.3328 24.792 94.1096 25.332 93.7928 25.8072C93.476 26.2824 93.0944 26.6856 92.648 27.0168C92.2016 27.3336 91.6976 27.5712 91.136 27.7296C90.5888 27.9024 90.0128 27.9888 89.408 27.9888C88.5296 27.9888 87.752 27.8448 87.0752 27.5568C86.3984 27.2688 85.8224 26.8656 85.3472 26.3472C84.8864 25.8288 84.5336 25.2096 84.2888 24.4896C84.0584 23.7696 83.9432 22.9776 83.9432 22.1136C83.9432 21.3216 84.0656 20.5728 84.3104 19.8672C84.5696 19.1472 84.9296 18.5208 85.3904 17.988C85.8656 17.4408 86.4344 17.0088 87.0968 16.692C87.7592 16.3752 88.508 16.2168 89.3432 16.2168C90.2216 16.2168 91.0064 16.404 91.6976 16.7784C92.4032 17.1384 92.9864 17.6208 93.4472 18.2256C93.908 18.8304 94.2392 19.5288 94.4408 20.3208C94.6568 21.0984 94.7144 21.9048 94.6136 22.74H86.4056Z" fill="#000"/>
<path d="M65.6884 16.5192H68.0212V18.0744H68.086C68.2732 17.8008 68.4748 17.5488 68.6908 17.3184C68.9068 17.088 69.1444 16.8936 69.4036 16.7352C69.6772 16.5768 69.9868 16.4544 70.3324 16.368C70.6779 16.2672 71.074 16.2168 71.5204 16.2168C72.1972 16.2168 72.8236 16.368 73.3996 16.6704C73.99 16.9728 74.4076 17.4408 74.6524 18.0744C75.07 17.4984 75.5524 17.0448 76.0996 16.7136C76.6468 16.3824 77.3308 16.2168 78.1516 16.2168C79.3324 16.2168 80.2468 16.5048 80.8948 17.0808C81.5572 17.6568 81.8884 18.6216 81.8884 19.9752V27.6864H79.426V21.1632C79.426 20.7168 79.4116 20.3136 79.3828 19.9536C79.354 19.5792 79.2676 19.2624 79.1236 19.0032C78.994 18.7296 78.7924 18.5208 78.5188 18.3768C78.2452 18.2328 77.8708 18.1608 77.3956 18.1608C76.5604 18.1608 75.9556 18.42 75.5812 18.9384C75.2068 19.4568 75.0196 20.1912 75.0196 21.1416V27.6864H72.5572V20.5152C72.5572 19.7376 72.4132 19.1544 72.1252 18.7656C71.8516 18.3624 71.3404 18.1608 70.5916 18.1608C70.2747 18.1608 69.9652 18.2256 69.6628 18.3552C69.3748 18.4848 69.1156 18.672 68.8852 18.9168C68.6692 19.1616 68.4892 19.464 68.3452 19.824C68.2156 20.184 68.1508 20.5944 68.1508 21.0552V27.6864H65.6884V16.5192Z" fill="#000"/>
<path d="M58.0037 27.9888C57.1109 27.9888 56.3117 27.8448 55.6061 27.5568C54.9149 27.2544 54.3245 26.844 53.8349 26.3256C53.3597 25.8072 52.9925 25.188 52.7333 24.468C52.4885 23.748 52.3661 22.956 52.3661 22.092C52.3661 21.2424 52.4885 20.4576 52.7333 19.7376C52.9925 19.0176 53.3597 18.3984 53.8349 17.88C54.3245 17.3616 54.9149 16.9584 55.6061 16.6704C56.3117 16.368 57.1109 16.2168 58.0037 16.2168C58.8965 16.2168 59.6885 16.368 60.3797 16.6704C61.0853 16.9584 61.6757 17.3616 62.1509 17.88C62.6405 18.3984 63.0077 19.0176 63.2525 19.7376C63.5117 20.4576 63.6413 21.2424 63.6413 22.092C63.6413 22.956 63.5117 23.748 63.2525 24.468C63.0077 25.188 62.6405 25.8072 62.1509 26.3256C61.6757 26.844 61.0853 27.2544 60.3797 27.5568C59.6885 27.8448 58.8965 27.9888 58.0037 27.9888ZM58.0037 26.0448C58.5509 26.0448 59.0261 25.9296 59.4293 25.6992C59.8325 25.4688 60.1637 25.1664 60.4229 24.792C60.6821 24.4176 60.8693 24 60.9845 23.5392C61.1141 23.064 61.1789 22.5816 61.1789 22.092C61.1789 21.6168 61.1141 21.1416 60.9845 20.6664C60.8693 20.1912 60.6821 19.7736 60.4229 19.4136C60.1637 19.0392 59.8325 18.7368 59.4293 18.5064C59.0261 18.276 58.5509 18.1608 58.0037 18.1608C57.4565 18.1608 56.9813 18.276 56.5781 18.5064C56.1749 18.7368 55.8437 19.0392 55.5845 19.4136C55.3253 19.7736 55.1309 20.1912 55.0013 20.6664C54.8861 21.1416 54.8285 21.6168 54.8285 22.092C54.8285 22.5816 54.8861 23.064 55.0013 23.5392C55.1309 24 55.3253 24.4176 55.5845 24.792C55.8437 25.1664 56.1749 25.4688 56.5781 25.6992C56.9813 25.9296 57.4565 26.0448 58.0037 26.0448Z" fill="#000"/>
<path d="M37.577 12.2637H40.277V18.3981H47.297V12.2637H49.997V27.6861H47.297V20.7309H40.277V27.6861H37.577V12.2637Z" fill="#000"/>
<path d="M2.00037 10.3247C2.00037 9.25193 2.5205 8.24549 3.39645 7.62095C4.2724 6.99642 5.39754 6.83212 6.41712 7.17812L10.2528 8.47833C11.5597 8.92334 12.9743 8.92334 14.2811 8.47833L18.1168 7.17812C19.4976 6.70917 21.0232 7.18791 21.8861 8.35865C22.749 9.52938 22.749 11.1223 21.8861 12.293C21.0232 13.4638 19.4976 13.9414 18.1168 13.4735L14.2811 12.1701C12.9753 11.7272 11.5586 11.7272 10.2528 12.1701L6.41712 13.4714C5.39754 13.8174 4.2724 13.652 3.39645 13.0285C2.5205 12.404 2.00037 11.3976 2.00037 10.3247ZM9.46718 19.6177C9.46718 18.546 9.98731 17.5385 10.8633 16.915C11.7392 16.2905 12.8633 16.1251 13.8839 16.4711L17.7196 17.7724C19.0265 18.2163 20.4411 18.2163 21.7479 17.7724L25.5836 16.4711C26.9645 16.0032 28.49 16.4809 29.3529 17.6516C30.2147 18.8224 30.2147 20.4153 29.3529 21.586C28.49 22.7567 26.9645 23.2355 25.5836 22.7665L21.7479 21.4641C20.4422 21.0202 19.0254 21.0202 17.7196 21.4641L13.8839 22.7654C12.8633 23.1114 11.7392 22.9461 10.8633 22.3215C9.98731 21.6981 9.46718 20.6905 9.46718 19.6177ZM2.00037 28.9118C2.00037 27.839 2.5205 26.8326 3.39645 26.208C4.2724 25.5846 5.39754 25.4192 6.41712 25.7652L10.2528 27.0665C11.5597 27.5104 12.9743 27.5104 14.2811 27.0665L18.1168 25.7652C19.4976 25.2973 21.0232 25.775 21.8861 26.9457C22.749 28.1165 22.749 29.7093 21.8861 30.8801C21.0232 32.0508 19.4976 32.5285 18.1168 32.0606L14.2811 30.7582C12.9753 30.3143 11.5586 30.3143 10.2528 30.7582L6.41712 32.0584C5.39754 32.4044 4.2724 32.2401 3.39645 31.6156C2.5205 30.9911 2.00037 29.9846 2.00037 28.9118Z" fill="#000"/>
</svg>
