<svg xmlns="http://www.w3.org/2000/svg" fill="none" viewBox="0 0 24 24" class="icon-module-scss-module__leGPra__icon" width="24" height="24"><path fill="currentColor" fill-rule="evenodd" d="M5.8 2.3a3.51 3.51 0 0 0-3.5 3.5v16h16c1.924 0 3.5-1.576 3.5-3.5v-16zM1.3 5.8c0-2.476 2.024-4.5 4.5-4.5h17v17c0 2.476-2.024 4.5-4.5 4.5h-17zm11.2 2.1v1h.4c.976 0 1.8.824 1.8 1.8h-1c0-.424-.376-.8-.8-.8h-1.7c-.424 0-.8.376-.8.8s.376.8.8.8h1.6c.976 0 1.8.824 1.8 1.8s-.824 1.8-1.8 1.8h-.3v1.1h-1v-1.1h-.4c-.976 0-1.8-.824-1.8-1.8h1c0 .424.376.8.8.8h1.7c.424 0 .8-.376.8-.8s-.376-.8-.8-.8h-1.6c-.976 0-1.8-.824-1.8-1.8s.824-1.8 1.8-1.8h.3v-1z" clip-rule="evenodd"></path></svg>