<svg fill="none" height="40" viewbox="0 0 130 40" width="130" xmlns="http://www.w3.org/2000/svg">
<path d="M28.9829 17.083L28.9437 16.9785L24.9864 6.65587C24.9063 6.45318 24.7638 6.28124 24.5795 6.16494C24.442 6.0769 24.2858 6.02231 24.1233 6.00553C23.9609 5.98876 23.7968 6.01027 23.6442 6.06833C23.4916 6.12641 23.3547 6.21942 23.2445 6.33993C23.1343 6.46043 23.0539 6.60508 23.0097 6.76227L20.3385 14.9401H9.52124L6.85005 6.76227C6.8055 6.60531 6.72488 6.46094 6.61464 6.34067C6.50439 6.22039 6.36757 6.12754 6.21508 6.06952C6.06259 6.01149 5.89865 5.9899 5.73633 6.00647C5.57402 6.02304 5.41783 6.0773 5.2802 6.16494C5.09589 6.28124 4.95337 6.45318 4.87327 6.65587L0.917834 16.9803L0.876768 17.083C0.307302 18.5713 0.237145 20.2044 0.676875 21.736C1.11661 23.2677 2.04239 24.6148 3.31462 25.5744L3.32955 25.5856L3.36315 25.6117L9.3831 30.1234L14.1841 33.7522C14.397 33.913 14.6565 34 14.9233 34C15.1901 34 15.4496 33.913 15.6625 33.7522L20.4635 30.1234L26.5264 25.5856L26.5432 25.5725C27.8154 24.6133 28.7413 23.2666 29.1813 21.7353C29.6214 20.2041 29.5518 18.5712 28.9829 17.083Z" fill="#141415"></path>
<path d="M52.6745 16.5491H56.9268C56.2174 12.0281 52.3031 8.87907 47.209 8.87907C41.1815 8.87907 36.6586 13.3105 36.6586 20.7323C36.6586 28.0216 40.9781 32.5426 47.3322 32.5426C53.0348 32.5426 57.1172 28.8746 57.1172 22.9368V20.1705H47.7708V23.4315H53.0796C53.0124 26.7168 50.8191 28.7962 47.3546 28.7962C43.4981 28.7962 40.8549 25.9067 40.8549 20.6875C40.8549 15.502 43.5429 12.6236 47.265 12.6236C50.0425 12.6236 51.9428 14.1076 52.6745 16.5491Z" fill="#141415"></path>
<path d="M63.9995 32.2271H59.9283V14.9606H63.9995V32.2271Z" fill="#141415"></path>
<path d="M64.3317 10.0121C64.3317 11.2254 63.2752 12.2166 61.9816 12.2166H61.9741C60.6693 12.2166 59.6203 11.2385 59.6203 10.0121C59.6203 8.78573 60.688 7.7964 61.9816 7.7964C63.2752 7.7964 64.3317 8.79879 64.3317 10.0121Z" fill="#141415"></path>
<path d="M76.1906 14.9606H72.7821V10.8129H68.7109V14.9606H66.26V18.1097H68.7109V27.7155C68.6885 30.9653 71.0517 32.5688 74.1093 32.4736C74.9238 32.4574 75.7315 32.3209 76.5061 32.0685L75.8192 28.884C75.4301 28.9849 75.0302 29.0382 74.6282 29.0426C73.6034 29.0426 72.7821 28.6824 72.7821 27.0397V18.1003H76.1906V14.9606Z" fill="#141415"></path>
<path d="M93.6588 32.2271H79.3415V9.19265H83.5154V28.729H93.6588V32.2271Z" fill="#141415"></path>
<path clip-rule="evenodd" d="M101.458 32.5762C104.168 32.5762 105.786 31.305 106.529 29.8546H106.664V32.2271H110.584V20.6651C110.584 16.0993 106.862 14.7273 103.565 14.7273C99.9325 14.7273 97.1437 16.3457 96.244 19.4947L100.046 20.036C100.45 18.8545 101.598 17.8427 103.593 17.8427C105.484 17.8427 106.518 18.8097 106.518 20.5083V20.5755C106.518 21.677 105.428 21.7916 102.75 22.0732C102.641 22.0846 102.531 22.0963 102.417 22.1083C102.36 22.1143 102.302 22.1205 102.243 22.1267C98.8928 22.487 95.6877 23.4875 95.6877 27.3795C95.6765 30.7768 98.161 32.5762 101.458 32.5762ZM102.796 29.5896C101.097 29.5896 99.8821 28.813 99.8821 27.3179C99.8821 25.7536 101.243 25.1021 103.055 24.8427C103.107 24.8356 103.161 24.8283 103.218 24.8207L103.221 24.8202C104.332 24.67 106.288 24.4054 106.789 24.0008V26.0355C106.8 27.9525 105.247 29.584 102.796 29.584V29.5896Z" fill="#141415" fill-rule="evenodd"></path>
<path clip-rule="evenodd" d="M117.585 32.2271H113.581V9.19265H117.649V17.8091H117.821C118.44 16.5603 119.712 14.7273 122.76 14.7273C126.753 14.7273 129.89 17.8539 129.89 23.6125C129.89 29.3021 126.842 32.5314 122.771 32.5314C119.801 32.5314 118.463 30.7656 117.821 29.5056H117.585V32.2271ZM121.634 18.0667C119.013 18.0667 117.574 20.2302 117.574 23.5901C117.574 26.9408 119.036 29.1901 121.634 29.1901C124.324 29.1901 125.741 26.8083 125.741 23.5901C125.741 20.372 124.345 18.0667 121.634 18.0667Z" fill="#141415" fill-rule="evenodd"></path>
</svg>