<svg xmlns="http://www.w3.org/2000/svg" viewBox="0 0 24 24" fill="currentColor">
  <path fill-rule="evenodd" clip-rule="evenodd" d="M15.9925 7.77704C20.5297 7.76561 24.2213 11.4341 24.2213 15.9713C24.2212 20.5081 20.5529 24.1999 16.016 24.2C11.6205 24.2111 8.01785 20.768 7.79724 16.4277L7.79836 16.0059C7.78692 11.4688 11.4555 7.77716 15.9925 7.77704ZM15.9925 10.6677C13.1364 10.6678 10.8169 12.9097 10.6745 15.7301L10.6667 16.0169C10.6782 18.9655 13.0675 21.3429 16.016 21.3429C18.9644 21.3313 21.3419 18.942 21.3419 15.9936C21.3303 13.0452 18.9411 10.6677 15.9925 10.6677Z"></path><path d="M24.5295 5.5248C25.5808 5.5248 26.4501 6.38271 26.4501 7.44556C26.45 8.49689 25.5923 9.36521 24.5295 9.36521C23.4783 9.36491 22.6099 8.50815 22.6097 7.44556C22.6097 6.39431 23.4783 5.52511 24.5295 5.5248Z"></path><path fill-rule="evenodd" clip-rule="evenodd" d="M15.9703 0.00583091C20.3127 -0.0055958 20.8613 0.00508391 22.564 0.085072C24.2668 0.153643 25.4331 0.428643 26.4501 0.817215C27.5013 1.22858 28.3927 1.76536 29.2839 2.65651C30.1753 3.54793 30.724 4.43989 31.1355 5.49132C31.5353 6.50835 31.8099 7.67383 31.8899 9.37637C31.9584 10.6536 31.9885 11.2819 31.9992 13.3485L32.0083 18.594C32.006 20.6601 31.9845 21.2881 31.9245 22.5649C31.8559 24.2679 31.5809 25.434 31.1923 26.4512C30.7811 27.5023 30.2443 28.3936 29.3531 29.2849C28.4616 30.1763 27.5696 30.7249 26.5183 31.1364C25.5012 31.5364 24.3357 31.8109 22.6332 31.8909C21.3559 31.9509 20.7277 31.9789 18.6611 31.9891L13.4155 31.998C11.3494 31.9959 10.7215 31.9743 9.44456 31.9143C7.74171 31.8457 6.57555 31.5708 5.5584 31.1821C4.50723 30.7708 3.61592 30.234 2.72469 29.3429C1.83327 28.4515 1.28456 27.5595 0.873131 26.5081C0.473173 25.4909 0.198699 24.3256 0.118667 22.6229C0.0272384 20.9201 0.00371153 20.3709 0.00371153 16.0281C-0.00771573 11.6858 0.0040898 11.1369 0.0840687 9.4344C0.152635 7.73167 0.426567 6.56533 0.815095 5.54824C1.22653 4.49681 1.76407 3.60485 2.65549 2.71343C3.54687 1.82211 4.43896 1.27437 5.49032 0.862975C6.38028 0.513009 7.3838 0.259127 8.76152 0.147572L9.37536 0.11967C11.0782 0.0282416 11.6274 0.00583091 15.9703 0.00583091ZM15.9925 2.87413C11.7185 2.88556 11.2152 2.89681 9.5238 2.97681C7.95835 3.05684 7.11276 3.31996 6.55281 3.53708C5.79856 3.83423 5.2724 4.17687 4.71241 4.73687C4.16396 5.29677 3.80948 5.82307 3.5238 6.57727C3.30669 7.13727 3.04436 7.99447 2.9758 9.54824C2.8958 11.2397 2.89545 11.7428 2.89545 16.0169C2.89545 20.2911 2.91813 20.7944 2.99812 22.4857C3.07815 24.0512 3.34128 24.8968 3.5584 25.4567C3.85555 26.2109 4.19817 26.7371 4.75817 27.2971C5.31816 27.8457 5.85572 28.2 6.59857 28.4857C7.15853 28.7029 8.01569 28.9652 9.56956 29.0337C11.261 29.1137 11.7642 29.1141 16.0383 29.1141C20.3127 29.1141 20.8156 29.0913 22.5071 29.0113C24.0724 28.9315 24.918 28.6683 25.478 28.4512C26.2323 28.1541 26.7585 27.8113 27.3184 27.2513C27.8671 26.6913 28.2213 26.1537 28.5071 25.4109C28.7243 24.8509 28.9876 23.994 29.0563 22.44C29.1363 20.7485 29.1355 20.2453 29.1355 15.9713C29.1355 11.697 29.1127 11.1939 29.0327 9.50248C28.9527 7.93703 28.6896 7.09151 28.4725 6.53151C28.1867 5.77721 27.8327 5.25111 27.2727 4.69111C26.7127 4.13111 26.1751 3.78819 25.4323 3.50248C24.8723 3.28537 24.0152 3.02193 22.4613 2.95337C20.7699 2.87339 20.2668 2.87413 15.9925 2.87413Z"></path>
</svg>