<svg xmlns="http://www.w3.org/2000/svg" viewBox="0 0 24 24" fill="currentColor">
  <!-- Generator: Adobe Illustrator 29.7.1, SVG Export Plug-In . SVG Version: 2.1.1 Build 8) --><path d="M12.27,19.21c-.89,0-1.6-.72-1.6-1.6s.72-1.6,1.6-1.6,1.6.72,1.6,1.6-.72,1.6-1.6,1.6Z"></path><path d="M19.97,21.43c.17.17.17.46,0,.63,0,0-1.41,1.17-3.95,1.17-1.42.06-2.82-.38-3.95-1.23-.15-.18-.12-.46.06-.61.16-.13.39-.13.55,0,.96.7,2.46,1.01,3.33,1.01s2.37-.28,3.34-.97c.17-.17.46-.17.63,0Z"></path><path d="M21.28,17.66c.04.88-.65,1.63-1.54,1.66h-.08s-1.59,0-1.59-1.66c0-.88.72-1.6,1.6-1.6s1.6.72,1.6,1.6Z"></path><path d="M16,0C7.16,0,0,7.16,0,16s7.16,16,16,16,16-7.16,16-16S24.84,0,16,0ZM25.38,18.13c.02.23.02.47,0,.7,0,3.59-4.18,6.5-9.33,6.5s-9.33-2.92-9.33-6.5c-.02-.23-.02-.47,0-.7-.23-.1-.45-.25-.63-.42-.94-.88-.99-2.36-.1-3.3.88-.94,2.36-.99,3.3-.1,1.85-1.25,4.01-1.93,6.24-1.97l1.18-5.55h0c.06-.28.33-.45.59-.39l3.92.78c.25-.44.7-.73,1.21-.78.88-.1,1.67.54,1.76,1.42.1.88-.54,1.67-1.42,1.76-.88.1-1.67-.54-1.76-1.42l-3.42-.72-1.04,4.99c2.2.05,4.34.73,6.16,1.97.41-.39.96-.63,1.53-.65,1.29-.04,2.37.96,2.42,2.25.02.9-.49,1.73-1.29,2.13Z"></path>
</svg>