<svg width="64" height="64" viewBox="0 0 64 64" fill="none" xmlns="http://www.w3.org/2000/svg">
<g clip-path="url(#clip0_506_2039)">
<path d="M21.7791 10.1059C22.3977 8.48207 23.2483 6.98714 24.5112 5.77573C29.5631 0.852758 37.9141 2.08994 41.3421 8.27587C43.9196 12.9669 46.6517 17.5548 49.3065 22.1942C53.7397 29.9008 58.2245 37.6075 62.6062 45.3399C66.292 51.8093 62.2969 59.9799 54.9769 61.0882C50.4921 61.7584 46.2909 59.6964 43.9711 55.6755C40.0791 48.8968 36.1614 42.1181 32.2694 35.3651C32.1921 35.2104 32.089 35.0816 31.9859 34.9527C31.5735 34.6176 31.3931 34.1279 31.1353 33.6897C29.4084 30.6483 27.63 27.6327 25.9031 24.617C24.7947 22.6582 23.6349 20.7251 22.5266 18.7662C21.5214 17.0135 21.0574 15.1062 21.109 13.0957C21.1863 12.0648 21.3152 11.0338 21.7791 10.1059Z" fill="#3C8BD9"/>
<path d="M21.7792 10.106C21.5472 11.0338 21.341 11.9617 21.2895 12.9412C21.2121 15.1062 21.7534 17.1167 22.8359 18.9982C25.6712 23.8696 28.5064 28.7668 31.3158 33.664C31.5736 34.1022 31.7798 34.5404 32.0375 34.9528C30.491 37.6333 28.9445 40.2881 27.3723 42.9687C25.2072 46.706 23.0421 50.4691 20.8513 54.2065C20.7482 54.2065 20.7224 54.1549 20.6966 54.0776C20.6709 53.8714 20.7482 53.691 20.7997 53.4848C21.8565 49.6186 20.9802 46.1905 18.3254 43.2522C16.7016 41.4738 14.6396 40.4686 12.2683 40.1335C9.17535 39.6953 6.44323 40.4943 3.99464 42.4274C3.55647 42.7625 3.27294 43.2522 2.75745 43.51C2.65435 43.51 2.6028 43.4584 2.57703 43.3811C3.81421 41.2418 5.02562 39.1025 6.26281 36.9632C11.3662 28.0967 16.4696 19.2302 21.5988 10.3895C21.6503 10.2864 21.7276 10.2091 21.7792 10.106Z" fill="#FABC04"/>
<path d="M2.68 43.4584C3.16972 43.0202 3.63366 42.5563 4.14916 42.1439C10.4124 37.1951 19.8202 40.7778 21.1862 48.6133C21.5213 50.4949 21.3409 52.2991 20.7738 54.1033C20.7481 54.258 20.7223 54.3869 20.6707 54.5415C20.4388 54.9539 20.2326 55.3921 19.9748 55.8045C17.6809 59.5933 14.3044 61.4749 9.87114 61.1914C4.79352 60.8305 0.798445 57.0159 0.102528 51.964C-0.232543 49.5154 0.257176 47.2215 1.52014 45.108C1.77788 44.644 2.08718 44.2316 2.3707 43.7677C2.49958 43.6646 2.44803 43.4584 2.68 43.4584Z" fill="#34A852"/>
<path d="M2.67998 43.4584C2.57688 43.5615 2.57688 43.742 2.39646 43.7677C2.37069 43.5873 2.47379 43.4842 2.57688 43.3553L2.67998 43.4584Z" fill="#FABC04"/>
<path d="M20.6708 54.5414C20.5677 54.361 20.6708 54.2321 20.7739 54.1033C20.7996 54.129 20.8512 54.1806 20.877 54.2064L20.6708 54.5414Z" fill="#E1C025"/>
</g>
<defs>
<clipPath id="clip0_506_2039">
<rect width="64" height="64" fill="white"/>
</clipPath>
</defs>
</svg>
