<svg aria-hidden="true" fill="none" height="26" viewbox="0 0 26 26" width="26" xmlns="http://www.w3.org/2000/svg"> <path d="M4.653 20H1.551C1.34698 19.9997 1.145 19.9593 0.956616 19.8809C0.768233 19.8026 0.597134 19.6879 0.453097 19.5434C0.309061 19.3989 0.194909 19.2274 0.117165 19.0388C0.0394207 18.8501 -0.000391397 18.648 2.90038e-06 18.444V14.556C0.000239205 13.8001 0.276936 13.0703 0.777951 12.5043C1.27897 11.9383 1.9697 11.575 2.72 11.483C2.014 10.782 1.551 9.699 1.551 8.766C1.55048 8.4032 1.62143 8.04386 1.75981 7.70849C1.89819 7.37312 2.10129 7.06831 2.3575 6.81145C2.61371 6.55459 2.91801 6.35072 3.25303 6.21149C3.58804 6.07226 3.94721 6.00039 4.31 6C5.63 6 6.73 6.932 7.001 8.175C6.29416 8.58061 5.7058 9.16417 5.2944 9.86767C4.88301 10.5712 4.66292 11.3701 4.656 12.185H4.654V20H4.653ZM21.279 11.483C22.0294 11.575 22.7202 11.9382 23.2214 12.5042C23.7226 13.0702 23.9995 13.8 24 14.556V18.444C24 19.304 23.306 20 22.449 20H19.346V12.186H19.345C19.3381 11.3711 19.118 10.5722 18.7066 9.86867C18.2952 9.16517 17.7068 8.58161 17 8.176C17.1328 7.56064 17.4722 7.00924 17.9617 6.61341C18.4513 6.21757 19.0615 6.00112 19.691 6C20.0537 6.00052 20.4128 6.07249 20.7477 6.21177C21.0826 6.35106 21.3868 6.55495 21.6429 6.8118C21.899 7.06865 22.102 7.37342 22.2403 7.70872C22.3786 8.04403 22.4495 8.40329 22.449 8.766C22.449 9.7 21.986 10.782 21.279 11.483V11.483ZM6 12.231C6 10.531 7.343 9.154 9 9.154H10.322C10.0883 8.92246 9.88281 8.66398 9.71 8.384C9.5576 8.13982 9.42741 7.88245 9.321 7.615C9.11844 7.12702 9.00955 6.60527 9 6.077C9 4.377 10.343 3 12 3C13.657 3 15 4.378 15 6.077C14.9905 6.60527 14.8816 7.12702 14.679 7.615C14.5723 7.88283 14.4418 8.14053 14.289 8.385C14.1164 8.66458 13.9113 8.92271 13.678 9.154H15C16.657 9.154 18 10.532 18 12.231V21.461C18 22.311 17.329 23 16.5 23H7.5C6.671 23 6 22.312 6 21.462V12.23V12.231Z" fill="#7B98B6"></path> </svg>